<?xml version="1.0" encoding="utf-8" standalone="no"?>
<!DOCTYPE svg PUBLIC "-//W3C//DTD SVG 1.1//EN"
  "http://www.w3.org/Graphics/SVG/1.1/DTD/svg11.dtd">
<svg xmlns:xlink="http://www.w3.org/1999/xlink" width="260.53843pt" height="254.618647pt" viewBox="0 0 260.53843 254.618647" xmlns="http://www.w3.org/2000/svg" version="1.1">
 <metadata>
  <rdf:RDF xmlns:dc="http://purl.org/dc/elements/1.1/" xmlns:cc="http://creativecommons.org/ns#" xmlns:rdf="http://www.w3.org/1999/02/22-rdf-syntax-ns#">
   <cc:Work>
    <dc:type rdf:resource="http://purl.org/dc/dcmitype/StillImage"/>
    <dc:date>2025-05-27T22:57:10.152639</dc:date>
    <dc:format>image/svg+xml</dc:format>
    <dc:creator>
     <cc:Agent>
      <dc:title>Matplotlib v3.10.3, https://matplotlib.org/</dc:title>
     </cc:Agent>
    </dc:creator>
   </cc:Work>
  </rdf:RDF>
 </metadata>
 <defs>
  <style type="text/css">*{stroke-linejoin: round; stroke-linecap: butt}</style>
 </defs>
 <g id="figure_1">
  <g id="patch_1">
   <path d="M 0 254.618647 
L 260.53843 254.618647 
L 260.53843 0 
L 0 0 
z
" style="fill: #ffffff"/>
  </g>
  <g id="axes_1">
   <g id="patch_2">
    <path d="M 29 110.138335 
L 130.454545 110.138335 
L 130.454545 9.338335 
L 29 9.338335 
z
" style="fill: #ffffff"/>
   </g>
   <g id="matplotlib.axis_1">
    <g id="xtick_1">
     <g id="line2d_1">
      <defs>
       <path id="ma4aaebdbdd" d="M 0 0 
L 0 3.5 
" style="stroke: #000000; stroke-width: 0.8"/>
      </defs>
      <g>
       <use xlink:href="#ma4aaebdbdd" x="33.61157" y="110.138335" style="stroke: #000000; stroke-width: 0.8"/>
      </g>
     </g>
    </g>
    <g id="xtick_2">
     <g id="line2d_2">
      <g>
       <use xlink:href="#ma4aaebdbdd" x="79.727273" y="110.138335" style="stroke: #000000; stroke-width: 0.8"/>
      </g>
     </g>
    </g>
    <g id="xtick_3">
     <g id="line2d_3">
      <g>
       <use xlink:href="#ma4aaebdbdd" x="125.842975" y="110.138335" style="stroke: #000000; stroke-width: 0.8"/>
      </g>
     </g>
    </g>
   </g>
   <g id="matplotlib.axis_2">
    <g id="ytick_1">
     <g id="line2d_4">
      <defs>
       <path id="mf78aba1d69" d="M 0 0 
L -3.5 0 
" style="stroke: #000000; stroke-width: 0.8"/>
      </defs>
      <g>
       <use xlink:href="#mf78aba1d69" x="29" y="102.330455" style="stroke: #000000; stroke-width: 0.8"/>
      </g>
     </g>
     <g id="text_1">
      <!-- −20 -->
      <g transform="translate(7.2 105.820299) scale(0.1 -0.1)">
       <defs>
        <path id="LibertinusSerif-Regular-2212" d="M 2963 1446 
C 3046 1446 3136 1594 3136 1658 
C 3136 1709 3110 1766 3046 1766 
L 544 1766 
C 467 1766 384 1645 384 1549 
C 384 1498 422 1446 480 1446 
L 2963 1446 
z
" transform="scale(0.015625)"/>
        <path id="LibertinusSerif-Regular-32" d="M 390 2995 
C 390 2861 512 2746 646 2746 
C 755 2746 947 2854 947 3002 
C 947 3053 934 3091 922 3136 
C 909 3181 870 3238 870 3290 
C 870 3450 1037 3680 1504 3680 
C 1734 3680 2061 3520 2061 2906 
C 2061 2496 1914 2163 1536 1779 
L 1062 1312 
C 435 672 333 365 333 -13 
C 333 -13 659 0 864 0 
L 1984 0 
C 2189 0 2483 -13 2483 -13 
C 2566 326 2630 806 2637 998 
C 2598 1030 2515 1043 2451 1030 
C 2342 576 2234 416 2003 416 
L 864 416 
C 864 723 1306 1158 1338 1190 
L 1984 1811 
C 2349 2163 2624 2445 2624 2931 
C 2624 3622 2061 3904 1542 3904 
C 832 3904 390 3379 390 2995 
z
" transform="scale(0.015625)"/>
        <path id="LibertinusSerif-Regular-30" d="M 1485 3680 
C 1594 3680 1696 3642 1773 3571 
C 1971 3405 2144 2918 2144 2061 
C 2144 1472 2125 1069 2035 742 
C 1894 218 1581 160 1466 160 
C 870 160 806 1254 806 1811 
C 806 3386 1197 3680 1485 3680 
z
M 1459 -64 
C 1952 -64 2701 435 2701 1939 
C 2701 2573 2547 3117 2266 3488 
C 2093 3706 1830 3904 1485 3904 
C 851 3904 250 3149 250 1882 
C 250 1197 454 550 806 205 
C 992 19 1210 -64 1459 -64 
z
" transform="scale(0.015625)"/>
       </defs>
       <use xlink:href="#LibertinusSerif-Regular-2212"/>
       <use xlink:href="#LibertinusSerif-Regular-32" transform="translate(54.999985 0)"/>
       <use xlink:href="#LibertinusSerif-Regular-30" transform="translate(101.499969 0)"/>
      </g>
     </g>
    </g>
    <g id="ytick_2">
     <g id="line2d_5">
      <g>
       <use xlink:href="#mf78aba1d69" x="29" y="79.420302" style="stroke: #000000; stroke-width: 0.8"/>
      </g>
     </g>
     <g id="text_2">
      <!-- 0 -->
      <g transform="translate(17.35 82.910146) scale(0.1 -0.1)">
       <use xlink:href="#LibertinusSerif-Regular-30"/>
      </g>
     </g>
    </g>
    <g id="ytick_3">
     <g id="line2d_6">
      <g>
       <use xlink:href="#mf78aba1d69" x="29" y="56.510149" style="stroke: #000000; stroke-width: 0.8"/>
      </g>
     </g>
     <g id="text_3">
      <!-- 20 -->
      <g transform="translate(12.7 59.999993) scale(0.1 -0.1)">
       <use xlink:href="#LibertinusSerif-Regular-32"/>
       <use xlink:href="#LibertinusSerif-Regular-30" transform="translate(46.499985 0)"/>
      </g>
     </g>
    </g>
    <g id="ytick_4">
     <g id="line2d_7">
      <g>
       <use xlink:href="#mf78aba1d69" x="29" y="33.599997" style="stroke: #000000; stroke-width: 0.8"/>
      </g>
     </g>
     <g id="text_4">
      <!-- 40 -->
      <g transform="translate(12.7 37.08984) scale(0.1 -0.1)">
       <defs>
        <path id="LibertinusSerif-Regular-34" d="M 1734 3245 
L 1734 1402 
L 512 1402 
C 838 1926 1293 2637 1734 3245 
z
M 2752 1402 
L 2221 1402 
L 2221 3270 
C 2221 3590 2221 3840 2234 3891 
L 2221 3904 
L 2016 3904 
C 1971 3904 1933 3859 1914 3834 
C 1510 3334 762 2285 179 1370 
C 198 1274 237 1101 429 1101 
L 1734 1101 
L 1734 512 
C 1734 218 1491 218 1216 198 
C 1178 160 1178 26 1216 -13 
C 1421 -6 1677 0 1971 0 
C 2221 0 2464 -6 2669 -13 
C 2707 26 2707 160 2669 198 
C 2355 224 2221 211 2221 512 
L 2221 1101 
L 2662 1101 
C 2752 1101 2848 1222 2848 1299 
C 2848 1363 2822 1402 2752 1402 
z
" transform="scale(0.015625)"/>
       </defs>
       <use xlink:href="#LibertinusSerif-Regular-34"/>
       <use xlink:href="#LibertinusSerif-Regular-30" transform="translate(46.499985 0)"/>
      </g>
     </g>
    </g>
    <g id="ytick_5">
     <g id="line2d_8">
      <g>
       <use xlink:href="#mf78aba1d69" x="29" y="10.689844" style="stroke: #000000; stroke-width: 0.8"/>
      </g>
     </g>
     <g id="text_5">
      <!-- 60 -->
      <g transform="translate(12.7 14.179688) scale(0.1 -0.1)">
       <defs>
        <path id="LibertinusSerif-Regular-36" d="M 864 1965 
C 1075 2099 1280 2112 1395 2112 
C 2022 2112 2163 1498 2163 1178 
C 2163 474 1894 154 1581 154 
C 1178 154 813 371 813 1466 
C 813 1606 826 1779 864 1965 
z
M 922 2195 
C 1094 2778 1504 3424 2355 3744 
C 2355 3821 2330 3878 2278 3910 
C 1632 3718 1235 3450 877 3034 
C 480 2573 282 1990 282 1485 
C 282 186 1018 -70 1510 -70 
C 2349 -70 2694 742 2694 1293 
C 2694 1843 2400 2336 1530 2336 
C 1363 2336 1114 2285 922 2195 
z
" transform="scale(0.015625)"/>
       </defs>
       <use xlink:href="#LibertinusSerif-Regular-36"/>
       <use xlink:href="#LibertinusSerif-Regular-30" transform="translate(46.499985 0)"/>
      </g>
     </g>
    </g>
   </g>
   <g id="line2d_9">
    <path d="M 33.61157 77.129287 
L 35.058337 77.232507 
L 35.781721 77.461702 
L 36.143413 77.784733 
L 36.505105 78.337375 
L 37.59018 78.880537 
L 39.398639 79.34739 
L 40.483714 79.439278 
L 50.972776 79.421438 
L 122.226057 79.498229 
L 125.842975 79.542064 
L 125.842975 79.542064 
" clip-path="url(#p80b6ab4f78)" style="fill: none; stroke: #1f77b4; stroke-width: 1.5; stroke-linecap: square"/>
   </g>
   <g id="line2d_10">
    <path d="M 33.61157 77.129287 
L 35.420029 77.025856 
L 37.59018 76.654113 
L 39.760331 76.026943 
L 41.930481 75.128802 
L 43.73894 74.145611 
L 45.547399 72.916228 
L 47.355858 71.407498 
L 49.164317 69.59349 
L 50.972776 67.472021 
L 53.504618 64.093005 
L 56.398153 60.213678 
L 57.84492 58.66154 
L 58.929995 57.845244 
L 59.653379 57.516005 
L 60.376762 57.383186 
L 61.100146 57.46058 
L 61.823529 57.754025 
L 62.546913 58.260706 
L 63.631988 59.393574 
L 64.717064 60.910072 
L 66.163831 63.364241 
L 72.312591 74.504071 
L 74.12105 77.05879 
L 75.929509 79.168423 
L 77.737968 80.874072 
L 79.546427 82.237318 
L 81.354886 83.32415 
L 83.525036 84.350249 
L 86.056879 85.278558 
L 89.312105 86.218157 
L 95.822557 87.792121 
L 106.673311 90.253863 
L 110.290228 90.814132 
L 113.183763 91.040893 
L 116.077297 91.028103 
L 118.970831 90.772528 
L 122.226057 90.240912 
L 125.842975 89.463081 
L 125.842975 89.463081 
" clip-path="url(#p80b6ab4f78)" style="fill: none; stroke-dasharray: 5.55,2.4; stroke-dashoffset: 0; stroke: #1f77b4; stroke-width: 1.5"/>
   </g>
   <g id="line2d_11">
    <path d="M 33.61157 77.129287 
L 34.334954 76.893892 
L 35.058337 76.880725 
L 35.781721 76.988055 
L 36.143413 77.279936 
L 36.505105 77.970423 
L 36.866796 78.176212 
L 37.228488 78.638189 
L 39.036947 79.225598 
L 40.483714 79.399662 
L 61.100146 79.419947 
L 118.60914 79.525785 
L 125.842975 79.687473 
L 125.842975 79.687473 
" clip-path="url(#p80b6ab4f78)" style="fill: none; stroke: #ff7f0e; stroke-width: 1.5; stroke-linecap: square"/>
   </g>
   <g id="line2d_12">
    <path d="M 33.61157 77.129287 
L 37.59018 74.532319 
L 39.760331 72.80617 
L 41.568789 71.072924 
L 43.377248 68.994718 
L 45.185707 66.510519 
L 46.994166 63.586769 
L 49.164317 59.543933 
L 53.142927 51.857519 
L 54.228002 50.283765 
L 54.951386 49.535798 
L 55.674769 49.103523 
L 56.398153 49.049238 
L 57.121536 49.427476 
L 57.84492 50.278411 
L 58.568303 51.621208 
L 59.291687 53.44849 
L 60.376762 57.00853 
L 61.823529 62.870116 
L 64.717064 75.175247 
L 65.802139 79.001457 
L 66.887214 82.127016 
L 67.97229 84.535825 
L 69.057365 86.288829 
L 70.14244 87.488756 
L 71.227516 88.251312 
L 72.312591 88.686422 
L 73.397667 88.888661 
L 74.844434 88.925171 
L 77.376276 88.688264 
L 81.716578 88.248146 
L 84.610112 88.202525 
L 87.503646 88.396686 
L 90.758872 88.868263 
L 94.737482 89.707707 
L 103.056393 91.582566 
L 105.949927 91.943905 
L 108.48177 92.008066 
L 110.65192 91.843779 
L 112.822071 91.474274 
L 115.353913 90.815538 
L 118.970831 89.599409 
L 124.396208 87.758076 
L 125.842975 87.358091 
L 125.842975 87.358091 
" clip-path="url(#p80b6ab4f78)" style="fill: none; stroke-dasharray: 5.55,2.4; stroke-dashoffset: 0; stroke: #ff7f0e; stroke-width: 1.5"/>
   </g>
   <g id="line2d_13">
    <path d="M 33.61157 77.129287 
L 35.420029 77.05033 
L 38.675255 76.7194 
L 40.845406 76.791184 
L 51.696159 77.499079 
L 64.355372 78.087897 
L 79.546427 78.561389 
L 98.716091 78.926467 
L 124.396208 79.185166 
L 125.842975 79.193851 
L 125.842975 79.193851 
" clip-path="url(#p80b6ab4f78)" style="fill: none; stroke: #2ca02c; stroke-width: 1.5; stroke-linecap: square"/>
   </g>
   <g id="line2d_14">
    <path d="M 33.61157 77.129287 
L 37.228488 77.081455 
L 39.760331 76.853829 
L 41.930481 76.424705 
L 43.377248 75.94743 
L 44.824016 75.246352 
L 45.909091 74.523717 
L 46.994166 73.583034 
L 48.079242 72.370427 
L 49.164317 70.82367 
L 50.249392 68.874356 
L 51.334468 66.452899 
L 52.419543 63.497635 
L 53.504618 59.969101 
L 54.951386 54.385441 
L 56.759844 46.309385 
L 59.291687 34.890557 
L 60.376762 30.885951 
L 61.100146 28.754006 
L 61.823529 27.127187 
L 62.546913 26.035749 
L 63.270297 25.477329 
L 63.631988 25.388837 
L 64.355372 25.560795 
L 65.078755 26.140862 
L 65.802139 27.050742 
L 66.887214 28.855629 
L 69.057365 33.165014 
L 71.227516 37.328905 
L 73.035975 40.267957 
L 74.482742 42.233298 
L 75.929509 43.890407 
L 77.737968 45.601411 
L 79.546427 46.995342 
L 81.716578 48.348624 
L 83.886728 49.431638 
L 86.418571 50.41869 
L 88.950413 51.143582 
L 91.482256 51.618043 
L 94.014098 51.839313 
L 96.184249 51.82132 
L 98.3544 51.607568 
L 100.886242 51.113412 
L 103.418085 50.374867 
L 106.311619 49.291047 
L 114.992222 45.845119 
L 117.162372 45.308504 
L 119.332523 45.008856 
L 121.502674 44.959871 
L 123.672825 45.149878 
L 125.842975 45.547629 
L 125.842975 45.547629 
" clip-path="url(#p80b6ab4f78)" style="fill: none; stroke-dasharray: 5.55,2.4; stroke-dashoffset: 0; stroke: #2ca02c; stroke-width: 1.5"/>
   </g>
   <g id="patch_3">
    <path d="M 29 110.138335 
L 29 9.338335 
" style="fill: none; stroke: #000000; stroke-width: 0.8; stroke-linejoin: miter; stroke-linecap: square"/>
   </g>
   <g id="patch_4">
    <path d="M 130.454545 110.138335 
L 130.454545 9.338335 
" style="fill: none; stroke: #000000; stroke-width: 0.8; stroke-linejoin: miter; stroke-linecap: square"/>
   </g>
   <g id="patch_5">
    <path d="M 29 110.138335 
L 130.454545 110.138335 
" style="fill: none; stroke: #000000; stroke-width: 0.8; stroke-linejoin: miter; stroke-linecap: square"/>
   </g>
   <g id="patch_6">
    <path d="M 29 9.338335 
L 130.454545 9.338335 
" style="fill: none; stroke: #000000; stroke-width: 0.8; stroke-linejoin: miter; stroke-linecap: square"/>
   </g>
   <g id="text_6">
    <g id="patch_7">
     <path d="M 56.109929 28.504507 
L 103.344616 28.504507 
L 103.344616 10.332163 
L 56.109929 10.332163 
z
" style="fill: #ffffff; opacity: 0.5; stroke: #000000; stroke-linejoin: miter"/>
    </g>
    <!-- Base 10k -->
    <g transform="translate(60.069929 21.969819) scale(0.11 -0.11)">
     <defs>
      <path id="LibertinusSerif-Regular-42" d="M 1222 3520 
C 1222 3859 1222 3923 1779 3923 
C 2138 3923 2605 3731 2605 3078 
C 2605 2534 2227 2342 1696 2342 
L 1222 2342 
L 1222 3520 
z
M 1222 2125 
L 1664 2125 
C 2541 2125 2906 1632 2906 1056 
C 2906 589 2726 198 1754 198 
C 1306 198 1222 365 1222 755 
L 1222 2125 
z
M 947 4128 
C 717 4128 371 4134 122 4141 
C 83 4102 83 3968 122 3930 
C 570 3910 678 3878 678 3347 
L 678 781 
C 678 250 570 218 122 198 
C 83 160 83 26 122 -13 
C 371 -6 710 0 954 0 
C 1178 0 1350 -13 1888 -13 
C 3162 -13 3501 627 3501 1178 
C 3501 1792 3072 2144 2515 2304 
L 2515 2317 
C 2835 2477 3123 2803 3123 3155 
C 3123 3584 2938 4141 1747 4141 
C 1523 4141 1178 4128 947 4128 
z
" transform="scale(0.015625)"/>
      <path id="LibertinusSerif-Regular-61" d="M 1875 1491 
L 1875 646 
C 1875 563 1837 518 1786 480 
C 1619 346 1402 198 1222 198 
C 902 198 762 454 762 653 
C 762 941 896 1235 1370 1357 
L 1875 1491 
z
M 1875 307 
C 1914 109 1978 -64 2304 -64 
C 2547 -64 2778 45 2912 173 
C 2899 250 2874 301 2803 346 
C 2752 301 2643 243 2566 243 
C 2381 243 2374 493 2374 787 
L 2374 1728 
C 2374 2637 1875 2810 1408 2810 
C 883 2810 352 2464 352 2099 
C 352 1946 429 1869 576 1869 
C 762 1869 877 2003 877 2086 
C 877 2131 870 2176 858 2202 
C 851 2221 845 2259 845 2330 
C 845 2528 1114 2598 1357 2598 
C 1574 2598 1875 2490 1875 1766 
C 1875 1722 1856 1696 1837 1690 
L 1286 1555 
C 672 1402 230 1062 230 627 
C 230 102 589 -64 1037 -64 
C 1254 -64 1453 -13 1734 205 
L 1862 307 
L 1875 307 
z
" transform="scale(0.015625)"/>
      <path id="LibertinusSerif-Regular-73" d="M 307 883 
C 333 570 352 269 352 0 
C 416 13 480 19 512 19 
C 557 19 595 19 640 6 
C 813 -38 986 -64 1222 -64 
C 1581 -64 2240 109 2240 742 
C 2240 1178 1926 1434 1491 1594 
C 1101 1734 851 1837 851 2189 
C 851 2451 1082 2598 1299 2598 
C 1440 2598 1811 2547 1894 2003 
C 1933 1965 2061 1971 2099 2010 
C 2118 2240 2131 2477 2138 2688 
C 1939 2720 1632 2810 1299 2810 
C 826 2810 397 2502 397 2093 
C 397 1626 608 1427 1101 1222 
C 1632 1005 1754 870 1754 595 
C 1754 282 1446 147 1210 147 
C 960 147 819 230 755 301 
C 614 448 544 730 506 890 
C 467 928 346 922 307 883 
z
" transform="scale(0.015625)"/>
      <path id="LibertinusSerif-Regular-65" d="M 794 1805 
C 915 2528 1363 2586 1517 2586 
C 1760 2586 2048 2451 2048 1914 
C 2048 1856 2022 1824 1952 1824 
L 794 1805 
z
M 2470 595 
C 2234 352 2048 250 1677 250 
C 1446 250 1178 384 979 710 
C 851 922 774 1216 774 1587 
L 2477 1574 
C 2554 1574 2598 1613 2598 1683 
C 2598 2221 2406 2797 1517 2797 
C 960 2797 237 2266 237 1293 
C 237 934 326 589 538 346 
C 755 90 1056 -64 1517 -64 
C 2003 -64 2349 160 2605 493 
C 2586 557 2547 589 2470 595 
z
" transform="scale(0.015625)"/>
      <path id="LibertinusSerif-Regular-20" transform="scale(0.015625)"/>
      <path id="LibertinusSerif-Regular-31" d="M 1843 781 
L 1843 3002 
C 1843 3386 1850 3776 1862 3859 
C 1862 3885 1843 3891 1824 3891 
C 1466 3667 1133 3514 570 3251 
C 576 3174 608 3117 666 3078 
C 954 3200 1101 3238 1222 3238 
C 1325 3238 1350 3085 1350 2867 
L 1350 781 
C 1350 250 1178 218 730 198 
C 691 160 691 26 730 -13 
C 1043 -6 1267 0 1619 0 
C 1920 0 2080 -6 2400 -13 
C 2438 26 2438 160 2400 198 
C 1952 218 1843 250 1843 781 
z
" transform="scale(0.015625)"/>
      <path id="LibertinusSerif-Regular-6b" d="M 550 781 
C 550 250 480 224 122 198 
C 83 160 83 26 122 -13 
C 333 -6 550 0 806 0 
C 1030 0 1242 -6 1389 -13 
C 1427 26 1427 160 1389 198 
C 1126 224 1056 250 1056 781 
L 1056 1331 
C 1178 1331 1267 1318 1331 1299 
C 1402 1254 1459 1197 1536 1094 
L 2003 467 
C 2189 211 2259 90 2272 19 
C 2272 0 2278 -13 2298 -13 
C 2426 -6 2566 0 2694 0 
C 2893 0 3091 -6 3219 -13 
C 3258 26 3258 160 3219 198 
C 3002 224 2835 250 2669 467 
L 1824 1530 
C 1798 1555 1779 1587 1779 1619 
C 1779 1645 1779 1658 1805 1683 
L 2368 2266 
C 2560 2470 2784 2522 3040 2547 
C 3078 2586 3078 2720 3040 2758 
C 2893 2752 2714 2746 2483 2746 
C 2240 2746 2003 2752 1856 2758 
C 1818 2720 1818 2586 1856 2547 
C 2214 2522 2061 2291 2003 2221 
C 1856 2035 1651 1818 1491 1696 
C 1344 1587 1171 1510 1056 1498 
L 1056 3731 
C 1056 4147 1082 4403 1082 4403 
C 1082 4448 1056 4467 998 4467 
C 838 4403 358 4314 102 4294 
C 90 4243 102 4141 141 4102 
C 474 4083 550 4115 550 3578 
L 550 781 
z
" transform="scale(0.015625)"/>
     </defs>
     <use xlink:href="#LibertinusSerif-Regular-42"/>
     <use xlink:href="#LibertinusSerif-Regular-61" transform="translate(58.799988 0)"/>
     <use xlink:href="#LibertinusSerif-Regular-73" transform="translate(104.499985 0)"/>
     <use xlink:href="#LibertinusSerif-Regular-65" transform="translate(143.499969 0)"/>
     <use xlink:href="#LibertinusSerif-Regular-20" transform="translate(188.199966 0)"/>
     <use xlink:href="#LibertinusSerif-Regular-31" transform="translate(213.199951 0)"/>
     <use xlink:href="#LibertinusSerif-Regular-30" transform="translate(259.699936 0)"/>
     <use xlink:href="#LibertinusSerif-Regular-6b" transform="translate(306.199921 0)"/>
    </g>
   </g>
  </g>
  <g id="axes_2">
   <g id="patch_8">
    <path d="M 150.745455 110.138335 
L 252.2 110.138335 
L 252.2 9.338335 
L 150.745455 9.338335 
z
" style="fill: #ffffff"/>
   </g>
   <g id="matplotlib.axis_3">
    <g id="xtick_4">
     <g id="line2d_15">
      <g>
       <use xlink:href="#ma4aaebdbdd" x="155.357025" y="110.138335" style="stroke: #000000; stroke-width: 0.8"/>
      </g>
     </g>
    </g>
    <g id="xtick_5">
     <g id="line2d_16">
      <g>
       <use xlink:href="#ma4aaebdbdd" x="201.472727" y="110.138335" style="stroke: #000000; stroke-width: 0.8"/>
      </g>
     </g>
    </g>
    <g id="xtick_6">
     <g id="line2d_17">
      <g>
       <use xlink:href="#ma4aaebdbdd" x="247.58843" y="110.138335" style="stroke: #000000; stroke-width: 0.8"/>
      </g>
     </g>
    </g>
   </g>
   <g id="matplotlib.axis_4">
    <g id="ytick_6">
     <g id="line2d_18">
      <g>
       <use xlink:href="#mf78aba1d69" x="150.745455" y="102.330455" style="stroke: #000000; stroke-width: 0.8"/>
      </g>
     </g>
    </g>
    <g id="ytick_7">
     <g id="line2d_19">
      <g>
       <use xlink:href="#mf78aba1d69" x="150.745455" y="79.420302" style="stroke: #000000; stroke-width: 0.8"/>
      </g>
     </g>
    </g>
    <g id="ytick_8">
     <g id="line2d_20">
      <g>
       <use xlink:href="#mf78aba1d69" x="150.745455" y="56.510149" style="stroke: #000000; stroke-width: 0.8"/>
      </g>
     </g>
    </g>
    <g id="ytick_9">
     <g id="line2d_21">
      <g>
       <use xlink:href="#mf78aba1d69" x="150.745455" y="33.599997" style="stroke: #000000; stroke-width: 0.8"/>
      </g>
     </g>
    </g>
    <g id="ytick_10">
     <g id="line2d_22">
      <g>
       <use xlink:href="#mf78aba1d69" x="150.745455" y="10.689844" style="stroke: #000000; stroke-width: 0.8"/>
      </g>
     </g>
    </g>
   </g>
   <g id="line2d_23">
    <path d="M 155.357025 77.129287 
L 157.165484 77.026048 
L 159.335634 76.654457 
L 161.505785 76.027543 
L 163.675936 75.129389 
L 165.484395 74.146244 
L 167.292854 72.917129 
L 169.101313 71.409018 
L 170.909772 69.595705 
L 172.71823 67.474366 
L 175.250073 64.095714 
L 178.143607 60.216142 
L 179.590374 58.663058 
L 180.67545 57.846557 
L 181.398833 57.547815 
L 182.8456 57.019657 
L 185.739135 55.532698 
L 188.632669 54.111775 
L 193.334662 52.195546 
L 196.589888 51.057887 
L 199.121731 50.427096 
L 201.291881 50.108802 
L 203.462032 49.994358 
L 205.993875 50.097045 
L 208.525717 50.424013 
L 211.419251 51.028963 
L 214.674477 51.939725 
L 219.014779 53.397697 
L 231.673991 57.796763 
L 236.737676 59.238218 
L 241.801361 60.43245 
L 246.865046 61.395647 
L 247.58843 61.516077 
L 247.58843 61.516077 
" clip-path="url(#p6c281f1d17)" style="fill: none; stroke: #1f77b4; stroke-width: 1.5; stroke-linecap: square"/>
   </g>
   <g id="line2d_24">
    <path d="M 155.357025 77.129287 
L 157.165484 77.025856 
L 159.335634 76.654113 
L 161.505785 76.026943 
L 163.675936 75.128802 
L 165.484395 74.145611 
L 167.292854 72.916228 
L 169.101313 71.407498 
L 170.909772 69.59349 
L 172.71823 67.472021 
L 175.250073 64.093005 
L 178.143607 60.213678 
L 179.590374 58.66154 
L 180.67545 57.845244 
L 181.398833 57.516005 
L 182.122217 57.383186 
L 182.8456 57.46058 
L 183.568984 57.754025 
L 184.292368 58.260706 
L 185.377443 59.393574 
L 186.462518 60.910072 
L 187.909285 63.364241 
L 194.058046 74.504071 
L 195.866505 77.05879 
L 197.674964 79.168423 
L 199.483422 80.874072 
L 201.291881 82.237318 
L 203.10034 83.32415 
L 205.270491 84.350249 
L 207.802333 85.278558 
L 211.05756 86.218157 
L 217.568012 87.792121 
L 228.418765 90.253863 
L 232.035683 90.814132 
L 234.929217 91.040893 
L 237.822752 91.028103 
L 240.716286 90.772528 
L 243.971512 90.240912 
L 247.58843 89.463081 
L 247.58843 89.463081 
" clip-path="url(#p6c281f1d17)" style="fill: none; stroke-dasharray: 5.55,2.4; stroke-dashoffset: 0; stroke: #1f77b4; stroke-width: 1.5"/>
   </g>
   <g id="line2d_25">
    <path d="M 155.357025 77.129287 
L 159.335634 74.532716 
L 161.505785 72.806992 
L 163.314244 71.073914 
L 165.122703 68.99584 
L 166.931162 66.512129 
L 168.739621 63.589384 
L 170.909772 59.547761 
L 174.888381 51.860414 
L 175.973456 50.285732 
L 176.69684 49.53675 
L 177.420224 49.10331 
L 178.143607 49.047725 
L 178.866991 49.424112 
L 179.590374 50.272646 
L 180.313758 51.614343 
L 181.037141 53.27615 
L 181.398833 53.640335 
L 182.122217 53.836052 
L 182.8456 53.730253 
L 184.292368 53.167683 
L 187.909285 51.58396 
L 190.079436 51.038033 
L 193.696354 50.358187 
L 195.866505 50.150112 
L 197.674964 50.210919 
L 199.121731 50.460522 
L 200.568498 50.906586 
L 202.015265 51.55127 
L 203.823724 52.625931 
L 205.632183 53.978141 
L 207.802333 55.929558 
L 209.972484 58.193225 
L 212.504327 61.16094 
L 215.759553 65.366369 
L 220.461546 71.888529 
L 229.142149 84.004418 
L 233.48245 89.673548 
L 237.822752 94.970844 
L 242.163053 99.891859 
L 246.503354 104.463558 
L 247.58843 105.556517 
L 247.58843 105.556517 
" clip-path="url(#p6c281f1d17)" style="fill: none; stroke: #ff7f0e; stroke-width: 1.5; stroke-linecap: square"/>
   </g>
   <g id="line2d_26">
    <path d="M 155.357025 77.129287 
L 159.335634 74.532319 
L 161.505785 72.80617 
L 163.314244 71.072924 
L 165.122703 68.994718 
L 166.931162 66.510519 
L 168.739621 63.586769 
L 170.909772 59.543933 
L 174.888381 51.857519 
L 175.973456 50.283765 
L 176.69684 49.535798 
L 177.420224 49.103523 
L 178.143607 49.049238 
L 178.866991 49.427476 
L 179.590374 50.278411 
L 180.313758 51.621208 
L 181.037141 53.44849 
L 182.122217 57.00853 
L 183.568984 62.870116 
L 186.462518 75.175247 
L 187.547594 79.001457 
L 188.632669 82.127016 
L 189.717744 84.535825 
L 190.80282 86.288829 
L 191.887895 87.488756 
L 192.97297 88.251312 
L 194.058046 88.686422 
L 195.143121 88.888661 
L 196.589888 88.925171 
L 199.121731 88.688264 
L 203.462032 88.248146 
L 206.355566 88.202525 
L 209.249101 88.396686 
L 212.504327 88.868263 
L 216.482936 89.707707 
L 224.801847 91.582566 
L 227.695382 91.943905 
L 230.227224 92.008066 
L 232.397375 91.843779 
L 234.567526 91.474274 
L 237.099368 90.815538 
L 240.716286 89.599409 
L 246.141663 87.758076 
L 247.58843 87.358091 
L 247.58843 87.358091 
" clip-path="url(#p6c281f1d17)" style="fill: none; stroke-dasharray: 5.55,2.4; stroke-dashoffset: 0; stroke: #ff7f0e; stroke-width: 1.5"/>
   </g>
   <g id="line2d_27">
    <path d="M 155.357025 77.129287 
L 158.973943 77.081316 
L 161.505785 76.853717 
L 163.675936 76.424553 
L 165.122703 75.947289 
L 166.56947 75.246426 
L 167.654545 74.524156 
L 168.739621 73.584197 
L 169.824696 72.372521 
L 170.909772 70.826736 
L 171.994847 68.87809 
L 173.079922 66.457031 
L 174.164998 63.502667 
L 175.250073 59.976277 
L 176.69684 54.395941 
L 178.505299 46.32 
L 180.67545 36.408868 
L 181.037141 35.092302 
L 181.398833 34.480106 
L 182.8456 33.031612 
L 185.377443 29.799424 
L 188.270977 26.159462 
L 191.887895 22.141665 
L 194.781429 19.180738 
L 196.95158 17.248586 
L 198.760039 15.932412 
L 200.206806 15.109087 
L 201.653573 14.501979 
L 203.10034 14.111793 
L 204.547107 13.933022 
L 205.993875 13.95647 
L 207.440642 14.170536 
L 209.249101 14.685775 
L 211.05756 15.448893 
L 213.22771 16.646751 
L 215.397861 18.096455 
L 218.291395 20.315802 
L 222.631697 23.978465 
L 229.503841 29.776063 
L 233.48245 32.817315 
L 237.099368 35.292905 
L 240.716286 37.477888 
L 244.333204 39.380632 
L 247.58843 40.86862 
L 247.58843 40.86862 
" clip-path="url(#p6c281f1d17)" style="fill: none; stroke: #2ca02c; stroke-width: 1.5; stroke-linecap: square"/>
   </g>
   <g id="line2d_28">
    <path d="M 155.357025 77.129287 
L 158.973943 77.081455 
L 161.505785 76.853829 
L 163.675936 76.424705 
L 165.122703 75.94743 
L 166.56947 75.246352 
L 167.654545 74.523717 
L 168.739621 73.583034 
L 169.824696 72.370427 
L 170.909772 70.82367 
L 171.994847 68.874356 
L 173.079922 66.452899 
L 174.164998 63.497635 
L 175.250073 59.969101 
L 176.69684 54.385441 
L 178.505299 46.309385 
L 181.037141 34.890557 
L 182.122217 30.885951 
L 182.8456 28.754006 
L 183.568984 27.127187 
L 184.292368 26.035749 
L 185.015751 25.477329 
L 185.377443 25.388837 
L 186.100826 25.560795 
L 186.82421 26.140862 
L 187.547594 27.050742 
L 188.632669 28.855629 
L 190.80282 33.165014 
L 192.97297 37.328905 
L 194.781429 40.267957 
L 196.228196 42.233298 
L 197.674964 43.890407 
L 199.483422 45.601411 
L 201.291881 46.995342 
L 203.462032 48.348624 
L 205.632183 49.431638 
L 208.164025 50.41869 
L 210.695868 51.143582 
L 213.22771 51.618043 
L 215.759553 51.839313 
L 217.929703 51.82132 
L 220.099854 51.607568 
L 222.631697 51.113412 
L 225.163539 50.374867 
L 228.057073 49.291047 
L 236.737676 45.845119 
L 238.907827 45.308504 
L 241.077978 45.008856 
L 243.248128 44.959871 
L 245.418279 45.149878 
L 247.58843 45.547629 
L 247.58843 45.547629 
" clip-path="url(#p6c281f1d17)" style="fill: none; stroke-dasharray: 5.55,2.4; stroke-dashoffset: 0; stroke: #2ca02c; stroke-width: 1.5"/>
   </g>
   <g id="patch_9">
    <path d="M 150.745455 110.138335 
L 150.745455 9.338335 
" style="fill: none; stroke: #000000; stroke-width: 0.8; stroke-linejoin: miter; stroke-linecap: square"/>
   </g>
   <g id="patch_10">
    <path d="M 252.2 110.138335 
L 252.2 9.338335 
" style="fill: none; stroke: #000000; stroke-width: 0.8; stroke-linejoin: miter; stroke-linecap: square"/>
   </g>
   <g id="patch_11">
    <path d="M 150.745455 110.138335 
L 252.2 110.138335 
" style="fill: none; stroke: #000000; stroke-width: 0.8; stroke-linejoin: miter; stroke-linecap: square"/>
   </g>
   <g id="patch_12">
    <path d="M 150.745455 9.338335 
L 252.2 9.338335 
" style="fill: none; stroke: #000000; stroke-width: 0.8; stroke-linejoin: miter; stroke-linecap: square"/>
   </g>
   <g id="text_7">
    <g id="patch_13">
     <path d="M 173.109055 28.504507 
L 229.836399 28.504507 
L 229.836399 10.332163 
L 173.109055 10.332163 
z
" style="fill: #ffffff; opacity: 0.5; stroke: #000000; stroke-linejoin: miter"/>
    </g>
    <!-- Causal 10k -->
    <g transform="translate(177.069055 21.969819) scale(0.11 -0.11)">
     <defs>
      <path id="LibertinusSerif-Regular-43" d="M 2285 -64 
C 2906 -64 3475 230 3910 800 
C 3878 858 3834 896 3763 896 
C 3309 397 2874 198 2278 198 
C 1414 198 819 1171 819 2106 
C 819 2656 960 3117 1197 3405 
C 1517 3795 1888 3974 2221 3974 
C 3104 3974 3456 3450 3622 2899 
C 3699 2874 3757 2893 3834 2931 
C 3802 3264 3757 3571 3693 3923 
C 3366 3955 3078 4211 2291 4211 
C 1747 4211 1293 4013 915 3667 
C 486 3277 237 2650 237 1984 
C 237 870 909 -64 2285 -64 
z
" transform="scale(0.015625)"/>
      <path id="LibertinusSerif-Regular-75" d="M 1389 -64 
C 1638 -64 1939 64 2253 320 
C 2285 346 2342 358 2349 314 
C 2362 147 2419 -64 2419 -64 
C 2470 -83 2496 -83 2541 -64 
C 2682 51 2906 147 3296 192 
C 3334 230 3334 326 3296 365 
C 2886 397 2829 518 2829 832 
L 2829 2061 
C 2829 2253 2854 2720 2854 2720 
C 2854 2739 2835 2758 2803 2758 
C 2771 2752 2675 2746 2579 2746 
C 2374 2746 2144 2752 1926 2758 
C 1888 2720 1888 2586 1926 2547 
C 2240 2528 2323 2451 2323 2029 
L 2323 794 
C 2323 672 2310 621 2221 544 
C 1984 339 1741 237 1581 237 
C 1389 237 1069 326 1069 896 
L 1069 2061 
C 1069 2253 1094 2720 1094 2720 
C 1094 2739 1075 2758 1043 2758 
C 1011 2752 915 2746 819 2746 
C 614 2746 384 2752 166 2758 
C 128 2720 128 2586 166 2547 
C 474 2522 563 2451 563 2035 
L 563 806 
C 563 365 755 -64 1389 -64 
z
" transform="scale(0.015625)"/>
      <path id="LibertinusSerif-Regular-6c" d="M 608 781 
C 608 250 538 218 147 198 
C 109 160 109 26 147 -13 
C 371 -6 608 0 864 0 
C 1120 0 1363 -6 1574 -13 
C 1613 26 1613 160 1574 198 
C 1184 218 1114 250 1114 781 
L 1114 3731 
C 1114 4147 1139 4403 1139 4403 
C 1139 4448 1114 4467 1056 4467 
C 896 4403 416 4314 160 4294 
C 147 4243 160 4141 198 4102 
C 570 4077 608 4058 608 3578 
L 608 781 
z
" transform="scale(0.015625)"/>
     </defs>
     <use xlink:href="#LibertinusSerif-Regular-43"/>
     <use xlink:href="#LibertinusSerif-Regular-61" transform="translate(64.599991 0)"/>
     <use xlink:href="#LibertinusSerif-Regular-75" transform="translate(110.299988 0)"/>
     <use xlink:href="#LibertinusSerif-Regular-73" transform="translate(163.399979 0)"/>
     <use xlink:href="#LibertinusSerif-Regular-61" transform="translate(202.399963 0)"/>
     <use xlink:href="#LibertinusSerif-Regular-6c" transform="translate(248.09996 0)"/>
     <use xlink:href="#LibertinusSerif-Regular-20" transform="translate(274.499954 0)"/>
     <use xlink:href="#LibertinusSerif-Regular-31" transform="translate(299.499939 0)"/>
     <use xlink:href="#LibertinusSerif-Regular-30" transform="translate(345.999924 0)"/>
     <use xlink:href="#LibertinusSerif-Regular-6b" transform="translate(392.499908 0)"/>
    </g>
   </g>
  </g>
  <g id="axes_3">
   <g id="patch_14">
    <path d="M 29 231.098335 
L 130.454545 231.098335 
L 130.454545 130.298335 
L 29 130.298335 
z
" style="fill: #ffffff"/>
   </g>
   <g id="matplotlib.axis_5">
    <g id="xtick_7">
     <g id="line2d_29">
      <g>
       <use xlink:href="#ma4aaebdbdd" x="33.61157" y="231.098335" style="stroke: #000000; stroke-width: 0.8"/>
      </g>
     </g>
     <g id="text_8">
      <!-- 0.0 -->
      <g transform="translate(27.86157 245.078022) scale(0.1 -0.1)">
       <defs>
        <path id="LibertinusSerif-Regular-2e" d="M 365 275 
C 365 90 518 -64 704 -64 
C 890 -64 1043 90 1043 275 
C 1043 461 890 614 704 614 
C 518 614 365 461 365 275 
z
" transform="scale(0.015625)"/>
       </defs>
       <use xlink:href="#LibertinusSerif-Regular-30"/>
       <use xlink:href="#LibertinusSerif-Regular-2e" transform="translate(46.499985 0)"/>
       <use xlink:href="#LibertinusSerif-Regular-30" transform="translate(68.499969 0)"/>
      </g>
     </g>
    </g>
    <g id="xtick_8">
     <g id="line2d_30">
      <g>
       <use xlink:href="#ma4aaebdbdd" x="79.727273" y="231.098335" style="stroke: #000000; stroke-width: 0.8"/>
      </g>
     </g>
     <g id="text_9">
      <!-- 0.5 -->
      <g transform="translate(73.977273 245.078022) scale(0.1 -0.1)">
       <defs>
        <path id="LibertinusSerif-Regular-35" d="M 2042 1210 
C 2042 602 1722 154 1338 154 
C 1094 154 1011 314 915 442 
C 832 550 723 646 589 646 
C 467 646 346 538 346 410 
C 346 147 890 -70 1254 -70 
C 2048 -70 2611 518 2611 1325 
C 2611 1946 2182 2502 1466 2502 
C 1190 2502 954 2445 838 2400 
L 966 3469 
C 1203 3443 1408 3411 1715 3411 
C 1907 3411 2125 3424 2387 3450 
L 2490 3885 
L 2445 3910 
C 2080 3872 1734 3840 1395 3840 
C 1158 3840 928 3853 704 3872 
L 486 2029 
C 826 2157 1069 2182 1299 2182 
C 1715 2182 2042 1907 2042 1210 
z
" transform="scale(0.015625)"/>
       </defs>
       <use xlink:href="#LibertinusSerif-Regular-30"/>
       <use xlink:href="#LibertinusSerif-Regular-2e" transform="translate(46.499985 0)"/>
       <use xlink:href="#LibertinusSerif-Regular-35" transform="translate(68.499969 0)"/>
      </g>
     </g>
    </g>
    <g id="xtick_9">
     <g id="line2d_31">
      <g>
       <use xlink:href="#ma4aaebdbdd" x="125.842975" y="231.098335" style="stroke: #000000; stroke-width: 0.8"/>
      </g>
     </g>
     <g id="text_10">
      <!-- 1.0 -->
      <g transform="translate(120.092975 245.078022) scale(0.1 -0.1)">
       <use xlink:href="#LibertinusSerif-Regular-31"/>
       <use xlink:href="#LibertinusSerif-Regular-2e" transform="translate(46.499985 0)"/>
       <use xlink:href="#LibertinusSerif-Regular-30" transform="translate(68.499969 0)"/>
      </g>
     </g>
    </g>
   </g>
   <g id="matplotlib.axis_6">
    <g id="ytick_11">
     <g id="line2d_32">
      <g>
       <use xlink:href="#mf78aba1d69" x="29" y="223.290455" style="stroke: #000000; stroke-width: 0.8"/>
      </g>
     </g>
     <g id="text_11">
      <!-- −20 -->
      <g transform="translate(7.2 226.780299) scale(0.1 -0.1)">
       <use xlink:href="#LibertinusSerif-Regular-2212"/>
       <use xlink:href="#LibertinusSerif-Regular-32" transform="translate(54.999985 0)"/>
       <use xlink:href="#LibertinusSerif-Regular-30" transform="translate(101.499969 0)"/>
      </g>
     </g>
    </g>
    <g id="ytick_12">
     <g id="line2d_33">
      <g>
       <use xlink:href="#mf78aba1d69" x="29" y="200.380302" style="stroke: #000000; stroke-width: 0.8"/>
      </g>
     </g>
     <g id="text_12">
      <!-- 0 -->
      <g transform="translate(17.35 203.870146) scale(0.1 -0.1)">
       <use xlink:href="#LibertinusSerif-Regular-30"/>
      </g>
     </g>
    </g>
    <g id="ytick_13">
     <g id="line2d_34">
      <g>
       <use xlink:href="#mf78aba1d69" x="29" y="177.470149" style="stroke: #000000; stroke-width: 0.8"/>
      </g>
     </g>
     <g id="text_13">
      <!-- 20 -->
      <g transform="translate(12.7 180.959993) scale(0.1 -0.1)">
       <use xlink:href="#LibertinusSerif-Regular-32"/>
       <use xlink:href="#LibertinusSerif-Regular-30" transform="translate(46.499985 0)"/>
      </g>
     </g>
    </g>
    <g id="ytick_14">
     <g id="line2d_35">
      <g>
       <use xlink:href="#mf78aba1d69" x="29" y="154.559997" style="stroke: #000000; stroke-width: 0.8"/>
      </g>
     </g>
     <g id="text_14">
      <!-- 40 -->
      <g transform="translate(12.7 158.04984) scale(0.1 -0.1)">
       <use xlink:href="#LibertinusSerif-Regular-34"/>
       <use xlink:href="#LibertinusSerif-Regular-30" transform="translate(46.499985 0)"/>
      </g>
     </g>
    </g>
    <g id="ytick_15">
     <g id="line2d_36">
      <g>
       <use xlink:href="#mf78aba1d69" x="29" y="131.649844" style="stroke: #000000; stroke-width: 0.8"/>
      </g>
     </g>
     <g id="text_15">
      <!-- 60 -->
      <g transform="translate(12.7 135.139687) scale(0.1 -0.1)">
       <use xlink:href="#LibertinusSerif-Regular-36"/>
       <use xlink:href="#LibertinusSerif-Regular-30" transform="translate(46.499985 0)"/>
      </g>
     </g>
    </g>
   </g>
   <g id="line2d_37">
    <path d="M 33.61157 198.089287 
L 34.334954 198.003368 
L 34.696646 198.206508 
L 35.058337 198.176952 
L 36.143413 198.576619 
L 37.228488 198.878458 
L 37.951872 199.094521 
L 41.207098 200.140697 
L 43.377248 200.46619 
L 45.909091 200.419878 
L 62.546913 200.379133 
L 125.842975 200.356511 
L 125.842975 200.356511 
" clip-path="url(#pe0045d5de6)" style="fill: none; stroke: #1f77b4; stroke-width: 1.5; stroke-linecap: square"/>
   </g>
   <g id="line2d_38">
    <path d="M 33.61157 198.089287 
L 35.420029 197.985856 
L 37.59018 197.614113 
L 39.760331 196.986943 
L 41.930481 196.088802 
L 43.73894 195.105611 
L 45.547399 193.876228 
L 47.355858 192.367498 
L 49.164317 190.55349 
L 50.972776 188.432021 
L 53.504618 185.053005 
L 56.398153 181.173678 
L 57.84492 179.62154 
L 58.929995 178.805244 
L 59.653379 178.476005 
L 60.376762 178.343186 
L 61.100146 178.42058 
L 61.823529 178.714025 
L 62.546913 179.220706 
L 63.631988 180.353574 
L 64.717064 181.870072 
L 66.163831 184.324241 
L 72.312591 195.464071 
L 74.12105 198.01879 
L 75.929509 200.128423 
L 77.737968 201.834072 
L 79.546427 203.197318 
L 81.354886 204.28415 
L 83.525036 205.310249 
L 86.056879 206.238558 
L 89.312105 207.178157 
L 95.822557 208.752121 
L 106.673311 211.213863 
L 110.290228 211.774132 
L 113.183763 212.000893 
L 116.077297 211.988103 
L 118.970831 211.732528 
L 122.226057 211.200912 
L 125.842975 210.423081 
L 125.842975 210.423081 
" clip-path="url(#pe0045d5de6)" style="fill: none; stroke-dasharray: 5.55,2.4; stroke-dashoffset: 0; stroke: #1f77b4; stroke-width: 1.5"/>
   </g>
   <g id="line2d_39">
    <path d="M 33.61157 198.089287 
L 34.334954 197.53214 
L 34.696646 197.567115 
L 35.058337 197.322019 
L 35.420029 197.522264 
L 35.781721 197.494699 
L 36.143413 197.841329 
L 37.228488 197.9747 
L 37.59018 198.090848 
L 37.951872 198.075364 
L 38.313563 198.26522 
L 38.675255 198.618907 
L 39.760331 198.695855 
L 40.122022 199.062787 
L 40.483714 199.114842 
L 40.845406 199.493676 
L 41.207098 199.546531 
L 42.653865 200.168722 
L 44.100632 200.252175 
L 54.228002 200.35685 
L 94.737482 200.379012 
L 125.842975 200.336239 
L 125.842975 200.336239 
" clip-path="url(#pe0045d5de6)" style="fill: none; stroke: #ff7f0e; stroke-width: 1.5; stroke-linecap: square"/>
   </g>
   <g id="line2d_40">
    <path d="M 33.61157 198.089287 
L 37.59018 195.492319 
L 39.760331 193.76617 
L 41.568789 192.032924 
L 43.377248 189.954718 
L 45.185707 187.470519 
L 46.994166 184.546769 
L 49.164317 180.503933 
L 53.142927 172.817519 
L 54.228002 171.243765 
L 54.951386 170.495798 
L 55.674769 170.063523 
L 56.398153 170.009238 
L 57.121536 170.387476 
L 57.84492 171.238411 
L 58.568303 172.581208 
L 59.291687 174.40849 
L 60.376762 177.96853 
L 61.823529 183.830116 
L 64.717064 196.135247 
L 65.802139 199.961457 
L 66.887214 203.087016 
L 67.97229 205.495825 
L 69.057365 207.248829 
L 70.14244 208.448756 
L 71.227516 209.211312 
L 72.312591 209.646422 
L 73.397667 209.848661 
L 74.844434 209.885171 
L 77.376276 209.648264 
L 81.716578 209.208146 
L 84.610112 209.162525 
L 87.503646 209.356686 
L 90.758872 209.828263 
L 94.737482 210.667707 
L 103.056393 212.542566 
L 105.949927 212.903905 
L 108.48177 212.968066 
L 110.65192 212.803779 
L 112.822071 212.434274 
L 115.353913 211.775538 
L 118.970831 210.559409 
L 124.396208 208.718076 
L 125.842975 208.318091 
L 125.842975 208.318091 
" clip-path="url(#pe0045d5de6)" style="fill: none; stroke-dasharray: 5.55,2.4; stroke-dashoffset: 0; stroke: #ff7f0e; stroke-width: 1.5"/>
   </g>
   <g id="line2d_41">
    <path d="M 33.61157 198.089287 
L 38.675255 198.270568 
L 44.824016 198.608995 
L 57.84492 199.16439 
L 73.759358 199.611824 
L 94.37579 199.956481 
L 122.949441 200.192731 
L 125.842975 200.207732 
L 125.842975 200.207732 
" clip-path="url(#pe0045d5de6)" style="fill: none; stroke: #2ca02c; stroke-width: 1.5; stroke-linecap: square"/>
   </g>
   <g id="line2d_42">
    <path d="M 33.61157 198.089287 
L 37.228488 198.041455 
L 39.760331 197.813829 
L 41.930481 197.384705 
L 43.377248 196.90743 
L 44.824016 196.206352 
L 45.909091 195.483717 
L 46.994166 194.543034 
L 48.079242 193.330427 
L 49.164317 191.78367 
L 50.249392 189.834356 
L 51.334468 187.412899 
L 52.419543 184.457635 
L 53.504618 180.929101 
L 54.951386 175.345441 
L 56.759844 167.269385 
L 59.291687 155.850557 
L 60.376762 151.845951 
L 61.100146 149.714006 
L 61.823529 148.087187 
L 62.546913 146.995749 
L 63.270297 146.437329 
L 63.631988 146.348837 
L 64.355372 146.520795 
L 65.078755 147.100862 
L 65.802139 148.010742 
L 66.887214 149.815629 
L 69.057365 154.125014 
L 71.227516 158.288905 
L 73.035975 161.227957 
L 74.482742 163.193298 
L 75.929509 164.850407 
L 77.737968 166.561411 
L 79.546427 167.955342 
L 81.716578 169.308624 
L 83.886728 170.391638 
L 86.418571 171.37869 
L 88.950413 172.103582 
L 91.482256 172.578043 
L 94.014098 172.799313 
L 96.184249 172.78132 
L 98.3544 172.567568 
L 100.886242 172.073412 
L 103.418085 171.334867 
L 106.311619 170.251047 
L 114.992222 166.805119 
L 117.162372 166.268504 
L 119.332523 165.968856 
L 121.502674 165.919871 
L 123.672825 166.109878 
L 125.842975 166.507629 
L 125.842975 166.507629 
" clip-path="url(#pe0045d5de6)" style="fill: none; stroke-dasharray: 5.55,2.4; stroke-dashoffset: 0; stroke: #2ca02c; stroke-width: 1.5"/>
   </g>
   <g id="patch_15">
    <path d="M 29 231.098335 
L 29 130.298335 
" style="fill: none; stroke: #000000; stroke-width: 0.8; stroke-linejoin: miter; stroke-linecap: square"/>
   </g>
   <g id="patch_16">
    <path d="M 130.454545 231.098335 
L 130.454545 130.298335 
" style="fill: none; stroke: #000000; stroke-width: 0.8; stroke-linejoin: miter; stroke-linecap: square"/>
   </g>
   <g id="patch_17">
    <path d="M 29 231.098335 
L 130.454545 231.098335 
" style="fill: none; stroke: #000000; stroke-width: 0.8; stroke-linejoin: miter; stroke-linecap: square"/>
   </g>
   <g id="patch_18">
    <path d="M 29 130.298335 
L 130.454545 130.298335 
" style="fill: none; stroke: #000000; stroke-width: 0.8; stroke-linejoin: miter; stroke-linecap: square"/>
   </g>
   <g id="text_16">
    <g id="patch_19">
     <path d="M 56.109929 149.464507 
L 103.344616 149.464507 
L 103.344616 131.292163 
L 56.109929 131.292163 
z
" style="fill: #ffffff; opacity: 0.5; stroke: #000000; stroke-linejoin: miter"/>
    </g>
    <!-- Base 50k -->
    <g transform="translate(60.069929 142.929819) scale(0.11 -0.11)">
     <use xlink:href="#LibertinusSerif-Regular-42"/>
     <use xlink:href="#LibertinusSerif-Regular-61" transform="translate(58.799988 0)"/>
     <use xlink:href="#LibertinusSerif-Regular-73" transform="translate(104.499985 0)"/>
     <use xlink:href="#LibertinusSerif-Regular-65" transform="translate(143.499969 0)"/>
     <use xlink:href="#LibertinusSerif-Regular-20" transform="translate(188.199966 0)"/>
     <use xlink:href="#LibertinusSerif-Regular-35" transform="translate(213.199951 0)"/>
     <use xlink:href="#LibertinusSerif-Regular-30" transform="translate(259.699936 0)"/>
     <use xlink:href="#LibertinusSerif-Regular-6b" transform="translate(306.199921 0)"/>
    </g>
   </g>
  </g>
  <g id="axes_4">
   <g id="patch_20">
    <path d="M 150.745455 231.098335 
L 252.2 231.098335 
L 252.2 130.298335 
L 150.745455 130.298335 
z
" style="fill: #ffffff"/>
   </g>
   <g id="matplotlib.axis_7">
    <g id="xtick_10">
     <g id="line2d_43">
      <g>
       <use xlink:href="#ma4aaebdbdd" x="155.357025" y="231.098335" style="stroke: #000000; stroke-width: 0.8"/>
      </g>
     </g>
     <g id="text_17">
      <!-- 0.0 -->
      <g transform="translate(149.607025 245.078022) scale(0.1 -0.1)">
       <use xlink:href="#LibertinusSerif-Regular-30"/>
       <use xlink:href="#LibertinusSerif-Regular-2e" transform="translate(46.499985 0)"/>
       <use xlink:href="#LibertinusSerif-Regular-30" transform="translate(68.499969 0)"/>
      </g>
     </g>
    </g>
    <g id="xtick_11">
     <g id="line2d_44">
      <g>
       <use xlink:href="#ma4aaebdbdd" x="201.472727" y="231.098335" style="stroke: #000000; stroke-width: 0.8"/>
      </g>
     </g>
     <g id="text_18">
      <!-- 0.5 -->
      <g transform="translate(195.722727 245.078022) scale(0.1 -0.1)">
       <use xlink:href="#LibertinusSerif-Regular-30"/>
       <use xlink:href="#LibertinusSerif-Regular-2e" transform="translate(46.499985 0)"/>
       <use xlink:href="#LibertinusSerif-Regular-35" transform="translate(68.499969 0)"/>
      </g>
     </g>
    </g>
    <g id="xtick_12">
     <g id="line2d_45">
      <g>
       <use xlink:href="#ma4aaebdbdd" x="247.58843" y="231.098335" style="stroke: #000000; stroke-width: 0.8"/>
      </g>
     </g>
     <g id="text_19">
      <!-- 1.0 -->
      <g transform="translate(241.83843 245.078022) scale(0.1 -0.1)">
       <use xlink:href="#LibertinusSerif-Regular-31"/>
       <use xlink:href="#LibertinusSerif-Regular-2e" transform="translate(46.499985 0)"/>
       <use xlink:href="#LibertinusSerif-Regular-30" transform="translate(68.499969 0)"/>
      </g>
     </g>
    </g>
   </g>
   <g id="matplotlib.axis_8">
    <g id="ytick_16">
     <g id="line2d_46">
      <g>
       <use xlink:href="#mf78aba1d69" x="150.745455" y="223.290455" style="stroke: #000000; stroke-width: 0.8"/>
      </g>
     </g>
    </g>
    <g id="ytick_17">
     <g id="line2d_47">
      <g>
       <use xlink:href="#mf78aba1d69" x="150.745455" y="200.380302" style="stroke: #000000; stroke-width: 0.8"/>
      </g>
     </g>
    </g>
    <g id="ytick_18">
     <g id="line2d_48">
      <g>
       <use xlink:href="#mf78aba1d69" x="150.745455" y="177.470149" style="stroke: #000000; stroke-width: 0.8"/>
      </g>
     </g>
    </g>
    <g id="ytick_19">
     <g id="line2d_49">
      <g>
       <use xlink:href="#mf78aba1d69" x="150.745455" y="154.559997" style="stroke: #000000; stroke-width: 0.8"/>
      </g>
     </g>
    </g>
    <g id="ytick_20">
     <g id="line2d_50">
      <g>
       <use xlink:href="#mf78aba1d69" x="150.745455" y="131.649844" style="stroke: #000000; stroke-width: 0.8"/>
      </g>
     </g>
    </g>
   </g>
   <g id="line2d_51">
    <path d="M 155.357025 198.089287 
L 157.165484 197.985673 
L 159.335634 197.614209 
L 161.505785 196.987089 
L 163.675936 196.088802 
L 165.484395 195.105806 
L 167.292854 193.87676 
L 169.101313 192.367752 
L 170.909772 190.553158 
L 172.71823 188.431297 
L 175.250073 185.052665 
L 178.143607 181.17183 
L 179.590374 179.618822 
L 180.67545 178.8018 
L 181.398833 178.472119 
L 182.122217 178.338952 
L 182.8456 178.416094 
L 183.568984 178.709155 
L 184.292368 179.214872 
L 185.377443 180.345739 
L 186.462518 181.861813 
L 187.909285 184.31888 
L 194.058046 195.459621 
L 195.866505 198.016011 
L 197.674964 200.129502 
L 199.483422 201.838343 
L 201.291881 203.203656 
L 203.10034 204.290787 
L 205.270491 205.316997 
L 207.802333 206.24529 
L 211.05756 207.185816 
L 217.20632 208.672668 
L 228.418765 211.204258 
L 232.035683 211.764554 
L 234.929217 211.991544 
L 237.822752 211.978688 
L 240.716286 211.730093 
L 243.971512 211.201598 
L 247.58843 210.429622 
L 247.58843 210.429622 
" clip-path="url(#pd8404fefaf)" style="fill: none; stroke: #1f77b4; stroke-width: 1.5; stroke-linecap: square"/>
   </g>
   <g id="line2d_52">
    <path d="M 155.357025 198.089287 
L 157.165484 197.985856 
L 159.335634 197.614113 
L 161.505785 196.986943 
L 163.675936 196.088802 
L 165.484395 195.105611 
L 167.292854 193.876228 
L 169.101313 192.367498 
L 170.909772 190.55349 
L 172.71823 188.432021 
L 175.250073 185.053005 
L 178.143607 181.173678 
L 179.590374 179.62154 
L 180.67545 178.805244 
L 181.398833 178.476005 
L 182.122217 178.343186 
L 182.8456 178.42058 
L 183.568984 178.714025 
L 184.292368 179.220706 
L 185.377443 180.353574 
L 186.462518 181.870072 
L 187.909285 184.324241 
L 194.058046 195.464071 
L 195.866505 198.01879 
L 197.674964 200.128423 
L 199.483422 201.834072 
L 201.291881 203.197318 
L 203.10034 204.28415 
L 205.270491 205.310249 
L 207.802333 206.238558 
L 211.05756 207.178157 
L 217.568012 208.752121 
L 228.418765 211.213863 
L 232.035683 211.774132 
L 234.929217 212.000893 
L 237.822752 211.988103 
L 240.716286 211.732528 
L 243.971512 211.200912 
L 247.58843 210.423081 
L 247.58843 210.423081 
" clip-path="url(#pd8404fefaf)" style="fill: none; stroke-dasharray: 5.55,2.4; stroke-dashoffset: 0; stroke: #1f77b4; stroke-width: 1.5"/>
   </g>
   <g id="line2d_53">
    <path d="M 155.357025 198.089287 
L 158.973943 195.750794 
L 161.144093 194.077257 
L 162.952552 192.404495 
L 164.761011 190.400725 
L 166.56947 188.001949 
L 168.377929 185.166458 
L 170.186388 181.905137 
L 175.250073 172.239694 
L 176.335148 170.830045 
L 177.058532 170.231501 
L 177.781915 169.980361 
L 178.505299 170.135726 
L 179.228683 170.745464 
L 179.952066 171.83965 
L 180.67545 173.42577 
L 181.398833 175.482745 
L 182.483909 179.330072 
L 184.292368 186.994283 
L 186.462518 196.128534 
L 187.547594 199.958966 
L 188.632669 203.089076 
L 189.717744 205.501504 
L 190.80282 207.256153 
L 191.887895 208.457041 
L 192.97297 209.220056 
L 194.058046 209.656155 
L 195.143121 209.858918 
L 196.589888 209.89577 
L 198.760039 209.702043 
L 203.462032 209.217655 
L 206.355566 209.172692 
L 209.249101 209.365172 
L 212.504327 209.833763 
L 216.482936 210.668116 
L 224.801847 212.530417 
L 227.695382 212.889741 
L 230.227224 212.954721 
L 232.397375 212.794232 
L 234.567526 212.429125 
L 237.099368 211.776974 
L 240.716286 210.57069 
L 246.141663 208.739781 
L 247.58843 208.340068 
L 247.58843 208.340068 
" clip-path="url(#pd8404fefaf)" style="fill: none; stroke: #ff7f0e; stroke-width: 1.5; stroke-linecap: square"/>
   </g>
   <g id="line2d_54">
    <path d="M 155.357025 198.089287 
L 159.335634 195.492319 
L 161.505785 193.76617 
L 163.314244 192.032924 
L 165.122703 189.954718 
L 166.931162 187.470519 
L 168.739621 184.546769 
L 170.909772 180.503933 
L 174.888381 172.817519 
L 175.973456 171.243765 
L 176.69684 170.495798 
L 177.420224 170.063523 
L 178.143607 170.009238 
L 178.866991 170.387476 
L 179.590374 171.238411 
L 180.313758 172.581208 
L 181.037141 174.40849 
L 182.122217 177.96853 
L 183.568984 183.830116 
L 186.462518 196.135247 
L 187.547594 199.961457 
L 188.632669 203.087016 
L 189.717744 205.495825 
L 190.80282 207.248829 
L 191.887895 208.448756 
L 192.97297 209.211312 
L 194.058046 209.646422 
L 195.143121 209.848661 
L 196.589888 209.885171 
L 199.121731 209.648264 
L 203.462032 209.208146 
L 206.355566 209.162525 
L 209.249101 209.356686 
L 212.504327 209.828263 
L 216.482936 210.667707 
L 224.801847 212.542566 
L 227.695382 212.903905 
L 230.227224 212.968066 
L 232.397375 212.803779 
L 234.567526 212.434274 
L 237.099368 211.775538 
L 240.716286 210.559409 
L 246.141663 208.718076 
L 247.58843 208.318091 
L 247.58843 208.318091 
" clip-path="url(#pd8404fefaf)" style="fill: none; stroke-dasharray: 5.55,2.4; stroke-dashoffset: 0; stroke: #ff7f0e; stroke-width: 1.5"/>
   </g>
   <g id="line2d_55">
    <path d="M 155.357025 198.089287 
L 158.973943 198.04239 
L 161.505785 197.814946 
L 163.675936 197.386142 
L 165.122703 196.909279 
L 166.56947 196.208761 
L 167.654545 195.486433 
L 168.739621 194.545876 
L 169.824696 193.333045 
L 170.909772 191.785751 
L 171.994847 189.836033 
L 173.079922 187.414995 
L 174.164998 184.460934 
L 175.250073 180.933599 
L 176.69684 175.349153 
L 178.505299 167.269464 
L 181.037141 155.849951 
L 182.122217 151.843104 
L 182.8456 149.708902 
L 183.568984 148.079635 
L 184.292368 146.985791 
L 185.015751 146.424984 
L 185.377443 146.335168 
L 186.100826 146.506231 
L 186.82421 147.087266 
L 187.547594 147.999468 
L 188.632669 149.808048 
L 190.80282 154.116964 
L 192.97297 158.275258 
L 194.781429 161.211993 
L 196.228196 163.178733 
L 197.674964 164.838693 
L 199.483422 166.553008 
L 201.291881 167.947455 
L 203.462032 169.296913 
L 205.632183 170.374713 
L 208.164025 171.357036 
L 210.695868 172.079957 
L 213.22771 172.555114 
L 215.759553 172.776482 
L 217.929703 172.75826 
L 220.461546 172.492906 
L 222.631697 172.05693 
L 225.163539 171.319961 
L 228.057073 170.247356 
L 236.737676 166.822568 
L 238.907827 166.28727 
L 241.077978 165.987128 
L 243.248128 165.933024 
L 245.418279 166.120295 
L 247.58843 166.513943 
L 247.58843 166.513943 
" clip-path="url(#pd8404fefaf)" style="fill: none; stroke: #2ca02c; stroke-width: 1.5; stroke-linecap: square"/>
   </g>
   <g id="line2d_56">
    <path d="M 155.357025 198.089287 
L 158.973943 198.041455 
L 161.505785 197.813829 
L 163.675936 197.384705 
L 165.122703 196.90743 
L 166.56947 196.206352 
L 167.654545 195.483717 
L 168.739621 194.543034 
L 169.824696 193.330427 
L 170.909772 191.78367 
L 171.994847 189.834356 
L 173.079922 187.412899 
L 174.164998 184.457635 
L 175.250073 180.929101 
L 176.69684 175.345441 
L 178.505299 167.269385 
L 181.037141 155.850557 
L 182.122217 151.845951 
L 182.8456 149.714006 
L 183.568984 148.087187 
L 184.292368 146.995749 
L 185.015751 146.437329 
L 185.377443 146.348837 
L 186.100826 146.520795 
L 186.82421 147.100862 
L 187.547594 148.010742 
L 188.632669 149.815629 
L 190.80282 154.125014 
L 192.97297 158.288905 
L 194.781429 161.227957 
L 196.228196 163.193298 
L 197.674964 164.850407 
L 199.483422 166.561411 
L 201.291881 167.955342 
L 203.462032 169.308624 
L 205.632183 170.391638 
L 208.164025 171.37869 
L 210.695868 172.103582 
L 213.22771 172.578043 
L 215.759553 172.799313 
L 217.929703 172.78132 
L 220.099854 172.567568 
L 222.631697 172.073412 
L 225.163539 171.334867 
L 228.057073 170.251047 
L 236.737676 166.805119 
L 238.907827 166.268504 
L 241.077978 165.968856 
L 243.248128 165.919871 
L 245.418279 166.109878 
L 247.58843 166.507629 
L 247.58843 166.507629 
" clip-path="url(#pd8404fefaf)" style="fill: none; stroke-dasharray: 5.55,2.4; stroke-dashoffset: 0; stroke: #2ca02c; stroke-width: 1.5"/>
   </g>
   <g id="patch_21">
    <path d="M 150.745455 231.098335 
L 150.745455 130.298335 
" style="fill: none; stroke: #000000; stroke-width: 0.8; stroke-linejoin: miter; stroke-linecap: square"/>
   </g>
   <g id="patch_22">
    <path d="M 252.2 231.098335 
L 252.2 130.298335 
" style="fill: none; stroke: #000000; stroke-width: 0.8; stroke-linejoin: miter; stroke-linecap: square"/>
   </g>
   <g id="patch_23">
    <path d="M 150.745455 231.098335 
L 252.2 231.098335 
" style="fill: none; stroke: #000000; stroke-width: 0.8; stroke-linejoin: miter; stroke-linecap: square"/>
   </g>
   <g id="patch_24">
    <path d="M 150.745455 130.298335 
L 252.2 130.298335 
" style="fill: none; stroke: #000000; stroke-width: 0.8; stroke-linejoin: miter; stroke-linecap: square"/>
   </g>
   <g id="text_20">
    <g id="patch_25">
     <path d="M 173.109055 149.464507 
L 229.836399 149.464507 
L 229.836399 131.292163 
L 173.109055 131.292163 
z
" style="fill: #ffffff; opacity: 0.5; stroke: #000000; stroke-linejoin: miter"/>
    </g>
    <!-- Causal 50k -->
    <g transform="translate(177.069055 142.929819) scale(0.11 -0.11)">
     <use xlink:href="#LibertinusSerif-Regular-43"/>
     <use xlink:href="#LibertinusSerif-Regular-61" transform="translate(64.599991 0)"/>
     <use xlink:href="#LibertinusSerif-Regular-75" transform="translate(110.299988 0)"/>
     <use xlink:href="#LibertinusSerif-Regular-73" transform="translate(163.399979 0)"/>
     <use xlink:href="#LibertinusSerif-Regular-61" transform="translate(202.399963 0)"/>
     <use xlink:href="#LibertinusSerif-Regular-6c" transform="translate(248.09996 0)"/>
     <use xlink:href="#LibertinusSerif-Regular-20" transform="translate(274.499954 0)"/>
     <use xlink:href="#LibertinusSerif-Regular-35" transform="translate(299.499939 0)"/>
     <use xlink:href="#LibertinusSerif-Regular-30" transform="translate(345.999924 0)"/>
     <use xlink:href="#LibertinusSerif-Regular-6b" transform="translate(392.499908 0)"/>
    </g>
   </g>
  </g>
 </g>
 <defs>
  <clipPath id="p80b6ab4f78">
   <rect x="29" y="9.338335" width="101.454545" height="100.8"/>
  </clipPath>
  <clipPath id="p6c281f1d17">
   <rect x="150.745455" y="9.338335" width="101.454545" height="100.8"/>
  </clipPath>
  <clipPath id="pe0045d5de6">
   <rect x="29" y="130.298335" width="101.454545" height="100.8"/>
  </clipPath>
  <clipPath id="pd8404fefaf">
   <rect x="150.745455" y="130.298335" width="101.454545" height="100.8"/>
  </clipPath>
 </defs>
</svg>
