<?xml version="1.0" encoding="utf-8" standalone="no"?>
<!DOCTYPE svg PUBLIC "-//W3C//DTD SVG 1.1//EN"
  "http://www.w3.org/Graphics/SVG/1.1/DTD/svg11.dtd">
<svg xmlns:xlink="http://www.w3.org/1999/xlink" width="259.4pt" height="252.480312pt" viewBox="0 0 259.4 252.480312" xmlns="http://www.w3.org/2000/svg" version="1.1">
 <metadata>
  <rdf:RDF xmlns:dc="http://purl.org/dc/elements/1.1/" xmlns:cc="http://creativecommons.org/ns#" xmlns:rdf="http://www.w3.org/1999/02/22-rdf-syntax-ns#">
   <cc:Work>
    <dc:type rdf:resource="http://purl.org/dc/dcmitype/StillImage"/>
    <dc:date>2025-05-27T22:46:13.470193</dc:date>
    <dc:format>image/svg+xml</dc:format>
    <dc:creator>
     <cc:Agent>
      <dc:title>Matplotlib v3.10.3, https://matplotlib.org/</dc:title>
     </cc:Agent>
    </dc:creator>
   </cc:Work>
  </rdf:RDF>
 </metadata>
 <defs>
  <style type="text/css">*{stroke-linejoin: round; stroke-linecap: butt}</style>
 </defs>
 <g id="figure_1">
  <g id="patch_1">
   <path d="M 0 252.480312 
L 259.4 252.480312 
L 259.4 0 
L 0 0 
z
" style="fill: #ffffff"/>
  </g>
  <g id="axes_1">
   <g id="patch_2">
    <path d="M 29 108 
L 130.454545 108 
L 130.454545 7.2 
L 29 7.2 
z
" style="fill: #ffffff"/>
   </g>
   <g id="matplotlib.axis_1">
    <g id="xtick_1">
     <g id="line2d_1">
      <defs>
       <path id="m1b40315066" d="M 0 0 
L 0 3.5 
" style="stroke: #000000; stroke-width: 0.8"/>
      </defs>
      <g>
       <use xlink:href="#m1b40315066" x="33.61157" y="108" style="stroke: #000000; stroke-width: 0.8"/>
      </g>
     </g>
    </g>
    <g id="xtick_2">
     <g id="line2d_2">
      <g>
       <use xlink:href="#m1b40315066" x="70.504132" y="108" style="stroke: #000000; stroke-width: 0.8"/>
      </g>
     </g>
    </g>
    <g id="xtick_3">
     <g id="line2d_3">
      <g>
       <use xlink:href="#m1b40315066" x="107.396694" y="108" style="stroke: #000000; stroke-width: 0.8"/>
      </g>
     </g>
    </g>
   </g>
   <g id="matplotlib.axis_2">
    <g id="ytick_1">
     <g id="line2d_4">
      <defs>
       <path id="mcb0ca6d81d" d="M 0 0 
L -3.5 0 
" style="stroke: #000000; stroke-width: 0.8"/>
      </defs>
      <g>
       <use xlink:href="#mcb0ca6d81d" x="29" y="102.360632" style="stroke: #000000; stroke-width: 0.8"/>
      </g>
     </g>
     <g id="text_1">
      <!-- −25 -->
      <g transform="translate(7.2 105.850476) scale(0.1 -0.1)">
       <defs>
        <path id="LibertinusSerif-Regular-2212" d="M 2963 1446 
C 3046 1446 3136 1594 3136 1658 
C 3136 1709 3110 1766 3046 1766 
L 544 1766 
C 467 1766 384 1645 384 1549 
C 384 1498 422 1446 480 1446 
L 2963 1446 
z
" transform="scale(0.015625)"/>
        <path id="LibertinusSerif-Regular-32" d="M 390 2995 
C 390 2861 512 2746 646 2746 
C 755 2746 947 2854 947 3002 
C 947 3053 934 3091 922 3136 
C 909 3181 870 3238 870 3290 
C 870 3450 1037 3680 1504 3680 
C 1734 3680 2061 3520 2061 2906 
C 2061 2496 1914 2163 1536 1779 
L 1062 1312 
C 435 672 333 365 333 -13 
C 333 -13 659 0 864 0 
L 1984 0 
C 2189 0 2483 -13 2483 -13 
C 2566 326 2630 806 2637 998 
C 2598 1030 2515 1043 2451 1030 
C 2342 576 2234 416 2003 416 
L 864 416 
C 864 723 1306 1158 1338 1190 
L 1984 1811 
C 2349 2163 2624 2445 2624 2931 
C 2624 3622 2061 3904 1542 3904 
C 832 3904 390 3379 390 2995 
z
" transform="scale(0.015625)"/>
        <path id="LibertinusSerif-Regular-35" d="M 2042 1210 
C 2042 602 1722 154 1338 154 
C 1094 154 1011 314 915 442 
C 832 550 723 646 589 646 
C 467 646 346 538 346 410 
C 346 147 890 -70 1254 -70 
C 2048 -70 2611 518 2611 1325 
C 2611 1946 2182 2502 1466 2502 
C 1190 2502 954 2445 838 2400 
L 966 3469 
C 1203 3443 1408 3411 1715 3411 
C 1907 3411 2125 3424 2387 3450 
L 2490 3885 
L 2445 3910 
C 2080 3872 1734 3840 1395 3840 
C 1158 3840 928 3853 704 3872 
L 486 2029 
C 826 2157 1069 2182 1299 2182 
C 1715 2182 2042 1907 2042 1210 
z
" transform="scale(0.015625)"/>
       </defs>
       <use xlink:href="#LibertinusSerif-Regular-2212"/>
       <use xlink:href="#LibertinusSerif-Regular-32" transform="translate(54.999985 0)"/>
       <use xlink:href="#LibertinusSerif-Regular-35" transform="translate(101.499969 0)"/>
      </g>
     </g>
    </g>
    <g id="ytick_2">
     <g id="line2d_5">
      <g>
       <use xlink:href="#mcb0ca6d81d" x="29" y="80.549606" style="stroke: #000000; stroke-width: 0.8"/>
      </g>
     </g>
     <g id="text_2">
      <!-- 0 -->
      <g transform="translate(17.35 84.039449) scale(0.1 -0.1)">
       <defs>
        <path id="LibertinusSerif-Regular-30" d="M 1485 3680 
C 1594 3680 1696 3642 1773 3571 
C 1971 3405 2144 2918 2144 2061 
C 2144 1472 2125 1069 2035 742 
C 1894 218 1581 160 1466 160 
C 870 160 806 1254 806 1811 
C 806 3386 1197 3680 1485 3680 
z
M 1459 -64 
C 1952 -64 2701 435 2701 1939 
C 2701 2573 2547 3117 2266 3488 
C 2093 3706 1830 3904 1485 3904 
C 851 3904 250 3149 250 1882 
C 250 1197 454 550 806 205 
C 992 19 1210 -64 1459 -64 
z
" transform="scale(0.015625)"/>
       </defs>
       <use xlink:href="#LibertinusSerif-Regular-30"/>
      </g>
     </g>
    </g>
    <g id="ytick_3">
     <g id="line2d_6">
      <g>
       <use xlink:href="#mcb0ca6d81d" x="29" y="58.738579" style="stroke: #000000; stroke-width: 0.8"/>
      </g>
     </g>
     <g id="text_3">
      <!-- 25 -->
      <g transform="translate(12.7 62.228423) scale(0.1 -0.1)">
       <use xlink:href="#LibertinusSerif-Regular-32"/>
       <use xlink:href="#LibertinusSerif-Regular-35" transform="translate(46.499985 0)"/>
      </g>
     </g>
    </g>
    <g id="ytick_4">
     <g id="line2d_7">
      <g>
       <use xlink:href="#mcb0ca6d81d" x="29" y="36.927553" style="stroke: #000000; stroke-width: 0.8"/>
      </g>
     </g>
     <g id="text_4">
      <!-- 50 -->
      <g transform="translate(12.7 40.417396) scale(0.1 -0.1)">
       <use xlink:href="#LibertinusSerif-Regular-35"/>
       <use xlink:href="#LibertinusSerif-Regular-30" transform="translate(46.499985 0)"/>
      </g>
     </g>
    </g>
    <g id="ytick_5">
     <g id="line2d_8">
      <g>
       <use xlink:href="#mcb0ca6d81d" x="29" y="15.116526" style="stroke: #000000; stroke-width: 0.8"/>
      </g>
     </g>
     <g id="text_5">
      <!-- 75 -->
      <g transform="translate(12.7 18.60637) scale(0.1 -0.1)">
       <defs>
        <path id="LibertinusSerif-Regular-37" d="M 1088 3424 
L 2234 3424 
C 1734 2182 1229 934 794 -38 
L 845 -83 
L 1280 -64 
C 1645 1024 1997 2086 2714 3834 
L 2611 3910 
C 2502 3878 2362 3840 2118 3840 
L 800 3840 
C 582 3840 595 3904 480 3930 
C 461 3930 454 3930 454 3910 
C 448 3603 378 3219 326 2886 
C 390 2861 461 2854 531 2867 
C 672 3379 883 3424 1088 3424 
z
" transform="scale(0.015625)"/>
       </defs>
       <use xlink:href="#LibertinusSerif-Regular-37"/>
       <use xlink:href="#LibertinusSerif-Regular-35" transform="translate(46.499985 0)"/>
      </g>
     </g>
    </g>
   </g>
   <g id="line2d_9">
    <path d="M 33.61157 79.677164 
L 39.760331 79.562582 
L 46.270783 79.212827 
L 52.057851 78.689079 
L 57.121536 78.023453 
L 61.823529 77.180114 
L 65.802139 76.251981 
L 69.419057 75.201215 
L 73.035975 73.923385 
L 76.652893 72.400099 
L 80.26981 70.640295 
L 85.695187 67.712169 
L 89.673797 65.64348 
L 92.205639 64.559928 
L 94.37579 63.88565 
L 96.184249 63.558639 
L 97.992708 63.480126 
L 99.801167 63.669125 
L 101.609626 64.127271 
L 103.418085 64.840167 
L 105.226544 65.776133 
L 107.396694 67.135159 
L 110.65192 69.480559 
L 118.247448 75.093109 
L 121.502674 77.173697 
L 124.396208 78.782 
L 125.842975 79.499541 
L 125.842975 79.499541 
" clip-path="url(#p07e29380ce)" style="fill: none; stroke: #1f77b4; stroke-width: 1.5; stroke-linecap: square"/>
   </g>
   <g id="line2d_10">
    <path d="M 33.61157 79.677164 
L 39.760331 79.562509 
L 46.270783 79.212539 
L 52.057851 78.688595 
L 57.121536 78.022785 
L 61.823529 77.179248 
L 65.802139 76.250973 
L 69.419057 75.200068 
L 73.035975 73.921934 
L 76.652893 72.398285 
L 80.26981 70.63782 
L 85.695187 67.709181 
L 89.673797 65.641213 
L 92.205639 64.558572 
L 94.37579 63.885274 
L 96.184249 63.559325 
L 97.992708 63.482119 
L 99.801167 63.672387 
L 101.609626 64.13217 
L 103.418085 64.846135 
L 105.226544 65.783518 
L 107.396694 67.143502 
L 110.65192 69.489515 
L 118.247448 75.10059 
L 121.502674 77.18014 
L 124.396208 78.787172 
L 125.842975 79.504182 
L 125.842975 79.504182 
" clip-path="url(#p07e29380ce)" style="fill: none; stroke-dasharray: 5.55,2.4; stroke-dashoffset: 0; stroke: #1f77b4; stroke-width: 1.5"/>
   </g>
   <g id="line2d_11">
    <path d="M 33.61157 79.677164 
L 43.377248 78.371802 
L 48.440933 77.466749 
L 52.781235 76.464907 
L 56.398153 75.415841 
L 59.653379 74.264398 
L 62.908605 72.879586 
L 65.802139 71.425547 
L 68.695673 69.743158 
L 71.950899 67.572722 
L 75.567817 64.859779 
L 82.801653 59.282415 
L 84.610112 58.169374 
L 86.056879 57.475136 
L 87.503646 57.012075 
L 88.588721 56.848389 
L 89.673797 56.865564 
L 90.758872 57.082073 
L 91.843947 57.512168 
L 92.929023 58.165023 
L 94.014098 59.043426 
L 95.460865 60.555871 
L 96.907632 62.425841 
L 98.716091 65.175458 
L 101.247934 69.504744 
L 105.226544 76.332933 
L 107.396694 79.564837 
L 109.205153 81.841955 
L 111.013612 83.710111 
L 112.460379 84.917053 
L 113.907146 85.887594 
L 115.715605 86.806655 
L 117.524064 87.450696 
L 119.332523 87.874213 
L 121.502674 88.162925 
L 124.396208 88.292103 
L 125.842975 88.284955 
L 125.842975 88.284955 
" clip-path="url(#p07e29380ce)" style="fill: none; stroke: #ff7f0e; stroke-width: 1.5; stroke-linecap: square"/>
   </g>
   <g id="line2d_12">
    <path d="M 33.61157 79.677164 
L 43.377248 78.371412 
L 48.440933 77.466012 
L 52.781235 76.463809 
L 56.398153 75.41441 
L 59.653379 74.262595 
L 62.908605 72.8775 
L 65.802139 71.423244 
L 68.695673 69.740498 
L 71.950899 67.569792 
L 75.567817 64.856369 
L 82.801653 59.278993 
L 84.610112 58.166523 
L 86.056879 57.473167 
L 87.503646 57.011277 
L 88.588721 56.848605 
L 89.673797 56.866847 
L 90.758872 57.084397 
L 91.843947 57.515721 
L 92.929023 58.169977 
L 94.014098 59.049776 
L 95.460865 60.56409 
L 96.907632 62.436 
L 98.716091 65.187982 
L 101.247934 69.519679 
L 105.226544 76.348139 
L 107.396694 79.578545 
L 109.205153 81.853834 
L 111.013612 83.719897 
L 112.460379 84.925133 
L 113.907146 85.894103 
L 115.715605 86.811536 
L 117.524064 87.4541 
L 119.332523 87.876833 
L 121.502674 88.16441 
L 124.396208 88.292864 
L 125.842975 88.285712 
L 125.842975 88.285712 
" clip-path="url(#p07e29380ce)" style="fill: none; stroke-dasharray: 5.55,2.4; stroke-dashoffset: 0; stroke: #ff7f0e; stroke-width: 1.5"/>
   </g>
   <g id="line2d_13">
    <path d="M 33.61157 79.677164 
L 47.355858 79.676538 
L 54.589694 79.481021 
L 59.653379 79.13634 
L 63.631988 78.639968 
L 66.887214 77.99619 
L 69.419057 77.282576 
L 71.589208 76.47336 
L 73.759358 75.433669 
L 75.567817 74.353392 
L 77.376276 73.043665 
L 79.184735 71.47098 
L 80.993194 69.605057 
L 82.801653 67.422621 
L 84.610112 64.914157 
L 86.780263 61.492301 
L 89.312105 57.037442 
L 95.460865 45.958418 
L 97.269324 43.299593 
L 98.716091 41.564985 
L 100.162859 40.237879 
L 101.247934 39.526485 
L 102.333009 39.061376 
L 103.418085 38.834959 
L 104.50316 38.831561 
L 105.588235 39.032066 
L 107.035002 39.570848 
L 108.48177 40.35805 
L 110.290228 41.591191 
L 113.545455 44.149889 
L 117.885756 47.525776 
L 120.77929 49.486785 
L 123.672825 51.157853 
L 125.842975 52.229001 
L 125.842975 52.229001 
" clip-path="url(#p07e29380ce)" style="fill: none; stroke: #2ca02c; stroke-width: 1.5; stroke-linecap: square"/>
   </g>
   <g id="line2d_14">
    <path d="M 33.61157 79.677164 
L 47.355858 79.676558 
L 54.589694 79.480913 
L 59.653379 79.136174 
L 63.631988 78.639513 
L 66.887214 77.995597 
L 69.419057 77.281639 
L 71.589208 76.472051 
L 73.759358 75.431806 
L 75.567817 74.350845 
L 77.376276 73.040114 
L 79.184735 71.466281 
L 80.993194 69.598858 
L 82.801653 67.414843 
L 84.610112 64.904966 
L 86.780263 61.48188 
L 89.312105 57.02669 
L 95.460865 45.950803 
L 97.269324 43.29395 
L 98.716091 41.561402 
L 100.162859 40.23627 
L 101.247934 39.526925 
L 102.333009 39.063493 
L 103.418085 38.838641 
L 104.50316 38.837535 
L 105.588235 39.039248 
L 107.035002 39.579523 
L 108.48177 40.36863 
L 110.290228 41.602141 
L 113.545455 44.16144 
L 117.885756 47.535542 
L 120.77929 49.495194 
L 123.672825 51.164786 
L 125.842975 52.234758 
L 125.842975 52.234758 
" clip-path="url(#p07e29380ce)" style="fill: none; stroke-dasharray: 5.55,2.4; stroke-dashoffset: 0; stroke: #2ca02c; stroke-width: 1.5"/>
   </g>
   <g id="patch_3">
    <path d="M 29 108 
L 29 7.2 
" style="fill: none; stroke: #000000; stroke-width: 0.8; stroke-linejoin: miter; stroke-linecap: square"/>
   </g>
   <g id="patch_4">
    <path d="M 130.454545 108 
L 130.454545 7.2 
" style="fill: none; stroke: #000000; stroke-width: 0.8; stroke-linejoin: miter; stroke-linecap: square"/>
   </g>
   <g id="patch_5">
    <path d="M 29 108 
L 130.454545 108 
" style="fill: none; stroke: #000000; stroke-width: 0.8; stroke-linejoin: miter; stroke-linecap: square"/>
   </g>
   <g id="patch_6">
    <path d="M 29 7.2 
L 130.454545 7.2 
" style="fill: none; stroke: #000000; stroke-width: 0.8; stroke-linejoin: miter; stroke-linecap: square"/>
   </g>
   <g id="text_6">
    <g id="patch_7">
     <path d="M 65.416101 26.366172 
L 94.038445 26.366172 
L 94.038445 8.193828 
L 65.416101 8.193828 
z
" style="fill: #ffffff; opacity: 0.5; stroke: #000000; stroke-linejoin: miter"/>
    </g>
    <!-- Base -->
    <g transform="translate(69.376101 19.831484) scale(0.11 -0.11)">
     <defs>
      <path id="LibertinusSerif-Regular-42" d="M 1222 3520 
C 1222 3859 1222 3923 1779 3923 
C 2138 3923 2605 3731 2605 3078 
C 2605 2534 2227 2342 1696 2342 
L 1222 2342 
L 1222 3520 
z
M 1222 2125 
L 1664 2125 
C 2541 2125 2906 1632 2906 1056 
C 2906 589 2726 198 1754 198 
C 1306 198 1222 365 1222 755 
L 1222 2125 
z
M 947 4128 
C 717 4128 371 4134 122 4141 
C 83 4102 83 3968 122 3930 
C 570 3910 678 3878 678 3347 
L 678 781 
C 678 250 570 218 122 198 
C 83 160 83 26 122 -13 
C 371 -6 710 0 954 0 
C 1178 0 1350 -13 1888 -13 
C 3162 -13 3501 627 3501 1178 
C 3501 1792 3072 2144 2515 2304 
L 2515 2317 
C 2835 2477 3123 2803 3123 3155 
C 3123 3584 2938 4141 1747 4141 
C 1523 4141 1178 4128 947 4128 
z
" transform="scale(0.015625)"/>
      <path id="LibertinusSerif-Regular-61" d="M 1875 1491 
L 1875 646 
C 1875 563 1837 518 1786 480 
C 1619 346 1402 198 1222 198 
C 902 198 762 454 762 653 
C 762 941 896 1235 1370 1357 
L 1875 1491 
z
M 1875 307 
C 1914 109 1978 -64 2304 -64 
C 2547 -64 2778 45 2912 173 
C 2899 250 2874 301 2803 346 
C 2752 301 2643 243 2566 243 
C 2381 243 2374 493 2374 787 
L 2374 1728 
C 2374 2637 1875 2810 1408 2810 
C 883 2810 352 2464 352 2099 
C 352 1946 429 1869 576 1869 
C 762 1869 877 2003 877 2086 
C 877 2131 870 2176 858 2202 
C 851 2221 845 2259 845 2330 
C 845 2528 1114 2598 1357 2598 
C 1574 2598 1875 2490 1875 1766 
C 1875 1722 1856 1696 1837 1690 
L 1286 1555 
C 672 1402 230 1062 230 627 
C 230 102 589 -64 1037 -64 
C 1254 -64 1453 -13 1734 205 
L 1862 307 
L 1875 307 
z
" transform="scale(0.015625)"/>
      <path id="LibertinusSerif-Regular-73" d="M 307 883 
C 333 570 352 269 352 0 
C 416 13 480 19 512 19 
C 557 19 595 19 640 6 
C 813 -38 986 -64 1222 -64 
C 1581 -64 2240 109 2240 742 
C 2240 1178 1926 1434 1491 1594 
C 1101 1734 851 1837 851 2189 
C 851 2451 1082 2598 1299 2598 
C 1440 2598 1811 2547 1894 2003 
C 1933 1965 2061 1971 2099 2010 
C 2118 2240 2131 2477 2138 2688 
C 1939 2720 1632 2810 1299 2810 
C 826 2810 397 2502 397 2093 
C 397 1626 608 1427 1101 1222 
C 1632 1005 1754 870 1754 595 
C 1754 282 1446 147 1210 147 
C 960 147 819 230 755 301 
C 614 448 544 730 506 890 
C 467 928 346 922 307 883 
z
" transform="scale(0.015625)"/>
      <path id="LibertinusSerif-Regular-65" d="M 794 1805 
C 915 2528 1363 2586 1517 2586 
C 1760 2586 2048 2451 2048 1914 
C 2048 1856 2022 1824 1952 1824 
L 794 1805 
z
M 2470 595 
C 2234 352 2048 250 1677 250 
C 1446 250 1178 384 979 710 
C 851 922 774 1216 774 1587 
L 2477 1574 
C 2554 1574 2598 1613 2598 1683 
C 2598 2221 2406 2797 1517 2797 
C 960 2797 237 2266 237 1293 
C 237 934 326 589 538 346 
C 755 90 1056 -64 1517 -64 
C 2003 -64 2349 160 2605 493 
C 2586 557 2547 589 2470 595 
z
" transform="scale(0.015625)"/>
     </defs>
     <use xlink:href="#LibertinusSerif-Regular-42"/>
     <use xlink:href="#LibertinusSerif-Regular-61" transform="translate(58.799988 0)"/>
     <use xlink:href="#LibertinusSerif-Regular-73" transform="translate(104.499985 0)"/>
     <use xlink:href="#LibertinusSerif-Regular-65" transform="translate(143.499969 0)"/>
    </g>
   </g>
   <g id="legend_1">
    <g id="patch_8">
     <path d="M 36 80.610937 
L 74.6 80.610937 
Q 76.6 80.610937 76.6 78.610937 
L 76.6 36.589062 
Q 76.6 34.589062 74.6 34.589062 
L 36 34.589062 
Q 34 34.589062 34 36.589062 
L 34 78.610937 
Q 34 80.610937 36 80.610937 
z
" style="fill: #ffffff; opacity: 0.8; stroke: #cccccc; stroke-linejoin: miter"/>
    </g>
    <g id="line2d_15">
     <path d="M 38 42.089062 
L 48 42.089062 
L 58 42.089062 
" style="fill: none; stroke: #1f77b4; stroke-width: 1.5; stroke-linecap: square"/>
    </g>
    <g id="text_7">
     <!-- X -->
     <g transform="translate(66 45.589062) scale(0.1 -0.1)">
      <defs>
       <path id="LibertinusSerif-Regular-58" d="M 3443 653 
L 2464 1997 
C 2400 2080 2362 2144 2362 2208 
C 2362 2266 2362 2323 2426 2400 
L 3302 3533 
C 3520 3814 3725 3898 4013 3930 
C 4051 3968 4051 4102 4013 4141 
C 3821 4134 3584 4128 3437 4128 
C 3290 4128 3021 4134 2765 4141 
C 2726 4102 2726 3968 2765 3930 
C 3046 3910 3162 3872 3014 3661 
L 2227 2541 
C 2189 2483 2150 2464 2125 2464 
C 2106 2464 2074 2490 2048 2534 
L 1338 3578 
C 1158 3834 1133 3910 1491 3930 
C 1530 3968 1530 4102 1491 4141 
C 1254 4134 1018 4128 762 4128 
C 512 4128 301 4134 109 4141 
C 70 4102 77 3968 115 3930 
C 384 3910 499 3872 762 3501 
L 1677 2202 
C 1728 2125 1766 2074 1766 2010 
C 1766 1971 1734 1907 1702 1862 
L 755 595 
C 531 301 326 224 45 198 
C 6 160 6 26 45 -13 
C 237 -6 474 0 621 0 
C 768 0 1037 -6 1293 -13 
C 1331 26 1331 160 1293 198 
C 1005 218 883 250 1043 467 
L 1888 1651 
C 1920 1702 1965 1741 1984 1741 
C 2010 1741 2035 1722 2074 1670 
L 2861 544 
C 3040 282 3072 218 2714 198 
C 2675 160 2675 26 2714 -13 
C 2950 -6 3187 0 3443 0 
C 3693 0 3904 -6 4096 -13 
C 4134 26 4128 160 4090 198 
C 3821 218 3712 275 3443 653 
z
" transform="scale(0.015625)"/>
      </defs>
      <use xlink:href="#LibertinusSerif-Regular-58"/>
     </g>
    </g>
    <g id="line2d_16">
     <path d="M 38 56.429687 
L 48 56.429687 
L 58 56.429687 
" style="fill: none; stroke: #ff7f0e; stroke-width: 1.5; stroke-linecap: square"/>
    </g>
    <g id="text_8">
     <!-- Y -->
     <g transform="translate(66 59.929687) scale(0.1 -0.1)">
      <defs>
       <path id="LibertinusSerif-Regular-59" d="M 2157 781 
L 2157 1645 
C 2157 1837 2163 1946 2266 2138 
L 3034 3520 
C 3213 3840 3354 3898 3642 3930 
C 3680 3968 3680 4102 3642 4141 
C 3462 4134 3258 4128 3110 4128 
C 2963 4128 2733 4134 2528 4141 
C 2490 4102 2490 3968 2528 3930 
C 2810 3910 2912 3846 2771 3590 
L 2067 2253 
C 2016 2150 1984 2163 1926 2266 
L 1184 3571 
C 1030 3846 1056 3910 1414 3930 
C 1453 3968 1453 4102 1414 4141 
C 1184 4134 941 4128 685 4128 
C 435 4128 224 4134 32 4141 
C -6 4102 0 3968 38 3930 
C 307 3910 416 3872 634 3501 
L 1478 2086 
C 1587 1894 1613 1830 1613 1594 
L 1613 781 
C 1613 250 1504 218 992 198 
C 954 160 954 26 992 -13 
C 1306 -6 1638 0 1888 0 
C 2131 0 2458 -6 2778 -13 
C 2816 26 2816 160 2778 198 
C 2266 218 2157 250 2157 781 
z
" transform="scale(0.015625)"/>
      </defs>
      <use xlink:href="#LibertinusSerif-Regular-59"/>
     </g>
    </g>
    <g id="line2d_17">
     <path d="M 38 70.770312 
L 48 70.770312 
L 58 70.770312 
" style="fill: none; stroke: #2ca02c; stroke-width: 1.5; stroke-linecap: square"/>
    </g>
    <g id="text_9">
     <!-- Z -->
     <g transform="translate(66 74.270312) scale(0.1 -0.1)">
      <defs>
       <path id="LibertinusSerif-Regular-5a" d="M 3526 -13 
C 3558 346 3622 723 3699 1056 
C 3654 1069 3584 1088 3501 1088 
C 3302 634 3142 282 2445 269 
L 1210 243 
C 1101 237 1050 275 1050 333 
C 1050 365 1069 403 1101 461 
C 1568 1139 2746 2810 3501 3782 
C 3635 3955 3654 4000 3654 4070 
C 3654 4115 3622 4141 3571 4141 
C 3494 4141 3296 4128 3104 4128 
L 1690 4128 
C 1389 4128 768 4160 531 4179 
C 506 3834 442 3469 390 3206 
C 454 3187 512 3174 582 3174 
C 717 3616 960 3840 1440 3853 
L 2790 3878 
C 2822 3878 2854 3859 2854 3821 
C 2854 3789 2835 3750 2803 3706 
C 2182 2918 966 1216 314 243 
C 275 192 262 141 262 96 
C 262 32 294 0 384 0 
L 2714 0 
C 2886 0 3526 -13 3526 -13 
z
" transform="scale(0.015625)"/>
      </defs>
      <use xlink:href="#LibertinusSerif-Regular-5a"/>
     </g>
    </g>
   </g>
  </g>
  <g id="axes_2">
   <g id="patch_9">
    <path d="M 150.745455 108 
L 252.2 108 
L 252.2 7.2 
L 150.745455 7.2 
z
" style="fill: #ffffff"/>
   </g>
   <g id="matplotlib.axis_3">
    <g id="xtick_4">
     <g id="line2d_18">
      <g>
       <use xlink:href="#m1b40315066" x="155.357025" y="108" style="stroke: #000000; stroke-width: 0.8"/>
      </g>
     </g>
    </g>
    <g id="xtick_5">
     <g id="line2d_19">
      <g>
       <use xlink:href="#m1b40315066" x="216.844628" y="108" style="stroke: #000000; stroke-width: 0.8"/>
      </g>
     </g>
    </g>
   </g>
   <g id="matplotlib.axis_4">
    <g id="ytick_6">
     <g id="line2d_20">
      <g>
       <use xlink:href="#mcb0ca6d81d" x="150.745455" y="102.360632" style="stroke: #000000; stroke-width: 0.8"/>
      </g>
     </g>
    </g>
    <g id="ytick_7">
     <g id="line2d_21">
      <g>
       <use xlink:href="#mcb0ca6d81d" x="150.745455" y="80.549606" style="stroke: #000000; stroke-width: 0.8"/>
      </g>
     </g>
    </g>
    <g id="ytick_8">
     <g id="line2d_22">
      <g>
       <use xlink:href="#mcb0ca6d81d" x="150.745455" y="58.738579" style="stroke: #000000; stroke-width: 0.8"/>
      </g>
     </g>
    </g>
    <g id="ytick_9">
     <g id="line2d_23">
      <g>
       <use xlink:href="#mcb0ca6d81d" x="150.745455" y="36.927553" style="stroke: #000000; stroke-width: 0.8"/>
      </g>
     </g>
    </g>
    <g id="ytick_10">
     <g id="line2d_24">
      <g>
       <use xlink:href="#mcb0ca6d81d" x="150.745455" y="15.116526" style="stroke: #000000; stroke-width: 0.8"/>
      </g>
     </g>
    </g>
   </g>
   <g id="line2d_25">
    <path d="M 155.357025 79.677164 
L 157.527175 79.549041 
L 159.697326 79.184941 
L 161.505785 78.685392 
L 163.314244 77.961315 
L 164.761011 77.173454 
L 166.207778 76.150481 
L 167.654545 74.840268 
L 169.101313 73.19496 
L 170.54808 71.19842 
L 172.71823 67.72546 
L 174.164998 65.56092 
L 175.250073 64.452094 
L 181.398833 59.028924 
L 183.930676 56.857185 
L 185.377443 55.860561 
L 186.462518 55.394529 
L 187.547594 55.237 
L 189.717744 55.3041 
L 191.526203 55.471332 
L 192.611279 55.748506 
L 193.696354 56.247925 
L 194.781429 57.046647 
L 195.866505 58.176538 
L 196.95158 59.710926 
L 198.036655 61.627129 
L 200.206806 65.717944 
L 200.93019 66.768505 
L 201.653573 67.532828 
L 204.185416 69.736245 
L 205.270491 71.422606 
L 207.07895 74.515214 
L 208.525717 76.487019 
L 209.610792 77.688958 
L 210.695868 78.614366 
L 211.780943 79.298961 
L 213.22771 79.930249 
L 215.036169 80.430524 
L 217.568012 80.854129 
L 221.908313 81.294979 
L 230.588916 81.902174 
L 240.716286 82.396267 
L 247.58843 82.593616 
L 247.58843 82.593616 
" clip-path="url(#p0874f66208)" style="fill: none; stroke: #1f77b4; stroke-width: 1.5; stroke-linecap: square"/>
   </g>
   <g id="line2d_26">
    <path d="M 155.357025 79.677164 
L 157.527175 79.549127 
L 159.697326 79.186086 
L 161.505785 78.688595 
L 163.314244 77.966334 
L 164.761011 77.179248 
L 166.207778 76.155315 
L 167.654545 74.841636 
L 169.101313 73.191141 
L 170.54808 71.188523 
L 172.71823 67.709181 
L 174.164998 65.471288 
L 175.250073 64.187229 
L 175.973456 63.661406 
L 176.69684 63.476535 
L 177.420224 63.672387 
L 178.143607 64.255412 
L 178.866991 65.196436 
L 179.952066 67.143502 
L 181.760525 71.138657 
L 183.930676 75.82426 
L 185.377443 78.407185 
L 186.82421 80.475673 
L 188.270977 82.076991 
L 189.717744 83.295109 
L 191.164511 84.218706 
L 192.97297 85.078381 
L 195.143121 85.835895 
L 198.398347 86.699758 
L 204.908799 88.157824 
L 208.525717 88.785309 
L 211.05756 89.027073 
L 213.589402 89.043954 
L 216.121245 88.829784 
L 219.376471 88.299808 
L 226.248614 87.076496 
L 229.142149 86.807972 
L 232.035683 86.761313 
L 234.929217 86.936216 
L 238.184443 87.362559 
L 243.248128 88.302097 
L 247.226738 88.947175 
L 247.58843 88.988138 
L 247.58843 88.988138 
" clip-path="url(#p0874f66208)" style="fill: none; stroke-dasharray: 5.55,2.4; stroke-dashoffset: 0; stroke: #1f77b4; stroke-width: 1.5"/>
   </g>
   <g id="line2d_27">
    <path d="M 155.357025 79.677164 
L 158.612251 78.370903 
L 160.42071 77.388786 
L 161.867477 76.363235 
L 163.314244 75.045724 
L 164.761011 73.357312 
L 166.207778 71.217913 
L 167.654545 68.568446 
L 169.101313 65.426634 
L 171.994847 58.816052 
L 172.71823 57.627793 
L 173.441614 56.913355 
L 174.526689 56.128 
L 175.611765 55.259373 
L 176.335148 55.053765 
L 177.781915 55.207918 
L 179.590374 55.364498 
L 180.313758 55.175425 
L 183.207292 53.959947 
L 184.654059 53.700981 
L 185.377443 53.775086 
L 186.100826 54.21976 
L 186.82421 55.197348 
L 187.547594 56.694388 
L 189.356053 61.360866 
L 192.249587 68.557136 
L 194.419737 74.11616 
L 200.206806 89.753912 
L 200.93019 91.04731 
L 201.653573 91.928534 
L 202.376957 92.500864 
L 204.908799 93.955602 
L 205.632183 94.190024 
L 207.440642 94.293529 
L 209.249101 94.228734 
L 212.142635 94.036285 
L 213.951094 94.138659 
L 216.121245 94.476508 
L 219.376471 95.23603 
L 225.163539 96.869046 
L 247.58843 103.418182 
L 247.58843 103.418182 
" clip-path="url(#p0874f66208)" style="fill: none; stroke: #ff7f0e; stroke-width: 1.5; stroke-linecap: square"/>
   </g>
   <g id="line2d_28">
    <path d="M 155.357025 79.677164 
L 158.612251 78.371412 
L 160.42071 77.391548 
L 161.867477 76.368499 
L 163.314244 75.054188 
L 164.761011 73.367288 
L 166.207778 71.225652 
L 167.654545 68.569955 
L 169.101313 65.419296 
L 171.994847 58.806736 
L 172.71823 57.62689 
L 173.441614 56.938207 
L 173.803306 56.83361 
L 174.164998 56.916409 
L 174.526689 57.203845 
L 174.888381 57.708762 
L 175.611765 59.392548 
L 176.335148 61.937291 
L 177.420224 66.999172 
L 179.590374 78.025925 
L 180.67545 82.259878 
L 181.398833 84.353403 
L 182.122217 85.894103 
L 182.8456 86.96024 
L 183.568984 87.646613 
L 184.292368 88.046192 
L 185.015751 88.240213 
L 186.100826 88.285712 
L 187.909285 88.062786 
L 191.164511 87.63513 
L 193.334662 87.584072 
L 195.866505 87.779486 
L 198.760039 88.249933 
L 205.632183 89.494483 
L 207.802333 89.619576 
L 209.972484 89.505462 
L 212.142635 89.146766 
L 214.674477 88.491445 
L 220.461546 86.879563 
L 222.993388 86.456205 
L 225.525231 86.289084 
L 228.057073 86.367128 
L 230.588916 86.657204 
L 233.844142 87.276079 
L 238.546135 88.449195 
L 242.524745 89.354958 
L 244.694895 89.643683 
L 246.865046 89.694497 
L 247.58843 89.650861 
L 247.58843 89.650861 
" clip-path="url(#p0874f66208)" style="fill: none; stroke-dasharray: 5.55,2.4; stroke-dashoffset: 0; stroke: #ff7f0e; stroke-width: 1.5"/>
   </g>
   <g id="line2d_29">
    <path d="M 155.357025 79.677164 
L 159.697326 79.684638 
L 162.229169 79.495031 
L 164.037628 79.132392 
L 165.484395 78.575551 
L 166.56947 77.902814 
L 167.654545 76.902748 
L 168.377929 75.988526 
L 169.101313 74.819652 
L 169.824696 73.34152 
L 170.54808 71.496489 
L 171.633155 67.92856 
L 172.71823 63.319232 
L 174.164998 56.479682 
L 174.888381 54.242895 
L 176.69684 49.328377 
L 179.590374 40.739091 
L 181.037141 37.06088 
L 185.015751 27.898794 
L 187.185902 23.811763 
L 189.717744 18.945104 
L 191.887895 14.844567 
L 192.97297 13.345612 
L 194.058046 12.294851 
L 194.781429 11.871936 
L 195.504813 11.781818 
L 196.228196 12.007284 
L 196.95158 12.531266 
L 197.674964 13.360056 
L 199.845114 16.223066 
L 200.568498 16.575844 
L 204.185416 17.27145 
L 204.908799 17.688547 
L 205.632183 18.551723 
L 206.717258 20.472562 
L 210.334176 27.428311 
L 211.419251 28.728606 
L 212.142635 29.320378 
L 212.866018 29.716362 
L 213.951094 30.004595 
L 215.036169 30.010722 
L 216.482936 29.720243 
L 218.291395 29.070262 
L 221.18493 27.724152 
L 226.248614 25.067694 
L 233.48245 21.006329 
L 243.971512 14.880937 
L 247.58843 12.610941 
L 247.58843 12.610941 
" clip-path="url(#p0874f66208)" style="fill: none; stroke: #2ca02c; stroke-width: 1.5; stroke-linecap: square"/>
   </g>
   <g id="line2d_30">
    <path d="M 155.357025 79.677164 
L 160.059018 79.671782 
L 162.59086 79.445587 
L 164.037628 79.136174 
L 165.484395 78.580317 
L 166.56947 77.906575 
L 167.654545 76.90263 
L 168.377929 75.983916 
L 169.101313 74.808919 
L 169.824696 73.322259 
L 170.54808 71.466281 
L 171.633155 67.877674 
L 172.71823 63.246501 
L 174.164998 55.692934 
L 175.973456 45.950803 
L 176.69684 42.825082 
L 177.420224 40.527426 
L 178.143607 39.190934 
L 178.505299 38.887858 
L 178.866991 38.814227 
L 179.228683 38.950967 
L 179.590374 39.274024 
L 180.313758 40.36863 
L 181.398833 42.71056 
L 183.930676 48.550956 
L 185.015751 50.572454 
L 186.100826 52.234758 
L 187.185902 53.58388 
L 188.632669 54.997356 
L 190.079436 56.082349 
L 191.887895 57.108553 
L 193.696354 57.862036 
L 195.504813 58.394485 
L 197.313272 58.727428 
L 199.121731 58.867492 
L 200.93019 58.816722 
L 203.10034 58.512103 
L 205.270491 57.970739 
L 208.164025 56.997174 
L 212.142635 55.642824 
L 214.312786 55.14672 
L 216.121245 54.950748 
L 217.929703 54.969444 
L 220.099854 55.252614 
L 222.631697 55.857804 
L 226.610306 57.10007 
L 230.588916 58.287178 
L 233.120758 58.8435 
L 235.290909 59.127442 
L 237.46106 59.19228 
L 239.631211 59.011374 
L 241.801361 58.578918 
L 243.971512 57.922172 
L 247.58843 56.542267 
L 247.58843 56.542267 
" clip-path="url(#p0874f66208)" style="fill: none; stroke-dasharray: 5.55,2.4; stroke-dashoffset: 0; stroke: #2ca02c; stroke-width: 1.5"/>
   </g>
   <g id="patch_10">
    <path d="M 150.745455 108 
L 150.745455 7.2 
" style="fill: none; stroke: #000000; stroke-width: 0.8; stroke-linejoin: miter; stroke-linecap: square"/>
   </g>
   <g id="patch_11">
    <path d="M 252.2 108 
L 252.2 7.2 
" style="fill: none; stroke: #000000; stroke-width: 0.8; stroke-linejoin: miter; stroke-linecap: square"/>
   </g>
   <g id="patch_12">
    <path d="M 150.745455 108 
L 252.2 108 
" style="fill: none; stroke: #000000; stroke-width: 0.8; stroke-linejoin: miter; stroke-linecap: square"/>
   </g>
   <g id="patch_13">
    <path d="M 150.745455 7.2 
L 252.2 7.2 
" style="fill: none; stroke: #000000; stroke-width: 0.8; stroke-linejoin: miter; stroke-linecap: square"/>
   </g>
   <g id="text_10">
    <g id="patch_14">
     <path d="M 187.161555 26.366172 
L 215.783899 26.366172 
L 215.783899 8.193828 
L 187.161555 8.193828 
z
" style="fill: #ffffff; opacity: 0.5; stroke: #000000; stroke-linejoin: miter"/>
    </g>
    <!-- Base -->
    <g transform="translate(191.121555 19.831484) scale(0.11 -0.11)">
     <use xlink:href="#LibertinusSerif-Regular-42"/>
     <use xlink:href="#LibertinusSerif-Regular-61" transform="translate(58.799988 0)"/>
     <use xlink:href="#LibertinusSerif-Regular-73" transform="translate(104.499985 0)"/>
     <use xlink:href="#LibertinusSerif-Regular-65" transform="translate(143.499969 0)"/>
    </g>
   </g>
  </g>
  <g id="axes_3">
   <g id="patch_15">
    <path d="M 29 228.96 
L 130.454545 228.96 
L 130.454545 128.16 
L 29 128.16 
z
" style="fill: #ffffff"/>
   </g>
   <g id="matplotlib.axis_5">
    <g id="xtick_6">
     <g id="line2d_31">
      <g>
       <use xlink:href="#m1b40315066" x="33.61157" y="228.96" style="stroke: #000000; stroke-width: 0.8"/>
      </g>
     </g>
     <g id="text_11">
      <!-- 0.0 -->
      <g transform="translate(27.86157 242.939687) scale(0.1 -0.1)">
       <defs>
        <path id="LibertinusSerif-Regular-2e" d="M 365 275 
C 365 90 518 -64 704 -64 
C 890 -64 1043 90 1043 275 
C 1043 461 890 614 704 614 
C 518 614 365 461 365 275 
z
" transform="scale(0.015625)"/>
       </defs>
       <use xlink:href="#LibertinusSerif-Regular-30"/>
       <use xlink:href="#LibertinusSerif-Regular-2e" transform="translate(46.499985 0)"/>
       <use xlink:href="#LibertinusSerif-Regular-30" transform="translate(68.499969 0)"/>
      </g>
     </g>
    </g>
    <g id="xtick_7">
     <g id="line2d_32">
      <g>
       <use xlink:href="#m1b40315066" x="70.504132" y="228.96" style="stroke: #000000; stroke-width: 0.8"/>
      </g>
     </g>
     <g id="text_12">
      <!-- 0.2 -->
      <g transform="translate(64.754132 242.939687) scale(0.1 -0.1)">
       <use xlink:href="#LibertinusSerif-Regular-30"/>
       <use xlink:href="#LibertinusSerif-Regular-2e" transform="translate(46.499985 0)"/>
       <use xlink:href="#LibertinusSerif-Regular-32" transform="translate(68.499969 0)"/>
      </g>
     </g>
    </g>
    <g id="xtick_8">
     <g id="line2d_33">
      <g>
       <use xlink:href="#m1b40315066" x="107.396694" y="228.96" style="stroke: #000000; stroke-width: 0.8"/>
      </g>
     </g>
     <g id="text_13">
      <!-- 0.4 -->
      <g transform="translate(101.646694 242.939687) scale(0.1 -0.1)">
       <defs>
        <path id="LibertinusSerif-Regular-34" d="M 1734 3245 
L 1734 1402 
L 512 1402 
C 838 1926 1293 2637 1734 3245 
z
M 2752 1402 
L 2221 1402 
L 2221 3270 
C 2221 3590 2221 3840 2234 3891 
L 2221 3904 
L 2016 3904 
C 1971 3904 1933 3859 1914 3834 
C 1510 3334 762 2285 179 1370 
C 198 1274 237 1101 429 1101 
L 1734 1101 
L 1734 512 
C 1734 218 1491 218 1216 198 
C 1178 160 1178 26 1216 -13 
C 1421 -6 1677 0 1971 0 
C 2221 0 2464 -6 2669 -13 
C 2707 26 2707 160 2669 198 
C 2355 224 2221 211 2221 512 
L 2221 1101 
L 2662 1101 
C 2752 1101 2848 1222 2848 1299 
C 2848 1363 2822 1402 2752 1402 
z
" transform="scale(0.015625)"/>
       </defs>
       <use xlink:href="#LibertinusSerif-Regular-30"/>
       <use xlink:href="#LibertinusSerif-Regular-2e" transform="translate(46.499985 0)"/>
       <use xlink:href="#LibertinusSerif-Regular-34" transform="translate(68.499969 0)"/>
      </g>
     </g>
    </g>
   </g>
   <g id="matplotlib.axis_6">
    <g id="ytick_11">
     <g id="line2d_34">
      <g>
       <use xlink:href="#mcb0ca6d81d" x="29" y="223.320632" style="stroke: #000000; stroke-width: 0.8"/>
      </g>
     </g>
     <g id="text_14">
      <!-- −25 -->
      <g transform="translate(7.2 226.810476) scale(0.1 -0.1)">
       <use xlink:href="#LibertinusSerif-Regular-2212"/>
       <use xlink:href="#LibertinusSerif-Regular-32" transform="translate(54.999985 0)"/>
       <use xlink:href="#LibertinusSerif-Regular-35" transform="translate(101.499969 0)"/>
      </g>
     </g>
    </g>
    <g id="ytick_12">
     <g id="line2d_35">
      <g>
       <use xlink:href="#mcb0ca6d81d" x="29" y="201.509606" style="stroke: #000000; stroke-width: 0.8"/>
      </g>
     </g>
     <g id="text_15">
      <!-- 0 -->
      <g transform="translate(17.35 204.999449) scale(0.1 -0.1)">
       <use xlink:href="#LibertinusSerif-Regular-30"/>
      </g>
     </g>
    </g>
    <g id="ytick_13">
     <g id="line2d_36">
      <g>
       <use xlink:href="#mcb0ca6d81d" x="29" y="179.698579" style="stroke: #000000; stroke-width: 0.8"/>
      </g>
     </g>
     <g id="text_16">
      <!-- 25 -->
      <g transform="translate(12.7 183.188423) scale(0.1 -0.1)">
       <use xlink:href="#LibertinusSerif-Regular-32"/>
       <use xlink:href="#LibertinusSerif-Regular-35" transform="translate(46.499985 0)"/>
      </g>
     </g>
    </g>
    <g id="ytick_14">
     <g id="line2d_37">
      <g>
       <use xlink:href="#mcb0ca6d81d" x="29" y="157.887553" style="stroke: #000000; stroke-width: 0.8"/>
      </g>
     </g>
     <g id="text_17">
      <!-- 50 -->
      <g transform="translate(12.7 161.377396) scale(0.1 -0.1)">
       <use xlink:href="#LibertinusSerif-Regular-35"/>
       <use xlink:href="#LibertinusSerif-Regular-30" transform="translate(46.499985 0)"/>
      </g>
     </g>
    </g>
    <g id="ytick_15">
     <g id="line2d_38">
      <g>
       <use xlink:href="#mcb0ca6d81d" x="29" y="136.076526" style="stroke: #000000; stroke-width: 0.8"/>
      </g>
     </g>
     <g id="text_18">
      <!-- 75 -->
      <g transform="translate(12.7 139.56637) scale(0.1 -0.1)">
       <use xlink:href="#LibertinusSerif-Regular-37"/>
       <use xlink:href="#LibertinusSerif-Regular-35" transform="translate(46.499985 0)"/>
      </g>
     </g>
    </g>
   </g>
   <g id="line2d_39">
    <path d="M 33.61157 200.637164 
L 39.760331 200.522867 
L 46.270783 200.173464 
L 52.057851 199.650643 
L 57.121536 198.9862 
L 61.823529 198.144359 
L 65.802139 197.217567 
L 69.419057 196.167383 
L 73.035975 194.889245 
L 76.652893 193.36441 
L 80.26981 191.601785 
L 85.695187 188.671284 
L 89.673797 186.603943 
L 92.205639 185.521394 
L 94.37579 184.848589 
L 96.184249 184.522796 
L 97.992708 184.444789 
L 99.801167 184.634009 
L 101.609626 185.092989 
L 103.418085 185.805806 
L 105.588235 186.95024 
L 108.120078 188.588254 
L 111.736996 191.247493 
L 117.885756 195.788298 
L 121.140982 197.90125 
L 124.034516 199.539276 
L 125.842975 200.445704 
L 125.842975 200.445704 
" clip-path="url(#pd5b460b289)" style="fill: none; stroke: #1f77b4; stroke-width: 1.5; stroke-linecap: square"/>
   </g>
   <g id="line2d_40">
    <path d="M 33.61157 200.637164 
L 39.760331 200.522509 
L 46.270783 200.172539 
L 52.057851 199.648595 
L 57.121536 198.982785 
L 61.823529 198.139248 
L 65.802139 197.210973 
L 69.419057 196.160068 
L 73.035975 194.881934 
L 76.652893 193.358285 
L 80.26981 191.59782 
L 85.695187 188.669181 
L 89.673797 186.601213 
L 92.205639 185.518572 
L 94.37579 184.845274 
L 96.184249 184.519325 
L 97.992708 184.442119 
L 99.801167 184.632387 
L 101.609626 185.09217 
L 103.418085 185.806135 
L 105.226544 186.743518 
L 107.396694 188.103502 
L 110.65192 190.449515 
L 118.247448 196.06059 
L 121.502674 198.14014 
L 124.396208 199.747172 
L 125.842975 200.464182 
L 125.842975 200.464182 
" clip-path="url(#pd5b460b289)" style="fill: none; stroke-dasharray: 5.55,2.4; stroke-dashoffset: 0; stroke: #1f77b4; stroke-width: 1.5"/>
   </g>
   <g id="line2d_41">
    <path d="M 33.61157 200.637164 
L 43.377248 199.332048 
L 48.440933 198.427748 
L 52.781235 197.427205 
L 56.398153 196.379962 
L 59.653379 195.230327 
L 62.908605 193.847678 
L 65.802139 192.395288 
L 68.695673 190.71367 
L 71.950899 188.543009 
L 75.567817 185.827562 
L 82.801653 180.24459 
L 84.610112 179.132088 
L 86.056879 178.439055 
L 87.503646 177.977952 
L 88.588721 177.816009 
L 89.673797 177.83552 
L 90.758872 178.054948 
L 91.843947 178.488403 
L 92.929023 179.144762 
L 94.014098 180.025355 
L 95.460865 181.537868 
L 96.907632 183.404036 
L 98.716091 186.147489 
L 101.247934 190.472965 
L 105.226544 197.297864 
L 107.396694 200.521838 
L 109.205153 202.792537 
L 111.013612 204.656625 
L 112.460379 205.863144 
L 113.907146 206.834928 
L 115.715605 207.757204 
L 117.524064 208.404129 
L 119.332523 208.83026 
L 121.502674 209.121138 
L 124.396208 209.252385 
L 125.842975 209.245939 
L 125.842975 209.245939 
" clip-path="url(#pd5b460b289)" style="fill: none; stroke: #ff7f0e; stroke-width: 1.5; stroke-linecap: square"/>
   </g>
   <g id="line2d_42">
    <path d="M 33.61157 200.637164 
L 43.377248 199.331412 
L 48.440933 198.426012 
L 52.781235 197.423809 
L 56.398153 196.37441 
L 59.653379 195.222595 
L 62.908605 193.8375 
L 65.802139 192.383244 
L 68.695673 190.700498 
L 71.950899 188.529792 
L 75.567817 185.816369 
L 82.801653 180.238993 
L 84.610112 179.126523 
L 86.056879 178.433167 
L 87.503646 177.971277 
L 88.588721 177.808605 
L 89.673797 177.826847 
L 90.758872 178.044397 
L 91.843947 178.475721 
L 92.929023 179.129977 
L 94.014098 180.009776 
L 95.460865 181.52409 
L 96.907632 183.396 
L 98.716091 186.147982 
L 101.247934 190.479679 
L 105.226544 197.308139 
L 107.396694 200.538545 
L 109.205153 202.813834 
L 111.013612 204.679897 
L 112.460379 205.885133 
L 113.907146 206.854103 
L 115.715605 207.771536 
L 117.524064 208.4141 
L 119.332523 208.836833 
L 121.502674 209.12441 
L 124.396208 209.252864 
L 125.842975 209.245712 
L 125.842975 209.245712 
" clip-path="url(#pd5b460b289)" style="fill: none; stroke-dasharray: 5.55,2.4; stroke-dashoffset: 0; stroke: #ff7f0e; stroke-width: 1.5"/>
   </g>
   <g id="line2d_43">
    <path d="M 33.61157 200.637164 
L 47.355858 200.63643 
L 54.589694 200.441619 
L 59.653379 200.098405 
L 63.631988 199.603415 
L 66.887214 198.961327 
L 69.419057 198.248658 
L 71.589208 197.43979 
L 73.759358 196.399835 
L 75.567817 195.318401 
L 77.376276 194.006529 
L 79.184735 192.430667 
L 80.993194 190.56076 
L 82.801653 188.374272 
L 84.610112 185.862931 
L 86.780263 182.44034 
L 89.312105 177.985475 
L 95.460865 166.910068 
L 97.269324 164.258605 
L 98.716091 162.529322 
L 100.162859 161.20576 
L 101.247934 160.496383 
L 102.333009 160.032223 
L 103.418085 159.805539 
L 104.50316 159.801536 
L 105.588235 159.999085 
L 107.035002 160.532822 
L 108.48177 161.314549 
L 110.290228 162.538001 
L 113.545455 165.085481 
L 117.885756 168.462539 
L 120.77929 170.426886 
L 123.672825 172.098693 
L 125.842975 173.170354 
L 125.842975 173.170354 
" clip-path="url(#pd5b460b289)" style="fill: none; stroke: #2ca02c; stroke-width: 1.5; stroke-linecap: square"/>
   </g>
   <g id="line2d_44">
    <path d="M 33.61157 200.637164 
L 47.355858 200.636558 
L 54.589694 200.440913 
L 59.653379 200.096174 
L 63.631988 199.599513 
L 66.887214 198.955597 
L 69.419057 198.241639 
L 71.589208 197.432051 
L 73.759358 196.391806 
L 75.567817 195.310845 
L 77.376276 194.000114 
L 79.184735 192.426281 
L 80.993194 190.558858 
L 82.801653 188.374843 
L 84.610112 185.864966 
L 86.780263 182.44188 
L 89.312105 177.98669 
L 95.460865 166.910803 
L 97.269324 164.25395 
L 98.716091 162.521402 
L 100.162859 161.19627 
L 101.247934 160.486925 
L 102.333009 160.023493 
L 103.418085 159.798641 
L 104.50316 159.797535 
L 105.588235 159.999248 
L 107.035002 160.539523 
L 108.48177 161.32863 
L 110.290228 162.562141 
L 113.545455 165.12144 
L 117.885756 168.495542 
L 120.77929 170.455194 
L 123.672825 172.124786 
L 125.842975 173.194758 
L 125.842975 173.194758 
" clip-path="url(#pd5b460b289)" style="fill: none; stroke-dasharray: 5.55,2.4; stroke-dashoffset: 0; stroke: #2ca02c; stroke-width: 1.5"/>
   </g>
   <g id="patch_16">
    <path d="M 29 228.96 
L 29 128.16 
" style="fill: none; stroke: #000000; stroke-width: 0.8; stroke-linejoin: miter; stroke-linecap: square"/>
   </g>
   <g id="patch_17">
    <path d="M 130.454545 228.96 
L 130.454545 128.16 
" style="fill: none; stroke: #000000; stroke-width: 0.8; stroke-linejoin: miter; stroke-linecap: square"/>
   </g>
   <g id="patch_18">
    <path d="M 29 228.96 
L 130.454545 228.96 
" style="fill: none; stroke: #000000; stroke-width: 0.8; stroke-linejoin: miter; stroke-linecap: square"/>
   </g>
   <g id="patch_19">
    <path d="M 29 128.16 
L 130.454545 128.16 
" style="fill: none; stroke: #000000; stroke-width: 0.8; stroke-linejoin: miter; stroke-linecap: square"/>
   </g>
   <g id="text_19">
    <g id="patch_20">
     <path d="M 59.366101 147.326172 
L 100.088445 147.326172 
L 100.088445 129.153828 
L 59.366101 129.153828 
z
" style="fill: #ffffff; opacity: 0.5; stroke: #000000; stroke-linejoin: miter"/>
    </g>
    <!-- Fourier -->
    <g transform="translate(63.326101 140.791484) scale(0.11 -0.11)">
     <defs>
      <path id="LibertinusSerif-Regular-46" d="M 1811 2067 
C 2355 2067 2374 1920 2394 1632 
C 2432 1594 2566 1594 2605 1632 
C 2598 1792 2592 1971 2592 2195 
C 2592 2406 2598 2579 2605 2746 
C 2566 2784 2432 2784 2394 2746 
C 2374 2394 2355 2310 1811 2310 
L 1216 2310 
L 1216 3462 
C 1216 3808 1293 3872 1574 3872 
L 1862 3872 
C 2541 3872 2701 3616 2842 3174 
C 2918 3174 2989 3187 3040 3206 
C 3002 3469 2906 4083 2899 4134 
C 2893 4147 2886 4154 2874 4154 
C 2758 4128 2733 4128 2573 4128 
L 941 4128 
C 736 4128 371 4134 115 4141 
C 77 4102 77 3968 115 3930 
C 563 3910 672 3878 672 3347 
L 672 781 
C 672 250 563 218 115 198 
C 77 160 77 26 115 -13 
C 339 -6 659 0 947 0 
C 1235 0 1549 -6 1773 -13 
C 1811 26 1811 160 1773 198 
C 1325 218 1216 250 1216 781 
L 1216 2067 
L 1811 2067 
z
" transform="scale(0.015625)"/>
      <path id="LibertinusSerif-Regular-6f" d="M 262 1312 
C 262 659 698 -64 1606 -64 
C 2016 -64 2323 77 2541 294 
C 2829 570 2963 973 2963 1370 
C 2963 2035 2598 2810 1619 2810 
C 1197 2810 845 2637 614 2362 
C 384 2086 262 1715 262 1312 
z
M 1523 2586 
C 2074 2586 2413 2086 2413 1165 
C 2413 358 1997 160 1696 160 
C 1030 160 813 966 813 1459 
C 813 2016 947 2586 1523 2586 
z
" transform="scale(0.015625)"/>
      <path id="LibertinusSerif-Regular-75" d="M 1389 -64 
C 1638 -64 1939 64 2253 320 
C 2285 346 2342 358 2349 314 
C 2362 147 2419 -64 2419 -64 
C 2470 -83 2496 -83 2541 -64 
C 2682 51 2906 147 3296 192 
C 3334 230 3334 326 3296 365 
C 2886 397 2829 518 2829 832 
L 2829 2061 
C 2829 2253 2854 2720 2854 2720 
C 2854 2739 2835 2758 2803 2758 
C 2771 2752 2675 2746 2579 2746 
C 2374 2746 2144 2752 1926 2758 
C 1888 2720 1888 2586 1926 2547 
C 2240 2528 2323 2451 2323 2029 
L 2323 794 
C 2323 672 2310 621 2221 544 
C 1984 339 1741 237 1581 237 
C 1389 237 1069 326 1069 896 
L 1069 2061 
C 1069 2253 1094 2720 1094 2720 
C 1094 2739 1075 2758 1043 2758 
C 1011 2752 915 2746 819 2746 
C 614 2746 384 2752 166 2758 
C 128 2720 128 2586 166 2547 
C 474 2522 563 2451 563 2035 
L 563 806 
C 563 365 755 -64 1389 -64 
z
" transform="scale(0.015625)"/>
      <path id="LibertinusSerif-Regular-72" d="M 1126 2291 
C 1114 2547 1101 2707 1075 2778 
C 1056 2803 1050 2829 998 2829 
C 819 2758 653 2701 211 2643 
C 198 2605 211 2502 224 2464 
C 570 2432 640 2400 640 2029 
L 640 781 
C 640 250 563 224 166 198 
C 128 160 128 26 166 -13 
C 390 -6 640 0 896 0 
C 1152 0 1446 -6 1670 -13 
C 1709 26 1709 160 1670 198 
C 1222 230 1146 250 1146 781 
L 1146 1670 
C 1146 1837 1222 1984 1299 2099 
C 1370 2202 1517 2413 1594 2413 
C 1651 2413 1709 2394 1754 2330 
C 1805 2266 1875 2182 1990 2182 
C 2144 2182 2291 2342 2291 2502 
C 2291 2624 2176 2810 1907 2810 
C 1606 2810 1344 2528 1197 2278 
C 1158 2208 1126 2259 1126 2291 
z
" transform="scale(0.015625)"/>
      <path id="LibertinusSerif-Regular-69" d="M 1158 781 
L 1158 2054 
C 1158 2374 1184 2784 1184 2784 
C 1184 2810 1152 2829 1101 2829 
C 915 2758 666 2701 224 2643 
C 211 2605 224 2502 237 2464 
C 582 2426 653 2394 653 2029 
L 653 781 
C 653 250 582 230 192 198 
C 154 160 154 26 192 -13 
C 403 -6 653 0 909 0 
C 1165 0 1408 -6 1619 -13 
C 1658 26 1658 160 1619 198 
C 1229 224 1158 250 1158 781 
z
M 576 3834 
C 576 3667 730 3501 883 3501 
C 1062 3501 1216 3667 1216 3808 
C 1216 3962 1082 4141 909 4141 
C 755 4141 576 3987 576 3834 
z
" transform="scale(0.015625)"/>
     </defs>
     <use xlink:href="#LibertinusSerif-Regular-46"/>
     <use xlink:href="#LibertinusSerif-Regular-6f" transform="translate(48.499985 0)"/>
     <use xlink:href="#LibertinusSerif-Regular-75" transform="translate(98.899979 0)"/>
     <use xlink:href="#LibertinusSerif-Regular-72" transform="translate(151.999969 0)"/>
     <use xlink:href="#LibertinusSerif-Regular-69" transform="translate(189.199966 0)"/>
     <use xlink:href="#LibertinusSerif-Regular-65" transform="translate(216.299957 0)"/>
     <use xlink:href="#LibertinusSerif-Regular-72" transform="translate(260.999954 0)"/>
    </g>
   </g>
  </g>
  <g id="axes_4">
   <g id="patch_21">
    <path d="M 150.745455 228.96 
L 252.2 228.96 
L 252.2 128.16 
L 150.745455 128.16 
z
" style="fill: #ffffff"/>
   </g>
   <g id="matplotlib.axis_7">
    <g id="xtick_9">
     <g id="line2d_45">
      <g>
       <use xlink:href="#m1b40315066" x="155.357025" y="228.96" style="stroke: #000000; stroke-width: 0.8"/>
      </g>
     </g>
     <g id="text_20">
      <!-- 0 -->
      <g transform="translate(153.032025 242.939687) scale(0.1 -0.1)">
       <use xlink:href="#LibertinusSerif-Regular-30"/>
      </g>
     </g>
    </g>
    <g id="xtick_10">
     <g id="line2d_46">
      <g>
       <use xlink:href="#m1b40315066" x="216.844628" y="228.96" style="stroke: #000000; stroke-width: 0.8"/>
      </g>
     </g>
     <g id="text_21">
      <!-- 1 -->
      <g transform="translate(214.519628 242.939687) scale(0.1 -0.1)">
       <defs>
        <path id="LibertinusSerif-Regular-31" d="M 1843 781 
L 1843 3002 
C 1843 3386 1850 3776 1862 3859 
C 1862 3885 1843 3891 1824 3891 
C 1466 3667 1133 3514 570 3251 
C 576 3174 608 3117 666 3078 
C 954 3200 1101 3238 1222 3238 
C 1325 3238 1350 3085 1350 2867 
L 1350 781 
C 1350 250 1178 218 730 198 
C 691 160 691 26 730 -13 
C 1043 -6 1267 0 1619 0 
C 1920 0 2080 -6 2400 -13 
C 2438 26 2438 160 2400 198 
C 1952 218 1843 250 1843 781 
z
" transform="scale(0.015625)"/>
       </defs>
       <use xlink:href="#LibertinusSerif-Regular-31"/>
      </g>
     </g>
    </g>
   </g>
   <g id="matplotlib.axis_8">
    <g id="ytick_16">
     <g id="line2d_47">
      <g>
       <use xlink:href="#mcb0ca6d81d" x="150.745455" y="223.320632" style="stroke: #000000; stroke-width: 0.8"/>
      </g>
     </g>
    </g>
    <g id="ytick_17">
     <g id="line2d_48">
      <g>
       <use xlink:href="#mcb0ca6d81d" x="150.745455" y="201.509606" style="stroke: #000000; stroke-width: 0.8"/>
      </g>
     </g>
    </g>
    <g id="ytick_18">
     <g id="line2d_49">
      <g>
       <use xlink:href="#mcb0ca6d81d" x="150.745455" y="179.698579" style="stroke: #000000; stroke-width: 0.8"/>
      </g>
     </g>
    </g>
    <g id="ytick_19">
     <g id="line2d_50">
      <g>
       <use xlink:href="#mcb0ca6d81d" x="150.745455" y="157.887553" style="stroke: #000000; stroke-width: 0.8"/>
      </g>
     </g>
    </g>
    <g id="ytick_20">
     <g id="line2d_51">
      <g>
       <use xlink:href="#mcb0ca6d81d" x="150.745455" y="136.076526" style="stroke: #000000; stroke-width: 0.8"/>
      </g>
     </g>
    </g>
   </g>
   <g id="line2d_52">
    <path d="M 155.357025 200.637164 
L 157.527175 200.515474 
L 159.697326 200.1587 
L 161.505785 199.666978 
L 163.314244 198.951722 
L 164.761011 198.171461 
L 166.207778 197.155706 
L 167.654545 195.851167 
L 169.101313 194.209805 
L 170.54808 192.21434 
L 172.71823 188.732496 
L 174.164998 186.476087 
L 175.250073 185.166936 
L 175.973456 184.620417 
L 176.69684 184.41297 
L 177.420224 184.587211 
L 178.143607 185.1515 
L 178.866991 186.078368 
L 179.952066 188.015127 
L 181.760525 192.019191 
L 183.930676 196.737973 
L 185.377443 199.346147 
L 186.82421 201.43905 
L 188.270977 203.058949 
L 189.717744 204.292044 
L 191.164511 205.225448 
L 192.97297 206.089448 
L 195.143121 206.842824 
L 198.036655 207.594012 
L 203.823724 208.82156 
L 208.164025 209.557568 
L 211.05756 209.843793 
L 213.589402 209.896033 
L 216.482936 209.714935 
L 219.738162 209.269297 
L 227.695382 208.081097 
L 230.950608 207.891051 
L 234.205834 207.93142 
L 237.46106 208.196754 
L 242.163053 208.858924 
L 247.58843 209.671524 
L 247.58843 209.671524 
" clip-path="url(#p0f0a643469)" style="fill: none; stroke: #1f77b4; stroke-width: 1.5; stroke-linecap: square"/>
   </g>
   <g id="line2d_53">
    <path d="M 155.357025 200.637164 
L 157.527175 200.509127 
L 159.697326 200.146086 
L 161.505785 199.648595 
L 163.314244 198.926334 
L 164.761011 198.139248 
L 166.207778 197.115315 
L 167.654545 195.801636 
L 169.101313 194.151141 
L 170.54808 192.148523 
L 172.71823 188.669181 
L 174.164998 186.431288 
L 175.250073 185.147229 
L 175.973456 184.621406 
L 176.69684 184.436535 
L 177.420224 184.632387 
L 178.143607 185.215412 
L 178.866991 186.156436 
L 179.952066 188.103502 
L 181.760525 192.098657 
L 183.930676 196.78426 
L 185.377443 199.367185 
L 186.82421 201.435673 
L 188.270977 203.036991 
L 189.717744 204.255109 
L 191.164511 205.178706 
L 192.97297 206.038381 
L 195.143121 206.795895 
L 198.398347 207.659758 
L 204.908799 209.117824 
L 208.525717 209.745309 
L 211.05756 209.987073 
L 213.589402 210.003954 
L 216.121245 209.789784 
L 219.376471 209.259808 
L 226.248614 208.036496 
L 229.142149 207.767972 
L 232.035683 207.721313 
L 234.929217 207.896216 
L 238.184443 208.322559 
L 243.248128 209.262097 
L 247.226738 209.907175 
L 247.58843 209.948138 
L 247.58843 209.948138 
" clip-path="url(#p0f0a643469)" style="fill: none; stroke-dasharray: 5.55,2.4; stroke-dashoffset: 0; stroke: #1f77b4; stroke-width: 1.5"/>
   </g>
   <g id="line2d_54">
    <path d="M 155.357025 200.637164 
L 158.612251 199.344554 
L 160.42071 198.375408 
L 161.867477 197.362604 
L 163.314244 196.060271 
L 164.761011 194.386954 
L 166.207778 192.259822 
L 167.654545 189.617227 
L 169.101313 186.473887 
L 171.994847 179.819492 
L 172.71823 178.608668 
L 173.441614 177.87958 
L 173.803306 177.75179 
L 174.164998 177.809758 
L 174.526689 178.071563 
L 174.888381 178.550896 
L 175.611765 180.18665 
L 176.335148 182.694919 
L 177.420224 187.736967 
L 179.952066 200.423724 
L 181.037141 204.289718 
L 181.760525 206.136032 
L 182.483909 207.458051 
L 183.207292 208.345298 
L 183.930676 208.892497 
L 184.654059 209.192491 
L 185.739135 209.331712 
L 187.185902 209.215764 
L 191.887895 208.610448 
L 194.058046 208.602873 
L 196.589888 208.823376 
L 200.206806 209.407369 
L 205.270491 210.233908 
L 207.802333 210.407253 
L 209.972484 210.346075 
L 212.142635 210.075263 
L 215.036169 209.456456 
L 221.546621 207.916845 
L 224.078464 207.586611 
L 226.610306 207.473034 
L 229.142149 207.566321 
L 232.035683 207.887405 
L 235.652601 208.526595 
L 243.971512 210.12427 
L 247.58843 210.455604 
L 247.58843 210.455604 
" clip-path="url(#p0f0a643469)" style="fill: none; stroke: #ff7f0e; stroke-width: 1.5; stroke-linecap: square"/>
   </g>
   <g id="line2d_55">
    <path d="M 155.357025 200.637164 
L 158.612251 199.331412 
L 160.42071 198.351548 
L 161.867477 197.328499 
L 163.314244 196.014188 
L 164.761011 194.327288 
L 166.207778 192.185652 
L 167.654545 189.529955 
L 169.101313 186.379296 
L 171.994847 179.766736 
L 172.71823 178.58689 
L 173.441614 177.898207 
L 173.803306 177.79361 
L 174.164998 177.876409 
L 174.526689 178.163845 
L 174.888381 178.668762 
L 175.611765 180.352548 
L 176.335148 182.897291 
L 177.420224 187.959172 
L 179.590374 198.985925 
L 180.67545 203.219878 
L 181.398833 205.313403 
L 182.122217 206.854103 
L 182.8456 207.92024 
L 183.568984 208.606613 
L 184.292368 209.006192 
L 185.015751 209.200213 
L 186.100826 209.245712 
L 187.909285 209.022786 
L 191.164511 208.59513 
L 193.334662 208.544072 
L 195.866505 208.739486 
L 198.760039 209.209933 
L 205.632183 210.454483 
L 207.802333 210.579576 
L 209.972484 210.465462 
L 212.142635 210.106766 
L 214.674477 209.451445 
L 220.461546 207.839563 
L 222.993388 207.416205 
L 225.525231 207.249084 
L 228.057073 207.327128 
L 230.588916 207.617204 
L 233.844142 208.236079 
L 238.546135 209.409195 
L 242.524745 210.314958 
L 244.694895 210.603683 
L 246.865046 210.654497 
L 247.58843 210.610861 
L 247.58843 210.610861 
" clip-path="url(#p0f0a643469)" style="fill: none; stroke-dasharray: 5.55,2.4; stroke-dashoffset: 0; stroke: #ff7f0e; stroke-width: 1.5"/>
   </g>
   <g id="line2d_56">
    <path d="M 155.357025 200.637164 
L 159.697326 200.655785 
L 162.229169 200.478059 
L 164.037628 200.128453 
L 165.484395 199.586172 
L 166.56947 198.92682 
L 167.654545 197.941817 
L 168.377929 197.03884 
L 169.101313 195.882333 
L 169.824696 194.416865 
L 170.54808 192.584136 
L 171.633155 189.032245 
L 172.71823 184.432635 
L 174.164998 176.892025 
L 175.973456 167.078829 
L 176.69684 163.897736 
L 177.420224 161.537432 
L 178.143607 160.13971 
L 178.505299 159.809909 
L 178.866991 159.711823 
L 179.228683 159.827581 
L 179.590374 160.134492 
L 180.313758 161.206808 
L 181.398833 163.539852 
L 183.930676 169.403586 
L 185.015751 171.435463 
L 186.100826 173.102461 
L 187.185902 174.452115 
L 188.632669 175.859528 
L 190.079436 176.933347 
L 191.887895 177.942771 
L 193.696354 178.679168 
L 195.504813 179.199962 
L 197.674964 179.573125 
L 199.845114 179.688165 
L 202.015265 179.555161 
L 204.185416 179.194628 
L 206.717258 178.540111 
L 213.951094 176.474246 
L 216.121245 176.177998 
L 217.929703 176.137549 
L 220.099854 176.317677 
L 222.631697 176.780391 
L 226.248614 177.725988 
L 231.673991 179.134012 
L 234.567526 179.637943 
L 237.099368 179.828673 
L 239.631211 179.763883 
L 241.801361 179.498226 
L 244.333204 178.95533 
L 247.58843 177.9965 
L 247.58843 177.9965 
" clip-path="url(#p0f0a643469)" style="fill: none; stroke: #2ca02c; stroke-width: 1.5; stroke-linecap: square"/>
   </g>
   <g id="line2d_57">
    <path d="M 155.357025 200.637164 
L 160.059018 200.631782 
L 162.59086 200.405587 
L 164.037628 200.096174 
L 165.484395 199.540317 
L 166.56947 198.866575 
L 167.654545 197.86263 
L 168.377929 196.943916 
L 169.101313 195.768919 
L 169.824696 194.282259 
L 170.54808 192.426281 
L 171.633155 188.837674 
L 172.71823 184.206501 
L 174.164998 176.652934 
L 175.973456 166.910803 
L 176.69684 163.785082 
L 177.420224 161.487426 
L 178.143607 160.150934 
L 178.505299 159.847858 
L 178.866991 159.774227 
L 179.228683 159.910967 
L 179.590374 160.234024 
L 180.313758 161.32863 
L 181.398833 163.67056 
L 183.930676 169.510956 
L 185.015751 171.532454 
L 186.100826 173.194758 
L 187.185902 174.54388 
L 188.632669 175.957356 
L 190.079436 177.042349 
L 191.887895 178.068553 
L 193.696354 178.822036 
L 195.504813 179.354485 
L 197.313272 179.687428 
L 199.121731 179.827492 
L 200.93019 179.776722 
L 203.10034 179.472103 
L 205.270491 178.930739 
L 208.164025 177.957174 
L 212.142635 176.602824 
L 214.312786 176.10672 
L 216.121245 175.910748 
L 217.929703 175.929444 
L 220.099854 176.212614 
L 222.631697 176.817804 
L 226.610306 178.06007 
L 230.588916 179.247178 
L 233.120758 179.8035 
L 235.290909 180.087442 
L 237.46106 180.15228 
L 239.631211 179.971374 
L 241.801361 179.538918 
L 243.971512 178.882172 
L 247.58843 177.502267 
L 247.58843 177.502267 
" clip-path="url(#p0f0a643469)" style="fill: none; stroke-dasharray: 5.55,2.4; stroke-dashoffset: 0; stroke: #2ca02c; stroke-width: 1.5"/>
   </g>
   <g id="patch_22">
    <path d="M 150.745455 228.96 
L 150.745455 128.16 
" style="fill: none; stroke: #000000; stroke-width: 0.8; stroke-linejoin: miter; stroke-linecap: square"/>
   </g>
   <g id="patch_23">
    <path d="M 252.2 228.96 
L 252.2 128.16 
" style="fill: none; stroke: #000000; stroke-width: 0.8; stroke-linejoin: miter; stroke-linecap: square"/>
   </g>
   <g id="patch_24">
    <path d="M 150.745455 228.96 
L 252.2 228.96 
" style="fill: none; stroke: #000000; stroke-width: 0.8; stroke-linejoin: miter; stroke-linecap: square"/>
   </g>
   <g id="patch_25">
    <path d="M 150.745455 128.16 
L 252.2 128.16 
" style="fill: none; stroke: #000000; stroke-width: 0.8; stroke-linejoin: miter; stroke-linecap: square"/>
   </g>
   <g id="text_22">
    <g id="patch_26">
     <path d="M 181.111555 147.326172 
L 221.833899 147.326172 
L 221.833899 129.153828 
L 181.111555 129.153828 
z
" style="fill: #ffffff; opacity: 0.5; stroke: #000000; stroke-linejoin: miter"/>
    </g>
    <!-- Fourier -->
    <g transform="translate(185.071555 140.791484) scale(0.11 -0.11)">
     <use xlink:href="#LibertinusSerif-Regular-46"/>
     <use xlink:href="#LibertinusSerif-Regular-6f" transform="translate(48.499985 0)"/>
     <use xlink:href="#LibertinusSerif-Regular-75" transform="translate(98.899979 0)"/>
     <use xlink:href="#LibertinusSerif-Regular-72" transform="translate(151.999969 0)"/>
     <use xlink:href="#LibertinusSerif-Regular-69" transform="translate(189.199966 0)"/>
     <use xlink:href="#LibertinusSerif-Regular-65" transform="translate(216.299957 0)"/>
     <use xlink:href="#LibertinusSerif-Regular-72" transform="translate(260.999954 0)"/>
    </g>
   </g>
  </g>
 </g>
 <defs>
  <clipPath id="p07e29380ce">
   <rect x="29" y="7.2" width="101.454545" height="100.8"/>
  </clipPath>
  <clipPath id="p0874f66208">
   <rect x="150.745455" y="7.2" width="101.454545" height="100.8"/>
  </clipPath>
  <clipPath id="pd5b460b289">
   <rect x="29" y="128.16" width="101.454545" height="100.8"/>
  </clipPath>
  <clipPath id="p0f0a643469">
   <rect x="150.745455" y="128.16" width="101.454545" height="100.8"/>
  </clipPath>
 </defs>
</svg>
