<?xml version="1.0" encoding="utf-8" standalone="no"?>
<!DOCTYPE svg PUBLIC "-//W3C//DTD SVG 1.1//EN"
  "http://www.w3.org/Graphics/SVG/1.1/DTD/svg11.dtd">
<svg xmlns:xlink="http://www.w3.org/1999/xlink" width="253.9pt" height="252.480312pt" viewBox="0 0 253.9 252.480312" xmlns="http://www.w3.org/2000/svg" version="1.1">
 <metadata>
  <rdf:RDF xmlns:dc="http://purl.org/dc/elements/1.1/" xmlns:cc="http://creativecommons.org/ns#" xmlns:rdf="http://www.w3.org/1999/02/22-rdf-syntax-ns#">
   <cc:Work>
    <dc:type rdf:resource="http://purl.org/dc/dcmitype/StillImage"/>
    <dc:date>2025-05-27T22:14:49.743573</dc:date>
    <dc:format>image/svg+xml</dc:format>
    <dc:creator>
     <cc:Agent>
      <dc:title>Matplotlib v3.10.3, https://matplotlib.org/</dc:title>
     </cc:Agent>
    </dc:creator>
   </cc:Work>
  </rdf:RDF>
 </metadata>
 <defs>
  <style type="text/css">*{stroke-linejoin: round; stroke-linecap: butt}</style>
 </defs>
 <g id="figure_1">
  <g id="patch_1">
   <path d="M 0 252.480312 
L 253.9 252.480312 
L 253.9 0 
L 0 0 
z
" style="fill: #ffffff"/>
  </g>
  <g id="axes_1">
   <g id="patch_2">
    <path d="M 23.5 108 
L 124.954545 108 
L 124.954545 7.2 
L 23.5 7.2 
z
" style="fill: #ffffff"/>
   </g>
   <g id="matplotlib.axis_1">
    <g id="xtick_1">
     <g id="line2d_1">
      <defs>
       <path id="m86948424a0" d="M 0 0 
L 0 3.5 
" style="stroke: #000000; stroke-width: 0.8"/>
      </defs>
      <g>
       <use xlink:href="#m86948424a0" x="28.11157" y="108" style="stroke: #000000; stroke-width: 0.8"/>
      </g>
     </g>
    </g>
    <g id="xtick_2">
     <g id="line2d_2">
      <g>
       <use xlink:href="#m86948424a0" x="65.004132" y="108" style="stroke: #000000; stroke-width: 0.8"/>
      </g>
     </g>
    </g>
    <g id="xtick_3">
     <g id="line2d_3">
      <g>
       <use xlink:href="#m86948424a0" x="101.896694" y="108" style="stroke: #000000; stroke-width: 0.8"/>
      </g>
     </g>
    </g>
   </g>
   <g id="matplotlib.axis_2">
    <g id="ytick_1">
     <g id="line2d_4">
      <defs>
       <path id="m8877c154b7" d="M 0 0 
L -3.5 0 
" style="stroke: #000000; stroke-width: 0.8"/>
      </defs>
      <g>
       <use xlink:href="#m8877c154b7" x="23.5" y="89.074738" style="stroke: #000000; stroke-width: 0.8"/>
      </g>
     </g>
     <g id="text_1">
      <!-- 0 -->
      <g transform="translate(11.85 92.564582) scale(0.1 -0.1)">
       <defs>
        <path id="LibertinusSerif-Regular-30" d="M 1485 3680 
C 1594 3680 1696 3642 1773 3571 
C 1971 3405 2144 2918 2144 2061 
C 2144 1472 2125 1069 2035 742 
C 1894 218 1581 160 1466 160 
C 870 160 806 1254 806 1811 
C 806 3386 1197 3680 1485 3680 
z
M 1459 -64 
C 1952 -64 2701 435 2701 1939 
C 2701 2573 2547 3117 2266 3488 
C 2093 3706 1830 3904 1485 3904 
C 851 3904 250 3149 250 1882 
C 250 1197 454 550 806 205 
C 992 19 1210 -64 1459 -64 
z
" transform="scale(0.015625)"/>
       </defs>
       <use xlink:href="#LibertinusSerif-Regular-30"/>
      </g>
     </g>
    </g>
    <g id="ytick_2">
     <g id="line2d_5">
      <g>
       <use xlink:href="#m8877c154b7" x="23.5" y="56.75994" style="stroke: #000000; stroke-width: 0.8"/>
      </g>
     </g>
     <g id="text_2">
      <!-- 20 -->
      <g transform="translate(7.2 60.249783) scale(0.1 -0.1)">
       <defs>
        <path id="LibertinusSerif-Regular-32" d="M 390 2995 
C 390 2861 512 2746 646 2746 
C 755 2746 947 2854 947 3002 
C 947 3053 934 3091 922 3136 
C 909 3181 870 3238 870 3290 
C 870 3450 1037 3680 1504 3680 
C 1734 3680 2061 3520 2061 2906 
C 2061 2496 1914 2163 1536 1779 
L 1062 1312 
C 435 672 333 365 333 -13 
C 333 -13 659 0 864 0 
L 1984 0 
C 2189 0 2483 -13 2483 -13 
C 2566 326 2630 806 2637 998 
C 2598 1030 2515 1043 2451 1030 
C 2342 576 2234 416 2003 416 
L 864 416 
C 864 723 1306 1158 1338 1190 
L 1984 1811 
C 2349 2163 2624 2445 2624 2931 
C 2624 3622 2061 3904 1542 3904 
C 832 3904 390 3379 390 2995 
z
" transform="scale(0.015625)"/>
       </defs>
       <use xlink:href="#LibertinusSerif-Regular-32"/>
       <use xlink:href="#LibertinusSerif-Regular-30" transform="translate(46.499985 0)"/>
      </g>
     </g>
    </g>
    <g id="ytick_3">
     <g id="line2d_6">
      <g>
       <use xlink:href="#m8877c154b7" x="23.5" y="24.445141" style="stroke: #000000; stroke-width: 0.8"/>
      </g>
     </g>
     <g id="text_3">
      <!-- 40 -->
      <g transform="translate(7.2 27.934985) scale(0.1 -0.1)">
       <defs>
        <path id="LibertinusSerif-Regular-34" d="M 1734 3245 
L 1734 1402 
L 512 1402 
C 838 1926 1293 2637 1734 3245 
z
M 2752 1402 
L 2221 1402 
L 2221 3270 
C 2221 3590 2221 3840 2234 3891 
L 2221 3904 
L 2016 3904 
C 1971 3904 1933 3859 1914 3834 
C 1510 3334 762 2285 179 1370 
C 198 1274 237 1101 429 1101 
L 1734 1101 
L 1734 512 
C 1734 218 1491 218 1216 198 
C 1178 160 1178 26 1216 -13 
C 1421 -6 1677 0 1971 0 
C 2221 0 2464 -6 2669 -13 
C 2707 26 2707 160 2669 198 
C 2355 224 2221 211 2221 512 
L 2221 1101 
L 2662 1101 
C 2752 1101 2848 1222 2848 1299 
C 2848 1363 2822 1402 2752 1402 
z
" transform="scale(0.015625)"/>
       </defs>
       <use xlink:href="#LibertinusSerif-Regular-34"/>
       <use xlink:href="#LibertinusSerif-Regular-30" transform="translate(46.499985 0)"/>
      </g>
     </g>
    </g>
   </g>
   <g id="line2d_7">
    <path d="M 28.11157 87.458998 
L 32.09018 88.114051 
L 36.068789 88.530095 
L 41.132474 88.823513 
L 48.728002 89.002214 
L 61.387214 89.041641 
L 80.918571 88.902093 
L 95.02455 88.622918 
L 105.15192 88.230276 
L 112.024064 87.73596 
L 118.896208 87.009824 
L 120.342975 86.831567 
L 120.342975 86.831567 
" clip-path="url(#p57a79bf20e)" style="fill: none; stroke: #1f77b4; stroke-width: 1.5; stroke-linecap: square"/>
   </g>
   <g id="line2d_8">
    <path d="M 28.11157 87.458998 
L 32.451872 87.35081 
L 37.153865 87.011843 
L 41.855858 86.447173 
L 46.196159 85.701361 
L 50.174769 84.78996 
L 53.791687 83.730535 
L 57.046913 82.549915 
L 59.940447 81.287258 
L 62.833982 79.793331 
L 65.727516 78.039445 
L 68.62105 76.002247 
L 71.514584 73.671467 
L 74.408119 71.061914 
L 78.386728 67.132776 
L 83.450413 62.116418 
L 85.620564 60.258456 
L 87.429023 58.987813 
L 88.87579 58.212797 
L 90.322557 57.694625 
L 91.769324 57.465207 
L 92.8544 57.49642 
L 93.939475 57.70778 
L 95.02455 58.100127 
L 96.471317 58.898282 
L 97.918085 59.992288 
L 99.364852 61.35151 
L 101.173311 63.36307 
L 103.343461 66.118269 
L 106.960379 71.135423 
L 111.662372 77.591574 
L 114.555907 81.186324 
L 117.087749 84.001066 
L 119.619592 86.487849 
L 120.342975 87.138639 
L 120.342975 87.138639 
" clip-path="url(#p57a79bf20e)" style="fill: none; stroke-dasharray: 5.55,2.4; stroke-dashoffset: 0; stroke: #1f77b4; stroke-width: 1.5"/>
   </g>
   <g id="line2d_9">
    <path d="M 28.11157 87.458998 
L 32.09018 87.355403 
L 37.153865 87.502754 
L 62.47229 88.499169 
L 73.323043 88.590202 
L 83.812105 88.464943 
L 92.8544 88.142612 
L 100.088235 87.674389 
L 105.875304 87.095604 
L 110.577297 86.426031 
L 114.917598 85.582778 
L 118.896208 84.578562 
L 120.342975 84.160719 
L 120.342975 84.160719 
" clip-path="url(#p57a79bf20e)" style="fill: none; stroke: #ff7f0e; stroke-width: 1.5; stroke-linecap: square"/>
   </g>
   <g id="line2d_10">
    <path d="M 28.11157 87.458998 
L 36.068789 85.546365 
L 40.409091 84.25708 
L 44.026009 82.94182 
L 47.281235 81.507941 
L 50.174769 79.986488 
L 52.706612 78.428815 
L 55.238454 76.627529 
L 57.770297 74.551701 
L 60.302139 72.172936 
L 62.833982 69.469835 
L 65.365824 66.435227 
L 68.259358 62.586091 
L 71.876276 57.355357 
L 76.216578 51.093229 
L 78.025036 48.807466 
L 79.471804 47.265989 
L 80.918571 46.079823 
L 82.003646 45.482319 
L 83.088721 45.181053 
L 83.812105 45.16412 
L 84.535489 45.306625 
L 85.258872 45.617735 
L 85.982256 46.105005 
L 87.067331 47.177869 
L 88.152406 48.668294 
L 89.237482 50.57201 
L 90.322557 52.870113 
L 91.769324 56.487209 
L 93.577783 61.723956 
L 96.471317 71.014852 
L 99.726544 81.293724 
L 101.535002 86.34545 
L 103.343461 90.707613 
L 104.790228 93.654537 
L 106.236996 96.11928 
L 107.683763 98.127363 
L 109.13053 99.719986 
L 110.577297 100.947079 
L 112.024064 101.861697 
L 113.470831 102.515929 
L 114.917598 102.958237 
L 116.726057 103.278569 
L 118.896208 103.415066 
L 120.342975 103.401822 
L 120.342975 103.401822 
" clip-path="url(#p57a79bf20e)" style="fill: none; stroke-dasharray: 5.55,2.4; stroke-dashoffset: 0; stroke: #ff7f0e; stroke-width: 1.5"/>
   </g>
   <g id="line2d_11">
    <path d="M 28.11157 87.458998 
L 47.281235 87.783301 
L 79.110112 88.25172 
L 108.045455 88.474878 
L 119.2579 88.376751 
L 120.342975 88.351818 
L 120.342975 88.351818 
" clip-path="url(#p57a79bf20e)" style="fill: none; stroke: #2ca02c; stroke-width: 1.5; stroke-linecap: square"/>
   </g>
   <g id="line2d_12">
    <path d="M 28.11157 87.458998 
L 38.962324 87.505572 
L 45.472776 87.332038 
L 50.174769 86.994689 
L 53.791687 86.519086 
L 56.685221 85.928208 
L 59.217064 85.192664 
L 61.387214 84.344776 
L 63.557365 83.237084 
L 65.365824 82.065961 
L 67.174283 80.61919 
L 68.982742 78.843015 
L 70.791201 76.678364 
L 72.237968 74.625309 
L 73.684735 72.252639 
L 75.493194 68.794216 
L 77.301653 64.749472 
L 79.110112 60.101241 
L 80.918571 54.87179 
L 83.088721 47.941319 
L 90.684249 22.923022 
L 92.131016 19.209826 
L 93.577783 16.182458 
L 94.662859 14.415407 
L 95.747934 13.101718 
L 96.833009 12.243452 
L 97.556393 11.91818 
L 98.279776 11.782018 
L 99.00316 11.824984 
L 99.726544 12.035058 
L 100.811619 12.63335 
L 101.896694 13.526225 
L 103.343461 15.083087 
L 105.15192 17.444399 
L 108.045455 21.684729 
L 112.024064 27.443987 
L 114.555907 30.705252 
L 116.726057 33.175627 
L 118.896208 35.345907 
L 120.342975 36.636319 
L 120.342975 36.636319 
" clip-path="url(#p57a79bf20e)" style="fill: none; stroke-dasharray: 5.55,2.4; stroke-dashoffset: 0; stroke: #2ca02c; stroke-width: 1.5"/>
   </g>
   <g id="patch_3">
    <path d="M 23.5 108 
L 23.5 7.2 
" style="fill: none; stroke: #000000; stroke-width: 0.8; stroke-linejoin: miter; stroke-linecap: square"/>
   </g>
   <g id="patch_4">
    <path d="M 124.954545 108 
L 124.954545 7.2 
" style="fill: none; stroke: #000000; stroke-width: 0.8; stroke-linejoin: miter; stroke-linecap: square"/>
   </g>
   <g id="patch_5">
    <path d="M 23.5 108 
L 124.954545 108 
" style="fill: none; stroke: #000000; stroke-width: 0.8; stroke-linejoin: miter; stroke-linecap: square"/>
   </g>
   <g id="patch_6">
    <path d="M 23.5 7.2 
L 124.954545 7.2 
" style="fill: none; stroke: #000000; stroke-width: 0.8; stroke-linejoin: miter; stroke-linecap: square"/>
   </g>
   <g id="text_4">
    <g id="patch_7">
     <path d="M 53.024773 26.366172 
L 95.429773 26.366172 
L 95.429773 8.193828 
L 53.024773 8.193828 
z
" style="fill: #ffffff; opacity: 0.5; stroke: #000000; stroke-linejoin: miter"/>
    </g>
    <!-- MLP 5k -->
    <g transform="translate(56.984773 19.831484) scale(0.11 -0.11)">
     <defs>
      <path id="LibertinusSerif-Regular-4d" d="M 4237 742 
C 4269 224 4250 218 3834 198 
C 3795 160 3795 26 3834 -13 
C 4070 -6 4326 0 4518 0 
C 4710 0 4998 -6 5216 -13 
C 5254 26 5254 160 5216 198 
C 4781 218 4755 243 4723 774 
L 4531 3469 
C 4506 3814 4538 3904 4973 3930 
C 5011 3968 5011 4102 4973 4141 
L 4134 4128 
L 2778 883 
C 2752 819 2733 794 2720 794 
C 2707 794 2688 826 2669 877 
L 1357 4128 
L 429 4141 
C 390 4102 390 3968 429 3930 
C 870 3904 909 3891 864 3411 
L 602 774 
C 570 390 493 230 128 198 
C 90 160 90 26 128 -13 
C 320 -6 525 0 678 0 
C 832 0 1088 -6 1280 -13 
C 1318 26 1318 160 1280 198 
C 858 230 819 422 858 787 
L 1101 3354 
L 1114 3354 
L 2438 32 
C 2451 -19 2496 -64 2534 -64 
C 2573 -64 2598 -19 2624 32 
L 4064 3418 
L 4077 3418 
L 4237 742 
z
" transform="scale(0.015625)"/>
      <path id="LibertinusSerif-Regular-4c" d="M 954 0 
L 2310 0 
C 2490 0 3078 -13 3078 -13 
C 3142 307 3206 723 3245 1056 
C 3181 1082 3110 1094 3034 1088 
C 2906 627 2669 250 1990 250 
L 1587 250 
C 1338 250 1222 371 1222 698 
L 1222 3347 
C 1222 3878 1331 3910 1779 3930 
C 1818 3968 1818 4102 1779 4141 
C 1491 4134 1190 4128 947 4128 
C 710 4128 416 4134 122 4141 
C 83 4102 83 3968 122 3930 
C 570 3910 678 3878 678 3347 
L 678 781 
C 678 250 570 218 122 198 
C 83 160 83 26 122 -13 
C 371 -6 736 0 954 0 
z
" transform="scale(0.015625)"/>
      <path id="LibertinusSerif-Regular-50" d="M 1210 3546 
C 1210 3731 1306 3955 1766 3955 
C 2208 3955 2650 3808 2650 2995 
C 2650 2304 2317 2022 1696 2022 
C 1536 2022 1280 2035 1210 2054 
L 1210 3546 
z
M 666 3347 
L 666 781 
C 666 250 557 218 109 198 
C 70 160 70 26 109 -13 
C 397 -6 710 0 941 0 
C 1165 0 1542 -6 1862 -13 
C 1901 26 1901 160 1862 198 
C 1363 224 1210 250 1210 781 
L 1210 1869 
C 1350 1824 1504 1805 1728 1805 
C 2893 1805 3245 2566 3245 3110 
C 3245 3488 2995 4173 1811 4173 
C 1562 4173 1190 4128 934 4128 
C 698 4128 365 4134 109 4141 
C 70 4102 70 3968 109 3930 
C 557 3910 666 3878 666 3347 
z
" transform="scale(0.015625)"/>
      <path id="LibertinusSerif-Regular-20" transform="scale(0.015625)"/>
      <path id="LibertinusSerif-Regular-35" d="M 2042 1210 
C 2042 602 1722 154 1338 154 
C 1094 154 1011 314 915 442 
C 832 550 723 646 589 646 
C 467 646 346 538 346 410 
C 346 147 890 -70 1254 -70 
C 2048 -70 2611 518 2611 1325 
C 2611 1946 2182 2502 1466 2502 
C 1190 2502 954 2445 838 2400 
L 966 3469 
C 1203 3443 1408 3411 1715 3411 
C 1907 3411 2125 3424 2387 3450 
L 2490 3885 
L 2445 3910 
C 2080 3872 1734 3840 1395 3840 
C 1158 3840 928 3853 704 3872 
L 486 2029 
C 826 2157 1069 2182 1299 2182 
C 1715 2182 2042 1907 2042 1210 
z
" transform="scale(0.015625)"/>
      <path id="LibertinusSerif-Regular-6b" d="M 550 781 
C 550 250 480 224 122 198 
C 83 160 83 26 122 -13 
C 333 -6 550 0 806 0 
C 1030 0 1242 -6 1389 -13 
C 1427 26 1427 160 1389 198 
C 1126 224 1056 250 1056 781 
L 1056 1331 
C 1178 1331 1267 1318 1331 1299 
C 1402 1254 1459 1197 1536 1094 
L 2003 467 
C 2189 211 2259 90 2272 19 
C 2272 0 2278 -13 2298 -13 
C 2426 -6 2566 0 2694 0 
C 2893 0 3091 -6 3219 -13 
C 3258 26 3258 160 3219 198 
C 3002 224 2835 250 2669 467 
L 1824 1530 
C 1798 1555 1779 1587 1779 1619 
C 1779 1645 1779 1658 1805 1683 
L 2368 2266 
C 2560 2470 2784 2522 3040 2547 
C 3078 2586 3078 2720 3040 2758 
C 2893 2752 2714 2746 2483 2746 
C 2240 2746 2003 2752 1856 2758 
C 1818 2720 1818 2586 1856 2547 
C 2214 2522 2061 2291 2003 2221 
C 1856 2035 1651 1818 1491 1696 
C 1344 1587 1171 1510 1056 1498 
L 1056 3731 
C 1056 4147 1082 4403 1082 4403 
C 1082 4448 1056 4467 998 4467 
C 838 4403 358 4314 102 4294 
C 90 4243 102 4141 141 4102 
C 474 4083 550 4115 550 3578 
L 550 781 
z
" transform="scale(0.015625)"/>
     </defs>
     <use xlink:href="#LibertinusSerif-Regular-4d"/>
     <use xlink:href="#LibertinusSerif-Regular-4c" transform="translate(83.899994 0)"/>
     <use xlink:href="#LibertinusSerif-Regular-50" transform="translate(136.699982 0)"/>
     <use xlink:href="#LibertinusSerif-Regular-20" transform="translate(190.799973 0)"/>
     <use xlink:href="#LibertinusSerif-Regular-35" transform="translate(215.799957 0)"/>
     <use xlink:href="#LibertinusSerif-Regular-6b" transform="translate(262.299942 0)"/>
    </g>
   </g>
   <g id="legend_1">
    <g id="patch_8">
     <path d="M 30.5 80.610937 
L 69.1 80.610937 
Q 71.1 80.610937 71.1 78.610937 
L 71.1 36.589062 
Q 71.1 34.589062 69.1 34.589062 
L 30.5 34.589062 
Q 28.5 34.589062 28.5 36.589062 
L 28.5 78.610937 
Q 28.5 80.610937 30.5 80.610937 
z
" style="fill: #ffffff; opacity: 0.8; stroke: #cccccc; stroke-linejoin: miter"/>
    </g>
    <g id="line2d_13">
     <path d="M 32.5 42.089062 
L 42.5 42.089062 
L 52.5 42.089062 
" style="fill: none; stroke: #1f77b4; stroke-width: 1.5; stroke-linecap: square"/>
    </g>
    <g id="text_5">
     <!-- X -->
     <g transform="translate(60.5 45.589062) scale(0.1 -0.1)">
      <defs>
       <path id="LibertinusSerif-Regular-58" d="M 3443 653 
L 2464 1997 
C 2400 2080 2362 2144 2362 2208 
C 2362 2266 2362 2323 2426 2400 
L 3302 3533 
C 3520 3814 3725 3898 4013 3930 
C 4051 3968 4051 4102 4013 4141 
C 3821 4134 3584 4128 3437 4128 
C 3290 4128 3021 4134 2765 4141 
C 2726 4102 2726 3968 2765 3930 
C 3046 3910 3162 3872 3014 3661 
L 2227 2541 
C 2189 2483 2150 2464 2125 2464 
C 2106 2464 2074 2490 2048 2534 
L 1338 3578 
C 1158 3834 1133 3910 1491 3930 
C 1530 3968 1530 4102 1491 4141 
C 1254 4134 1018 4128 762 4128 
C 512 4128 301 4134 109 4141 
C 70 4102 77 3968 115 3930 
C 384 3910 499 3872 762 3501 
L 1677 2202 
C 1728 2125 1766 2074 1766 2010 
C 1766 1971 1734 1907 1702 1862 
L 755 595 
C 531 301 326 224 45 198 
C 6 160 6 26 45 -13 
C 237 -6 474 0 621 0 
C 768 0 1037 -6 1293 -13 
C 1331 26 1331 160 1293 198 
C 1005 218 883 250 1043 467 
L 1888 1651 
C 1920 1702 1965 1741 1984 1741 
C 2010 1741 2035 1722 2074 1670 
L 2861 544 
C 3040 282 3072 218 2714 198 
C 2675 160 2675 26 2714 -13 
C 2950 -6 3187 0 3443 0 
C 3693 0 3904 -6 4096 -13 
C 4134 26 4128 160 4090 198 
C 3821 218 3712 275 3443 653 
z
" transform="scale(0.015625)"/>
      </defs>
      <use xlink:href="#LibertinusSerif-Regular-58"/>
     </g>
    </g>
    <g id="line2d_14">
     <path d="M 32.5 56.429687 
L 42.5 56.429687 
L 52.5 56.429687 
" style="fill: none; stroke: #ff7f0e; stroke-width: 1.5; stroke-linecap: square"/>
    </g>
    <g id="text_6">
     <!-- Y -->
     <g transform="translate(60.5 59.929687) scale(0.1 -0.1)">
      <defs>
       <path id="LibertinusSerif-Regular-59" d="M 2157 781 
L 2157 1645 
C 2157 1837 2163 1946 2266 2138 
L 3034 3520 
C 3213 3840 3354 3898 3642 3930 
C 3680 3968 3680 4102 3642 4141 
C 3462 4134 3258 4128 3110 4128 
C 2963 4128 2733 4134 2528 4141 
C 2490 4102 2490 3968 2528 3930 
C 2810 3910 2912 3846 2771 3590 
L 2067 2253 
C 2016 2150 1984 2163 1926 2266 
L 1184 3571 
C 1030 3846 1056 3910 1414 3930 
C 1453 3968 1453 4102 1414 4141 
C 1184 4134 941 4128 685 4128 
C 435 4128 224 4134 32 4141 
C -6 4102 0 3968 38 3930 
C 307 3910 416 3872 634 3501 
L 1478 2086 
C 1587 1894 1613 1830 1613 1594 
L 1613 781 
C 1613 250 1504 218 992 198 
C 954 160 954 26 992 -13 
C 1306 -6 1638 0 1888 0 
C 2131 0 2458 -6 2778 -13 
C 2816 26 2816 160 2778 198 
C 2266 218 2157 250 2157 781 
z
" transform="scale(0.015625)"/>
      </defs>
      <use xlink:href="#LibertinusSerif-Regular-59"/>
     </g>
    </g>
    <g id="line2d_15">
     <path d="M 32.5 70.770312 
L 42.5 70.770312 
L 52.5 70.770312 
" style="fill: none; stroke: #2ca02c; stroke-width: 1.5; stroke-linecap: square"/>
    </g>
    <g id="text_7">
     <!-- Z -->
     <g transform="translate(60.5 74.270312) scale(0.1 -0.1)">
      <defs>
       <path id="LibertinusSerif-Regular-5a" d="M 3526 -13 
C 3558 346 3622 723 3699 1056 
C 3654 1069 3584 1088 3501 1088 
C 3302 634 3142 282 2445 269 
L 1210 243 
C 1101 237 1050 275 1050 333 
C 1050 365 1069 403 1101 461 
C 1568 1139 2746 2810 3501 3782 
C 3635 3955 3654 4000 3654 4070 
C 3654 4115 3622 4141 3571 4141 
C 3494 4141 3296 4128 3104 4128 
L 1690 4128 
C 1389 4128 768 4160 531 4179 
C 506 3834 442 3469 390 3206 
C 454 3187 512 3174 582 3174 
C 717 3616 960 3840 1440 3853 
L 2790 3878 
C 2822 3878 2854 3859 2854 3821 
C 2854 3789 2835 3750 2803 3706 
C 2182 2918 966 1216 314 243 
C 275 192 262 141 262 96 
C 262 32 294 0 384 0 
L 2714 0 
C 2886 0 3526 -13 3526 -13 
z
" transform="scale(0.015625)"/>
      </defs>
      <use xlink:href="#LibertinusSerif-Regular-5a"/>
     </g>
    </g>
   </g>
  </g>
  <g id="axes_2">
   <g id="patch_9">
    <path d="M 145.245455 108 
L 246.7 108 
L 246.7 7.2 
L 145.245455 7.2 
z
" style="fill: #ffffff"/>
   </g>
   <g id="matplotlib.axis_3">
    <g id="xtick_4">
     <g id="line2d_16">
      <g>
       <use xlink:href="#m86948424a0" x="149.857025" y="108" style="stroke: #000000; stroke-width: 0.8"/>
      </g>
     </g>
    </g>
    <g id="xtick_5">
     <g id="line2d_17">
      <g>
       <use xlink:href="#m86948424a0" x="186.749587" y="108" style="stroke: #000000; stroke-width: 0.8"/>
      </g>
     </g>
    </g>
    <g id="xtick_6">
     <g id="line2d_18">
      <g>
       <use xlink:href="#m86948424a0" x="223.642149" y="108" style="stroke: #000000; stroke-width: 0.8"/>
      </g>
     </g>
    </g>
   </g>
   <g id="matplotlib.axis_4">
    <g id="ytick_4">
     <g id="line2d_19">
      <g>
       <use xlink:href="#m8877c154b7" x="145.245455" y="89.074738" style="stroke: #000000; stroke-width: 0.8"/>
      </g>
     </g>
    </g>
    <g id="ytick_5">
     <g id="line2d_20">
      <g>
       <use xlink:href="#m8877c154b7" x="145.245455" y="56.75994" style="stroke: #000000; stroke-width: 0.8"/>
      </g>
     </g>
    </g>
    <g id="ytick_6">
     <g id="line2d_21">
      <g>
       <use xlink:href="#m8877c154b7" x="145.245455" y="24.445141" style="stroke: #000000; stroke-width: 0.8"/>
      </g>
     </g>
    </g>
   </g>
   <g id="line2d_22">
    <path d="M 149.857025 87.458998 
L 154.559018 88.137701 
L 158.537628 88.453958 
L 163.963004 88.644841 
L 171.19684 88.653327 
L 179.877443 88.432296 
L 187.834662 88.017591 
L 194.345114 87.473701 
L 199.770491 86.814364 
L 204.472484 86.029136 
L 208.451094 85.158754 
L 212.068012 84.157989 
L 215.323238 83.046827 
L 218.578464 81.695467 
L 221.471998 80.258061 
L 224.365532 78.56654 
L 227.259067 76.590507 
L 230.152601 74.32143 
L 233.046135 71.769428 
L 236.663053 68.234387 
L 242.08843 62.740379 
L 242.08843 62.740379 
" clip-path="url(#p17bdcdfaf2)" style="fill: none; stroke: #1f77b4; stroke-width: 1.5; stroke-linecap: square"/>
   </g>
   <g id="line2d_23">
    <path d="M 149.857025 87.458998 
L 154.197326 87.35081 
L 158.899319 87.011843 
L 163.601313 86.447173 
L 167.941614 85.701361 
L 171.920224 84.78996 
L 175.537141 83.730535 
L 178.792368 82.549915 
L 181.685902 81.287258 
L 184.579436 79.793331 
L 187.47297 78.039445 
L 190.366505 76.002247 
L 193.260039 73.671467 
L 196.153573 71.061914 
L 200.132183 67.132776 
L 205.195868 62.116418 
L 207.366018 60.258456 
L 209.174477 58.987813 
L 210.621245 58.212797 
L 212.068012 57.694625 
L 213.514779 57.465207 
L 214.599854 57.49642 
L 215.68493 57.70778 
L 216.770005 58.100127 
L 218.216772 58.898282 
L 219.663539 59.992288 
L 221.110306 61.35151 
L 222.918765 63.36307 
L 225.088916 66.118269 
L 228.705834 71.135423 
L 233.407827 77.591574 
L 236.301361 81.186324 
L 238.833204 84.001066 
L 241.365046 86.487849 
L 242.08843 87.138639 
L 242.08843 87.138639 
" clip-path="url(#p17bdcdfaf2)" style="fill: none; stroke-dasharray: 5.55,2.4; stroke-dashoffset: 0; stroke: #1f77b4; stroke-width: 1.5"/>
   </g>
   <g id="line2d_24">
    <path d="M 149.857025 87.458998 
L 152.027175 87.3367 
L 156.729169 87.292198 
L 175.17545 87.348576 
L 181.32421 87.048225 
L 186.387895 86.591632 
L 191.089888 85.94968 
L 195.068498 85.196277 
L 198.685416 84.303718 
L 201.940642 83.293917 
L 205.195868 82.046739 
L 208.089402 80.701232 
L 210.982936 79.089654 
L 213.514779 77.424726 
L 216.046621 75.489873 
L 218.578464 73.254837 
L 221.110306 70.694857 
L 223.642149 67.796537 
L 226.173991 64.562125 
L 229.067526 60.510715 
L 237.024745 49.094701 
L 238.833204 47.086894 
L 239.918279 46.139204 
L 241.003354 45.434065 
L 242.08843 45.013963 
L 242.08843 45.013963 
" clip-path="url(#p17bdcdfaf2)" style="fill: none; stroke: #ff7f0e; stroke-width: 1.5; stroke-linecap: square"/>
   </g>
   <g id="line2d_25">
    <path d="M 149.857025 87.458998 
L 157.814244 85.546365 
L 162.154545 84.25708 
L 165.771463 82.94182 
L 169.026689 81.507941 
L 171.920224 79.986488 
L 174.452066 78.428815 
L 176.983909 76.627529 
L 179.515751 74.551701 
L 182.047594 72.172936 
L 184.579436 69.469835 
L 187.111279 66.435227 
L 190.004813 62.586091 
L 193.621731 57.355357 
L 197.962032 51.093229 
L 199.770491 48.807466 
L 201.217258 47.265989 
L 202.664025 46.079823 
L 203.749101 45.482319 
L 204.834176 45.181053 
L 205.55756 45.16412 
L 206.280943 45.306625 
L 207.004327 45.617735 
L 207.72771 46.105005 
L 208.812786 47.177869 
L 209.897861 48.668294 
L 210.982936 50.57201 
L 212.068012 52.870113 
L 213.514779 56.487209 
L 215.323238 61.723956 
L 218.216772 71.014852 
L 221.471998 81.293724 
L 223.280457 86.34545 
L 225.088916 90.707613 
L 226.535683 93.654537 
L 227.98245 96.11928 
L 229.429217 98.127363 
L 230.875984 99.719986 
L 232.322752 100.947079 
L 233.769519 101.861697 
L 235.216286 102.515929 
L 236.663053 102.958237 
L 238.471512 103.278569 
L 240.641663 103.415066 
L 242.08843 103.401822 
L 242.08843 103.401822 
" clip-path="url(#p17bdcdfaf2)" style="fill: none; stroke-dasharray: 5.55,2.4; stroke-dashoffset: 0; stroke: #ff7f0e; stroke-width: 1.5"/>
   </g>
   <g id="line2d_26">
    <path d="M 149.857025 87.458998 
L 159.622703 87.601832 
L 189.281429 87.989527 
L 199.770491 87.920046 
L 205.919251 87.685968 
L 210.259553 87.322014 
L 213.514779 86.857356 
L 216.408313 86.231009 
L 218.940156 85.455602 
L 221.110306 84.565984 
L 222.918765 83.620589 
L 224.727224 82.446119 
L 226.535683 80.996941 
L 228.344142 79.219729 
L 230.152601 77.053925 
L 231.599368 74.999478 
L 233.046135 72.62434 
L 234.854594 69.161638 
L 236.663053 65.105877 
L 238.471512 60.430995 
L 240.279971 55.163498 
L 242.08843 49.398503 
L 242.08843 49.398503 
" clip-path="url(#p17bdcdfaf2)" style="fill: none; stroke: #2ca02c; stroke-width: 1.5; stroke-linecap: square"/>
   </g>
   <g id="line2d_27">
    <path d="M 149.857025 87.458998 
L 160.707778 87.505572 
L 167.21823 87.332038 
L 171.920224 86.994689 
L 175.537141 86.519086 
L 178.430676 85.928208 
L 180.962518 85.192664 
L 183.132669 84.344776 
L 185.30282 83.237084 
L 187.111279 82.065961 
L 188.919737 80.61919 
L 190.728196 78.843015 
L 192.536655 76.678364 
L 193.983422 74.625309 
L 195.43019 72.252639 
L 197.238649 68.794216 
L 199.047107 64.749472 
L 200.855566 60.101241 
L 202.664025 54.87179 
L 204.834176 47.941319 
L 212.429703 22.923022 
L 213.876471 19.209826 
L 215.323238 16.182458 
L 216.408313 14.415407 
L 217.493388 13.101718 
L 218.578464 12.243452 
L 219.301847 11.91818 
L 220.025231 11.782018 
L 220.748614 11.824984 
L 221.471998 12.035058 
L 222.557073 12.63335 
L 223.642149 13.526225 
L 225.088916 15.083087 
L 226.897375 17.444399 
L 229.790909 21.684729 
L 233.769519 27.443987 
L 236.301361 30.705252 
L 238.471512 33.175627 
L 240.641663 35.345907 
L 242.08843 36.636319 
L 242.08843 36.636319 
" clip-path="url(#p17bdcdfaf2)" style="fill: none; stroke-dasharray: 5.55,2.4; stroke-dashoffset: 0; stroke: #2ca02c; stroke-width: 1.5"/>
   </g>
   <g id="patch_10">
    <path d="M 145.245455 108 
L 145.245455 7.2 
" style="fill: none; stroke: #000000; stroke-width: 0.8; stroke-linejoin: miter; stroke-linecap: square"/>
   </g>
   <g id="patch_11">
    <path d="M 246.7 108 
L 246.7 7.2 
" style="fill: none; stroke: #000000; stroke-width: 0.8; stroke-linejoin: miter; stroke-linecap: square"/>
   </g>
   <g id="patch_12">
    <path d="M 145.245455 108 
L 246.7 108 
" style="fill: none; stroke: #000000; stroke-width: 0.8; stroke-linejoin: miter; stroke-linecap: square"/>
   </g>
   <g id="patch_13">
    <path d="M 145.245455 7.2 
L 246.7 7.2 
" style="fill: none; stroke: #000000; stroke-width: 0.8; stroke-linejoin: miter; stroke-linecap: square"/>
   </g>
   <g id="text_8">
    <g id="patch_14">
     <path d="M 153.298743 26.366172 
L 238.646712 26.366172 
L 238.646712 8.193828 
L 153.298743 8.193828 
z
" style="fill: #ffffff; opacity: 0.5; stroke: #000000; stroke-linejoin: miter"/>
    </g>
    <!-- Modified MLP 5k -->
    <g transform="translate(157.258743 19.831484) scale(0.11 -0.11)">
     <defs>
      <path id="LibertinusSerif-Regular-6f" d="M 262 1312 
C 262 659 698 -64 1606 -64 
C 2016 -64 2323 77 2541 294 
C 2829 570 2963 973 2963 1370 
C 2963 2035 2598 2810 1619 2810 
C 1197 2810 845 2637 614 2362 
C 384 2086 262 1715 262 1312 
z
M 1523 2586 
C 2074 2586 2413 2086 2413 1165 
C 2413 358 1997 160 1696 160 
C 1030 160 813 966 813 1459 
C 813 2016 947 2586 1523 2586 
z
" transform="scale(0.015625)"/>
      <path id="LibertinusSerif-Regular-64" d="M 2208 794 
C 2208 672 2195 621 2106 544 
C 1869 339 1664 237 1504 237 
C 1158 237 800 614 800 1414 
C 800 1875 890 2131 986 2266 
C 1184 2566 1453 2586 1581 2586 
C 1811 2586 1971 2502 2099 2355 
C 2189 2253 2208 2208 2208 2010 
L 2208 794 
z
M 2138 320 
C 2163 346 2227 358 2234 314 
C 2246 154 2304 -64 2304 -64 
C 2355 -83 2387 -83 2426 -64 
C 2566 51 2790 147 3181 192 
C 3219 230 3219 326 3181 365 
C 2771 397 2714 518 2714 832 
L 2714 3731 
C 2714 4147 2739 4403 2739 4403 
C 2739 4448 2714 4467 2656 4467 
C 2496 4403 2016 4314 1760 4294 
C 1747 4243 1760 4141 1798 4102 
C 2131 4083 2208 4115 2208 3578 
L 2208 2758 
C 2208 2714 2195 2701 2150 2701 
C 2125 2701 1862 2810 1651 2810 
C 1229 2810 947 2669 691 2426 
C 416 2150 250 1773 250 1299 
C 250 512 646 -64 1338 -64 
C 1587 -64 1824 64 2138 320 
z
" transform="scale(0.015625)"/>
      <path id="LibertinusSerif-Regular-69" d="M 1158 781 
L 1158 2054 
C 1158 2374 1184 2784 1184 2784 
C 1184 2810 1152 2829 1101 2829 
C 915 2758 666 2701 224 2643 
C 211 2605 224 2502 237 2464 
C 582 2426 653 2394 653 2029 
L 653 781 
C 653 250 582 230 192 198 
C 154 160 154 26 192 -13 
C 403 -6 653 0 909 0 
C 1165 0 1408 -6 1619 -13 
C 1658 26 1658 160 1619 198 
C 1229 224 1158 250 1158 781 
z
M 576 3834 
C 576 3667 730 3501 883 3501 
C 1062 3501 1216 3667 1216 3808 
C 1216 3962 1082 4141 909 4141 
C 755 4141 576 3987 576 3834 
z
" transform="scale(0.015625)"/>
      <path id="LibertinusSerif-Regular-66" d="M 1120 781 
L 1120 2496 
L 1715 2496 
C 1773 2496 1862 2522 1862 2579 
L 1862 2707 
C 1862 2733 1843 2746 1811 2746 
L 1120 2746 
L 1120 3110 
C 1120 4096 1414 4250 1626 4250 
C 1818 4250 1920 4173 2010 3949 
C 2061 3834 2131 3744 2266 3744 
C 2374 3744 2528 3878 2528 4006 
C 2528 4115 2458 4230 2323 4333 
C 2157 4448 1990 4467 1747 4467 
C 1210 4467 614 4000 614 3002 
L 614 2746 
L 288 2746 
C 173 2746 141 2669 141 2618 
L 141 2534 
C 141 2502 147 2496 173 2496 
L 614 2496 
L 614 781 
C 614 250 512 224 166 198 
C 128 160 128 26 166 -13 
C 390 -6 614 0 870 0 
C 1126 0 1434 -6 1658 -13 
C 1696 26 1696 160 1658 198 
C 1158 224 1120 250 1120 781 
z
" transform="scale(0.015625)"/>
      <path id="LibertinusSerif-Regular-65" d="M 794 1805 
C 915 2528 1363 2586 1517 2586 
C 1760 2586 2048 2451 2048 1914 
C 2048 1856 2022 1824 1952 1824 
L 794 1805 
z
M 2470 595 
C 2234 352 2048 250 1677 250 
C 1446 250 1178 384 979 710 
C 851 922 774 1216 774 1587 
L 2477 1574 
C 2554 1574 2598 1613 2598 1683 
C 2598 2221 2406 2797 1517 2797 
C 960 2797 237 2266 237 1293 
C 237 934 326 589 538 346 
C 755 90 1056 -64 1517 -64 
C 2003 -64 2349 160 2605 493 
C 2586 557 2547 589 2470 595 
z
" transform="scale(0.015625)"/>
     </defs>
     <use xlink:href="#LibertinusSerif-Regular-4d"/>
     <use xlink:href="#LibertinusSerif-Regular-6f" transform="translate(83.899994 0)"/>
     <use xlink:href="#LibertinusSerif-Regular-64" transform="translate(134.299988 0)"/>
     <use xlink:href="#LibertinusSerif-Regular-69" transform="translate(184.899979 0)"/>
     <use xlink:href="#LibertinusSerif-Regular-66" transform="translate(211.999969 0)"/>
     <use xlink:href="#LibertinusSerif-Regular-69" transform="translate(242.999954 0)"/>
     <use xlink:href="#LibertinusSerif-Regular-65" transform="translate(270.099945 0)"/>
     <use xlink:href="#LibertinusSerif-Regular-64" transform="translate(314.799942 0)"/>
     <use xlink:href="#LibertinusSerif-Regular-20" transform="translate(365.399933 0)"/>
     <use xlink:href="#LibertinusSerif-Regular-4d" transform="translate(390.399918 0)"/>
     <use xlink:href="#LibertinusSerif-Regular-4c" transform="translate(474.299911 0)"/>
     <use xlink:href="#LibertinusSerif-Regular-50" transform="translate(527.099899 0)"/>
     <use xlink:href="#LibertinusSerif-Regular-20" transform="translate(581.19989 0)"/>
     <use xlink:href="#LibertinusSerif-Regular-35" transform="translate(606.199875 0)"/>
     <use xlink:href="#LibertinusSerif-Regular-6b" transform="translate(652.69986 0)"/>
    </g>
   </g>
  </g>
  <g id="axes_3">
   <g id="patch_15">
    <path d="M 23.5 228.96 
L 124.954545 228.96 
L 124.954545 128.16 
L 23.5 128.16 
z
" style="fill: #ffffff"/>
   </g>
   <g id="matplotlib.axis_5">
    <g id="xtick_7">
     <g id="line2d_28">
      <g>
       <use xlink:href="#m86948424a0" x="28.11157" y="228.96" style="stroke: #000000; stroke-width: 0.8"/>
      </g>
     </g>
     <g id="text_9">
      <!-- 0.0 -->
      <g transform="translate(22.36157 242.939687) scale(0.1 -0.1)">
       <defs>
        <path id="LibertinusSerif-Regular-2e" d="M 365 275 
C 365 90 518 -64 704 -64 
C 890 -64 1043 90 1043 275 
C 1043 461 890 614 704 614 
C 518 614 365 461 365 275 
z
" transform="scale(0.015625)"/>
       </defs>
       <use xlink:href="#LibertinusSerif-Regular-30"/>
       <use xlink:href="#LibertinusSerif-Regular-2e" transform="translate(46.499985 0)"/>
       <use xlink:href="#LibertinusSerif-Regular-30" transform="translate(68.499969 0)"/>
      </g>
     </g>
    </g>
    <g id="xtick_8">
     <g id="line2d_29">
      <g>
       <use xlink:href="#m86948424a0" x="65.004132" y="228.96" style="stroke: #000000; stroke-width: 0.8"/>
      </g>
     </g>
     <g id="text_10">
      <!-- 0.2 -->
      <g transform="translate(59.254132 242.939687) scale(0.1 -0.1)">
       <use xlink:href="#LibertinusSerif-Regular-30"/>
       <use xlink:href="#LibertinusSerif-Regular-2e" transform="translate(46.499985 0)"/>
       <use xlink:href="#LibertinusSerif-Regular-32" transform="translate(68.499969 0)"/>
      </g>
     </g>
    </g>
    <g id="xtick_9">
     <g id="line2d_30">
      <g>
       <use xlink:href="#m86948424a0" x="101.896694" y="228.96" style="stroke: #000000; stroke-width: 0.8"/>
      </g>
     </g>
     <g id="text_11">
      <!-- 0.4 -->
      <g transform="translate(96.146694 242.939687) scale(0.1 -0.1)">
       <use xlink:href="#LibertinusSerif-Regular-30"/>
       <use xlink:href="#LibertinusSerif-Regular-2e" transform="translate(46.499985 0)"/>
       <use xlink:href="#LibertinusSerif-Regular-34" transform="translate(68.499969 0)"/>
      </g>
     </g>
    </g>
   </g>
   <g id="matplotlib.axis_6">
    <g id="ytick_7">
     <g id="line2d_31">
      <g>
       <use xlink:href="#m8877c154b7" x="23.5" y="210.034738" style="stroke: #000000; stroke-width: 0.8"/>
      </g>
     </g>
     <g id="text_12">
      <!-- 0 -->
      <g transform="translate(11.85 213.524582) scale(0.1 -0.1)">
       <use xlink:href="#LibertinusSerif-Regular-30"/>
      </g>
     </g>
    </g>
    <g id="ytick_8">
     <g id="line2d_32">
      <g>
       <use xlink:href="#m8877c154b7" x="23.5" y="177.71994" style="stroke: #000000; stroke-width: 0.8"/>
      </g>
     </g>
     <g id="text_13">
      <!-- 20 -->
      <g transform="translate(7.2 181.209783) scale(0.1 -0.1)">
       <use xlink:href="#LibertinusSerif-Regular-32"/>
       <use xlink:href="#LibertinusSerif-Regular-30" transform="translate(46.499985 0)"/>
      </g>
     </g>
    </g>
    <g id="ytick_9">
     <g id="line2d_33">
      <g>
       <use xlink:href="#m8877c154b7" x="23.5" y="145.405141" style="stroke: #000000; stroke-width: 0.8"/>
      </g>
     </g>
     <g id="text_14">
      <!-- 40 -->
      <g transform="translate(7.2 148.894985) scale(0.1 -0.1)">
       <use xlink:href="#LibertinusSerif-Regular-34"/>
       <use xlink:href="#LibertinusSerif-Regular-30" transform="translate(46.499985 0)"/>
      </g>
     </g>
    </g>
   </g>
   <g id="line2d_34">
    <path d="M 28.11157 208.418998 
L 32.09018 208.974548 
L 36.068789 209.304365 
L 41.132474 209.489634 
L 47.642927 209.490241 
L 55.238454 209.266259 
L 62.47229 208.841132 
L 68.62105 208.272496 
L 74.046427 207.547657 
L 78.74842 206.686753 
L 82.72703 205.73316 
L 86.343947 204.639385 
L 89.599174 203.427848 
L 92.492708 202.137406 
L 95.386242 200.612676 
L 98.279776 198.824586 
L 101.173311 196.754596 
L 104.066845 194.386737 
L 107.322071 191.39603 
L 111.662372 187.045353 
L 115.640982 183.111121 
L 117.811133 181.235966 
L 119.619592 179.947459 
L 120.342975 179.519403 
L 120.342975 179.519403 
" clip-path="url(#pf3988764c3)" style="fill: none; stroke: #1f77b4; stroke-width: 1.5; stroke-linecap: square"/>
   </g>
   <g id="line2d_35">
    <path d="M 28.11157 208.418998 
L 32.451872 208.31081 
L 37.153865 207.971843 
L 41.855858 207.407173 
L 46.196159 206.661361 
L 50.174769 205.74996 
L 53.791687 204.690535 
L 57.046913 203.509915 
L 59.940447 202.247258 
L 62.833982 200.753331 
L 65.727516 198.999445 
L 68.62105 196.962247 
L 71.514584 194.631467 
L 74.408119 192.021914 
L 78.386728 188.092776 
L 83.450413 183.076418 
L 85.620564 181.218456 
L 87.429023 179.947813 
L 88.87579 179.172797 
L 90.322557 178.654625 
L 91.769324 178.425207 
L 92.8544 178.45642 
L 93.939475 178.66778 
L 95.02455 179.060127 
L 96.471317 179.858282 
L 97.918085 180.952288 
L 99.364852 182.31151 
L 101.173311 184.32307 
L 103.343461 187.078269 
L 106.960379 192.095423 
L 111.662372 198.551574 
L 114.555907 202.146324 
L 117.087749 204.961066 
L 119.619592 207.447849 
L 120.342975 208.098639 
L 120.342975 208.098639 
" clip-path="url(#pf3988764c3)" style="fill: none; stroke-dasharray: 5.55,2.4; stroke-dashoffset: 0; stroke: #1f77b4; stroke-width: 1.5"/>
   </g>
   <g id="line2d_36">
    <path d="M 28.11157 208.418998 
L 31.005105 208.237006 
L 36.430481 208.163327 
L 49.813077 208.052541 
L 55.600146 207.745272 
L 60.663831 207.256398 
L 65.004132 206.624258 
L 68.982742 205.826577 
L 72.59966 204.877856 
L 75.854886 203.80035 
L 78.74842 202.629236 
L 81.641954 201.221842 
L 84.173797 199.764389 
L 86.705639 198.065327 
L 89.237482 196.096485 
L 91.769324 193.828516 
L 94.301167 191.236755 
L 96.833009 188.309593 
L 99.364852 185.055935 
L 102.620078 180.471608 
L 109.13053 171.090031 
L 110.938989 168.925796 
L 112.385756 167.531084 
L 113.470831 166.736558 
L 114.555907 166.208819 
L 115.640982 165.997335 
L 116.364366 166.048335 
L 117.087749 166.258103 
L 117.811133 166.632656 
L 118.534516 167.186418 
L 119.619592 168.390768 
L 120.342975 169.418924 
L 120.342975 169.418924 
" clip-path="url(#pf3988764c3)" style="fill: none; stroke: #ff7f0e; stroke-width: 1.5; stroke-linecap: square"/>
   </g>
   <g id="line2d_37">
    <path d="M 28.11157 208.418998 
L 36.068789 206.506365 
L 40.409091 205.21708 
L 44.026009 203.90182 
L 47.281235 202.467941 
L 50.174769 200.946488 
L 52.706612 199.388815 
L 55.238454 197.587529 
L 57.770297 195.511701 
L 60.302139 193.132936 
L 62.833982 190.429835 
L 65.365824 187.395227 
L 68.259358 183.546091 
L 71.876276 178.315357 
L 76.216578 172.053229 
L 78.025036 169.767466 
L 79.471804 168.225989 
L 80.918571 167.039823 
L 82.003646 166.442319 
L 83.088721 166.141053 
L 83.812105 166.12412 
L 84.535489 166.266625 
L 85.258872 166.577735 
L 85.982256 167.065005 
L 87.067331 168.137869 
L 88.152406 169.628294 
L 89.237482 171.53201 
L 90.322557 173.830113 
L 91.769324 177.447209 
L 93.577783 182.683956 
L 96.471317 191.974852 
L 99.726544 202.253724 
L 101.535002 207.30545 
L 103.343461 211.667613 
L 104.790228 214.614537 
L 106.236996 217.07928 
L 107.683763 219.087363 
L 109.13053 220.679986 
L 110.577297 221.907079 
L 112.024064 222.821697 
L 113.470831 223.475929 
L 114.917598 223.918237 
L 116.726057 224.238569 
L 118.896208 224.375066 
L 120.342975 224.361822 
L 120.342975 224.361822 
" clip-path="url(#pf3988764c3)" style="fill: none; stroke-dasharray: 5.55,2.4; stroke-dashoffset: 0; stroke: #ff7f0e; stroke-width: 1.5"/>
   </g>
   <g id="line2d_38">
    <path d="M 28.11157 208.418998 
L 59.940447 208.7917 
L 71.514584 208.749349 
L 78.025036 208.520693 
L 82.72703 208.140589 
L 86.343947 207.626534 
L 89.237482 206.99797 
L 91.769324 206.222629 
L 93.939475 205.334163 
L 96.109626 204.177729 
L 97.918085 202.958377 
L 99.726544 201.455307 
L 101.535002 199.61226 
L 102.98177 197.852351 
L 104.428537 195.806114 
L 105.875304 193.443185 
L 107.322071 190.731099 
L 109.13053 186.812246 
L 110.938989 182.293248 
L 112.747448 177.177312 
L 114.917598 170.346783 
L 118.172825 159.213537 
L 120.342975 151.801442 
L 120.342975 151.801442 
" clip-path="url(#pf3988764c3)" style="fill: none; stroke: #2ca02c; stroke-width: 1.5; stroke-linecap: square"/>
   </g>
   <g id="line2d_39">
    <path d="M 28.11157 208.418998 
L 38.962324 208.465572 
L 45.472776 208.292038 
L 50.174769 207.954689 
L 53.791687 207.479086 
L 56.685221 206.888208 
L 59.217064 206.152664 
L 61.387214 205.304776 
L 63.557365 204.197084 
L 65.365824 203.025961 
L 67.174283 201.57919 
L 68.982742 199.803015 
L 70.791201 197.638364 
L 72.237968 195.585309 
L 73.684735 193.212639 
L 75.493194 189.754216 
L 77.301653 185.709472 
L 79.110112 181.061241 
L 80.918571 175.83179 
L 83.088721 168.901319 
L 90.684249 143.883022 
L 92.131016 140.169826 
L 93.577783 137.142458 
L 94.662859 135.375407 
L 95.747934 134.061718 
L 96.833009 133.203452 
L 97.556393 132.87818 
L 98.279776 132.742018 
L 99.00316 132.784984 
L 99.726544 132.995058 
L 100.811619 133.59335 
L 101.896694 134.486225 
L 103.343461 136.043087 
L 105.15192 138.404399 
L 108.045455 142.644729 
L 112.024064 148.403987 
L 114.555907 151.665252 
L 116.726057 154.135627 
L 118.896208 156.305907 
L 120.342975 157.596319 
L 120.342975 157.596319 
" clip-path="url(#pf3988764c3)" style="fill: none; stroke-dasharray: 5.55,2.4; stroke-dashoffset: 0; stroke: #2ca02c; stroke-width: 1.5"/>
   </g>
   <g id="patch_16">
    <path d="M 23.5 228.96 
L 23.5 128.16 
" style="fill: none; stroke: #000000; stroke-width: 0.8; stroke-linejoin: miter; stroke-linecap: square"/>
   </g>
   <g id="patch_17">
    <path d="M 124.954545 228.96 
L 124.954545 128.16 
" style="fill: none; stroke: #000000; stroke-width: 0.8; stroke-linejoin: miter; stroke-linecap: square"/>
   </g>
   <g id="patch_18">
    <path d="M 23.5 228.96 
L 124.954545 228.96 
" style="fill: none; stroke: #000000; stroke-width: 0.8; stroke-linejoin: miter; stroke-linecap: square"/>
   </g>
   <g id="patch_19">
    <path d="M 23.5 128.16 
L 124.954545 128.16 
" style="fill: none; stroke: #000000; stroke-width: 0.8; stroke-linejoin: miter; stroke-linecap: square"/>
   </g>
   <g id="text_15">
    <g id="patch_20">
     <path d="M 50.467273 147.326172 
L 97.987273 147.326172 
L 97.987273 129.153828 
L 50.467273 129.153828 
z
" style="fill: #ffffff; opacity: 0.5; stroke: #000000; stroke-linejoin: miter"/>
    </g>
    <!-- MLP 10k -->
    <g transform="translate(54.427273 140.791484) scale(0.11 -0.11)">
     <defs>
      <path id="LibertinusSerif-Regular-31" d="M 1843 781 
L 1843 3002 
C 1843 3386 1850 3776 1862 3859 
C 1862 3885 1843 3891 1824 3891 
C 1466 3667 1133 3514 570 3251 
C 576 3174 608 3117 666 3078 
C 954 3200 1101 3238 1222 3238 
C 1325 3238 1350 3085 1350 2867 
L 1350 781 
C 1350 250 1178 218 730 198 
C 691 160 691 26 730 -13 
C 1043 -6 1267 0 1619 0 
C 1920 0 2080 -6 2400 -13 
C 2438 26 2438 160 2400 198 
C 1952 218 1843 250 1843 781 
z
" transform="scale(0.015625)"/>
     </defs>
     <use xlink:href="#LibertinusSerif-Regular-4d"/>
     <use xlink:href="#LibertinusSerif-Regular-4c" transform="translate(83.899994 0)"/>
     <use xlink:href="#LibertinusSerif-Regular-50" transform="translate(136.699982 0)"/>
     <use xlink:href="#LibertinusSerif-Regular-20" transform="translate(190.799973 0)"/>
     <use xlink:href="#LibertinusSerif-Regular-31" transform="translate(215.799957 0)"/>
     <use xlink:href="#LibertinusSerif-Regular-30" transform="translate(262.299942 0)"/>
     <use xlink:href="#LibertinusSerif-Regular-6b" transform="translate(308.799927 0)"/>
    </g>
   </g>
  </g>
  <g id="axes_4">
   <g id="patch_21">
    <path d="M 145.245455 228.96 
L 246.7 228.96 
L 246.7 128.16 
L 145.245455 128.16 
z
" style="fill: #ffffff"/>
   </g>
   <g id="matplotlib.axis_7">
    <g id="xtick_10">
     <g id="line2d_40">
      <g>
       <use xlink:href="#m86948424a0" x="149.857025" y="228.96" style="stroke: #000000; stroke-width: 0.8"/>
      </g>
     </g>
     <g id="text_16">
      <!-- 0.0 -->
      <g transform="translate(144.107025 242.939687) scale(0.1 -0.1)">
       <use xlink:href="#LibertinusSerif-Regular-30"/>
       <use xlink:href="#LibertinusSerif-Regular-2e" transform="translate(46.499985 0)"/>
       <use xlink:href="#LibertinusSerif-Regular-30" transform="translate(68.499969 0)"/>
      </g>
     </g>
    </g>
    <g id="xtick_11">
     <g id="line2d_41">
      <g>
       <use xlink:href="#m86948424a0" x="186.749587" y="228.96" style="stroke: #000000; stroke-width: 0.8"/>
      </g>
     </g>
     <g id="text_17">
      <!-- 0.2 -->
      <g transform="translate(180.999587 242.939687) scale(0.1 -0.1)">
       <use xlink:href="#LibertinusSerif-Regular-30"/>
       <use xlink:href="#LibertinusSerif-Regular-2e" transform="translate(46.499985 0)"/>
       <use xlink:href="#LibertinusSerif-Regular-32" transform="translate(68.499969 0)"/>
      </g>
     </g>
    </g>
    <g id="xtick_12">
     <g id="line2d_42">
      <g>
       <use xlink:href="#m86948424a0" x="223.642149" y="228.96" style="stroke: #000000; stroke-width: 0.8"/>
      </g>
     </g>
     <g id="text_18">
      <!-- 0.4 -->
      <g transform="translate(217.892149 242.939687) scale(0.1 -0.1)">
       <use xlink:href="#LibertinusSerif-Regular-30"/>
       <use xlink:href="#LibertinusSerif-Regular-2e" transform="translate(46.499985 0)"/>
       <use xlink:href="#LibertinusSerif-Regular-34" transform="translate(68.499969 0)"/>
      </g>
     </g>
    </g>
   </g>
   <g id="matplotlib.axis_8">
    <g id="ytick_10">
     <g id="line2d_43">
      <g>
       <use xlink:href="#m8877c154b7" x="145.245455" y="210.034738" style="stroke: #000000; stroke-width: 0.8"/>
      </g>
     </g>
    </g>
    <g id="ytick_11">
     <g id="line2d_44">
      <g>
       <use xlink:href="#m8877c154b7" x="145.245455" y="177.71994" style="stroke: #000000; stroke-width: 0.8"/>
      </g>
     </g>
    </g>
    <g id="ytick_12">
     <g id="line2d_45">
      <g>
       <use xlink:href="#m8877c154b7" x="145.245455" y="145.405141" style="stroke: #000000; stroke-width: 0.8"/>
      </g>
     </g>
    </g>
   </g>
   <g id="line2d_46">
    <path d="M 149.857025 208.418998 
L 154.197326 208.311102 
L 158.899319 207.972824 
L 163.601313 207.407997 
L 167.941614 206.663007 
L 171.920224 205.751576 
L 175.537141 204.692665 
L 178.792368 203.512462 
L 181.685902 202.250278 
L 184.579436 200.757089 
L 187.47297 199.003263 
L 190.366505 196.96673 
L 193.260039 194.635242 
L 196.153573 192.024935 
L 200.132183 188.094381 
L 205.195868 183.080504 
L 207.366018 181.224357 
L 209.174477 179.954951 
L 210.621245 179.181517 
L 212.068012 178.66506 
L 213.514779 178.439113 
L 214.599854 178.473194 
L 215.68493 178.688361 
L 216.770005 179.085196 
L 218.216772 179.888252 
L 219.663539 180.988099 
L 221.110306 182.351789 
L 222.918765 184.367997 
L 225.088916 187.125714 
L 228.705834 192.139317 
L 233.407827 198.582498 
L 236.301361 202.169076 
L 238.833204 204.978166 
L 241.365046 207.461412 
L 242.08843 208.111394 
L 242.08843 208.111394 
" clip-path="url(#pc26be28908)" style="fill: none; stroke: #1f77b4; stroke-width: 1.5; stroke-linecap: square"/>
   </g>
   <g id="line2d_47">
    <path d="M 149.857025 208.418998 
L 154.197326 208.31081 
L 158.899319 207.971843 
L 163.601313 207.407173 
L 167.941614 206.661361 
L 171.920224 205.74996 
L 175.537141 204.690535 
L 178.792368 203.509915 
L 181.685902 202.247258 
L 184.579436 200.753331 
L 187.47297 198.999445 
L 190.366505 196.962247 
L 193.260039 194.631467 
L 196.153573 192.021914 
L 200.132183 188.092776 
L 205.195868 183.076418 
L 207.366018 181.218456 
L 209.174477 179.947813 
L 210.621245 179.172797 
L 212.068012 178.654625 
L 213.514779 178.425207 
L 214.599854 178.45642 
L 215.68493 178.66778 
L 216.770005 179.060127 
L 218.216772 179.858282 
L 219.663539 180.952288 
L 221.110306 182.31151 
L 222.918765 184.32307 
L 225.088916 187.078269 
L 228.705834 192.095423 
L 233.407827 198.551574 
L 236.301361 202.146324 
L 238.833204 204.961066 
L 241.365046 207.447849 
L 242.08843 208.098639 
L 242.08843 208.098639 
" clip-path="url(#pc26be28908)" style="fill: none; stroke-dasharray: 5.55,2.4; stroke-dashoffset: 0; stroke: #1f77b4; stroke-width: 1.5"/>
   </g>
   <g id="line2d_48">
    <path d="M 149.857025 208.418998 
L 157.814244 206.507284 
L 162.154545 205.218529 
L 165.771463 203.903806 
L 169.026689 202.470614 
L 171.920224 200.949387 
L 174.452066 199.392293 
L 176.983909 197.591786 
L 179.515751 195.516238 
L 182.047594 193.138233 
L 184.579436 190.436207 
L 187.111279 187.402177 
L 190.004813 183.553471 
L 193.621731 178.322332 
L 197.962032 172.05938 
L 199.770491 169.773997 
L 201.217258 168.232821 
L 202.664025 167.04742 
L 203.749101 166.450295 
L 204.834176 166.148986 
L 205.55756 166.131876 
L 206.280943 166.274147 
L 207.004327 166.585089 
L 207.72771 167.072331 
L 208.812786 168.14556 
L 209.897861 169.637785 
L 210.982936 171.545361 
L 212.068012 173.849613 
L 213.514779 177.478701 
L 215.323238 182.73344 
L 218.216772 192.046652 
L 221.471998 202.328214 
L 223.280457 207.373883 
L 225.088916 211.725388 
L 226.535683 214.662882 
L 227.98245 217.117449 
L 229.429217 219.117439 
L 230.875984 220.702521 
L 232.322752 221.923557 
L 233.769519 222.834273 
L 235.216286 223.484221 
L 237.024745 224.006584 
L 238.833204 224.279893 
L 241.003354 224.378028 
L 242.08843 224.360773 
L 242.08843 224.360773 
" clip-path="url(#pc26be28908)" style="fill: none; stroke: #ff7f0e; stroke-width: 1.5; stroke-linecap: square"/>
   </g>
   <g id="line2d_49">
    <path d="M 149.857025 208.418998 
L 157.814244 206.506365 
L 162.154545 205.21708 
L 165.771463 203.90182 
L 169.026689 202.467941 
L 171.920224 200.946488 
L 174.452066 199.388815 
L 176.983909 197.587529 
L 179.515751 195.511701 
L 182.047594 193.132936 
L 184.579436 190.429835 
L 187.111279 187.395227 
L 190.004813 183.546091 
L 193.621731 178.315357 
L 197.962032 172.053229 
L 199.770491 169.767466 
L 201.217258 168.225989 
L 202.664025 167.039823 
L 203.749101 166.442319 
L 204.834176 166.141053 
L 205.55756 166.12412 
L 206.280943 166.266625 
L 207.004327 166.577735 
L 207.72771 167.065005 
L 208.812786 168.137869 
L 209.897861 169.628294 
L 210.982936 171.53201 
L 212.068012 173.830113 
L 213.514779 177.447209 
L 215.323238 182.683956 
L 218.216772 191.974852 
L 221.471998 202.253724 
L 223.280457 207.30545 
L 225.088916 211.667613 
L 226.535683 214.614537 
L 227.98245 217.07928 
L 229.429217 219.087363 
L 230.875984 220.679986 
L 232.322752 221.907079 
L 233.769519 222.821697 
L 235.216286 223.475929 
L 236.663053 223.918237 
L 238.471512 224.238569 
L 240.641663 224.375066 
L 242.08843 224.361822 
L 242.08843 224.361822 
" clip-path="url(#pc26be28908)" style="fill: none; stroke-dasharray: 5.55,2.4; stroke-dashoffset: 0; stroke: #ff7f0e; stroke-width: 1.5"/>
   </g>
   <g id="line2d_50">
    <path d="M 149.857025 208.418998 
L 160.707778 208.465767 
L 167.21823 208.292311 
L 171.920224 207.955362 
L 175.537141 207.480203 
L 178.430676 206.889685 
L 180.962518 206.154665 
L 183.132669 205.307412 
L 185.30282 204.200331 
L 187.111279 203.029558 
L 188.919737 201.582893 
L 190.728196 199.806529 
L 192.536655 197.641 
L 193.983422 195.586811 
L 195.43019 193.212685 
L 197.238649 189.7514 
L 199.047107 185.704308 
L 200.855566 181.054681 
L 202.664025 175.826676 
L 204.834176 168.901792 
L 212.429703 143.894046 
L 213.876471 140.180447 
L 215.323238 137.15618 
L 216.408313 135.392742 
L 217.493388 134.085421 
L 218.578464 133.234529 
L 219.301847 132.914049 
L 220.025231 132.783332 
L 220.748614 132.832277 
L 221.471998 133.047638 
L 222.557073 133.652345 
L 223.642149 134.551657 
L 225.088916 136.113299 
L 226.897375 138.476463 
L 230.152601 143.250466 
L 233.769519 148.45275 
L 236.301361 151.703103 
L 238.471512 154.165481 
L 240.641663 156.330924 
L 242.08843 157.620033 
L 242.08843 157.620033 
" clip-path="url(#pc26be28908)" style="fill: none; stroke: #2ca02c; stroke-width: 1.5; stroke-linecap: square"/>
   </g>
   <g id="line2d_51">
    <path d="M 149.857025 208.418998 
L 160.707778 208.465572 
L 167.21823 208.292038 
L 171.920224 207.954689 
L 175.537141 207.479086 
L 178.430676 206.888208 
L 180.962518 206.152664 
L 183.132669 205.304776 
L 185.30282 204.197084 
L 187.111279 203.025961 
L 188.919737 201.57919 
L 190.728196 199.803015 
L 192.536655 197.638364 
L 193.983422 195.585309 
L 195.43019 193.212639 
L 197.238649 189.754216 
L 199.047107 185.709472 
L 200.855566 181.061241 
L 202.664025 175.83179 
L 204.834176 168.901319 
L 212.429703 143.883022 
L 213.876471 140.169826 
L 215.323238 137.142458 
L 216.408313 135.375407 
L 217.493388 134.061718 
L 218.578464 133.203452 
L 219.301847 132.87818 
L 220.025231 132.742018 
L 220.748614 132.784984 
L 221.471998 132.995058 
L 222.557073 133.59335 
L 223.642149 134.486225 
L 225.088916 136.043087 
L 226.897375 138.404399 
L 229.790909 142.644729 
L 233.769519 148.403987 
L 236.301361 151.665252 
L 238.471512 154.135627 
L 240.641663 156.305907 
L 242.08843 157.596319 
L 242.08843 157.596319 
" clip-path="url(#pc26be28908)" style="fill: none; stroke-dasharray: 5.55,2.4; stroke-dashoffset: 0; stroke: #2ca02c; stroke-width: 1.5"/>
   </g>
   <g id="patch_22">
    <path d="M 145.245455 228.96 
L 145.245455 128.16 
" style="fill: none; stroke: #000000; stroke-width: 0.8; stroke-linejoin: miter; stroke-linecap: square"/>
   </g>
   <g id="patch_23">
    <path d="M 246.7 228.96 
L 246.7 128.16 
" style="fill: none; stroke: #000000; stroke-width: 0.8; stroke-linejoin: miter; stroke-linecap: square"/>
   </g>
   <g id="patch_24">
    <path d="M 145.245455 228.96 
L 246.7 228.96 
" style="fill: none; stroke: #000000; stroke-width: 0.8; stroke-linejoin: miter; stroke-linecap: square"/>
   </g>
   <g id="patch_25">
    <path d="M 145.245455 128.16 
L 246.7 128.16 
" style="fill: none; stroke: #000000; stroke-width: 0.8; stroke-linejoin: miter; stroke-linecap: square"/>
   </g>
   <g id="text_19">
    <g id="patch_26">
     <path d="M 150.741243 147.326172 
L 241.204212 147.326172 
L 241.204212 129.153828 
L 150.741243 129.153828 
z
" style="fill: #ffffff; opacity: 0.5; stroke: #000000; stroke-linejoin: miter"/>
    </g>
    <!-- Modified MLP 10k -->
    <g transform="translate(154.701243 140.791484) scale(0.11 -0.11)">
     <use xlink:href="#LibertinusSerif-Regular-4d"/>
     <use xlink:href="#LibertinusSerif-Regular-6f" transform="translate(83.899994 0)"/>
     <use xlink:href="#LibertinusSerif-Regular-64" transform="translate(134.299988 0)"/>
     <use xlink:href="#LibertinusSerif-Regular-69" transform="translate(184.899979 0)"/>
     <use xlink:href="#LibertinusSerif-Regular-66" transform="translate(211.999969 0)"/>
     <use xlink:href="#LibertinusSerif-Regular-69" transform="translate(242.999954 0)"/>
     <use xlink:href="#LibertinusSerif-Regular-65" transform="translate(270.099945 0)"/>
     <use xlink:href="#LibertinusSerif-Regular-64" transform="translate(314.799942 0)"/>
     <use xlink:href="#LibertinusSerif-Regular-20" transform="translate(365.399933 0)"/>
     <use xlink:href="#LibertinusSerif-Regular-4d" transform="translate(390.399918 0)"/>
     <use xlink:href="#LibertinusSerif-Regular-4c" transform="translate(474.299911 0)"/>
     <use xlink:href="#LibertinusSerif-Regular-50" transform="translate(527.099899 0)"/>
     <use xlink:href="#LibertinusSerif-Regular-20" transform="translate(581.19989 0)"/>
     <use xlink:href="#LibertinusSerif-Regular-31" transform="translate(606.199875 0)"/>
     <use xlink:href="#LibertinusSerif-Regular-30" transform="translate(652.69986 0)"/>
     <use xlink:href="#LibertinusSerif-Regular-6b" transform="translate(699.199844 0)"/>
    </g>
   </g>
  </g>
 </g>
 <defs>
  <clipPath id="p57a79bf20e">
   <rect x="23.5" y="7.2" width="101.454545" height="100.8"/>
  </clipPath>
  <clipPath id="p17bdcdfaf2">
   <rect x="145.245455" y="7.2" width="101.454545" height="100.8"/>
  </clipPath>
  <clipPath id="pf3988764c3">
   <rect x="23.5" y="128.16" width="101.454545" height="100.8"/>
  </clipPath>
  <clipPath id="pc26be28908">
   <rect x="145.245455" y="128.16" width="101.454545" height="100.8"/>
  </clipPath>
 </defs>
</svg>
